<?xml version="1.0" encoding="UTF-8"?><svg xmlns="http://www.w3.org/2000/svg" width="1920" height="1080" xmlns:xlink="http://www.w3.org/1999/xlink" viewBox="0 0 1920 1080"><defs><style>.cls-1,.cls-2{fill:none;}.cls-1,.cls-2,.cls-3,.cls-4{stroke-miterlimit:10;}.cls-1,.cls-3,.cls-4{stroke:#000;}.cls-1,.cls-4{stroke-width:1.53px;}.cls-5{fill:url(#linear-gradient);}.cls-5,.cls-6,.cls-7,.cls-8,.cls-9,.cls-10,.cls-11,.cls-12,.cls-13,.cls-14,.cls-15,.cls-16,.cls-17{stroke-width:0px;}.cls-2{stroke:#fff;}.cls-3{fill:#ffc95a;stroke-width:.76px;}.cls-4{fill:#ffb63f;}.cls-7{fill:#46d2d9;}.cls-8{fill:#4cced6;}.cls-9{fill:#48cfd6;}.cls-10{fill:#99eaee;}.cls-11{fill:#17095b;}.cls-12{fill:#e10006;}.cls-13{fill:#d8eff1;}.cls-14{fill:#ccf7ff;}.cls-15{fill:#6ae8ff;}.cls-16{fill:#fff;}.cls-17{fill:#00d0d9;}</style><linearGradient id="linear-gradient" x1="1863.87" y1="-292.94" x2="2212.23" y2="-292.94" gradientTransform="translate(-1078.05 471.95)" gradientUnits="userSpaceOnUse"><stop offset="0" stop-color="#e8c3c6"/><stop offset="1" stop-color="#b1d8e5"/></linearGradient></defs><g id="background_lost"><rect id="sky" class="cls-5" x="785.82" y="-780.99" width="348.36" height="1920" transform="translate(780.99 1139.01) rotate(-90)"/><g id="mountains"><path class="cls-7" d="m398.5,207.66c7.43-38.85,43.41-58.56,65-74,47.12-70.51-10.19-104.91,97.01-14,26.07,69.03,53.99,30.24,98.99,85,165.71,199.41,57.12,154.88-130.01,151-150.17-17.01-154.37,4.76-130.99-148Z"/><path class="cls-7" d="m.5,277.66c68.56-8.44,78.18-61.67,96.5-91.5,7.68-.41,8.72,34.19,24,38,34.84-4.96,39.57-40.02,46-66,2.57-9.04,5.33-14.69,42-66,40.43-56.58,44.31-59.84,50-60,52.22,20.77,40.79,106.39,106.01,144.99,56.38,51.97,68.58,45.85,111.02,98.02,23.6,30.43,41.39,76.82,42.97,80.99-171.83-1.17-343.67-2.33-515.5-3.5-1-25-2-50-3-75Z"/><path class="cls-7" d="m575,356.16c64.34-68.82,123.62-104.86,232-129.99,17.24-21.29,20.74-21.16,49-25.01,94.06-25.83,131.24-74.3,180-127,30.7-24.79,34.56-6.21,65,16,34.05,18.92,43.46,15.7,58.99,51,102.82,88.9,201.27,95.18,296.01,216.99"/><path class="cls-7" d="m1300.5,355.66c41.67-151.2,63.25-124.64,171-155,85.25-33.34,110.49-104.63,214.01-103.99,116.12-23.86,127.54-102.16,233,45.99-.67,73-1.34,146-2,219-205.33-2-410.67-4-616-6Z"/><path class="cls-16" d="m501.12,83.5c25.15,29.33,38.17,74.91,72.88,92.66"/><path class="cls-16" d="m1118.49,139.14c18.05,26.76,32.92,55.71,61.05,73.23"/><path class="cls-16" d="m834,289.16c98.02-38.71,148.75-126.58,210-207-30.5,55.64-100.06,138.67-157,182"/><path class="cls-16" d="m1425,259.16c130.39-37.14,227.68-140.03,357.23-183.93-82.36,26.53-212.85,101.19-281.23,163.93"/><path class="cls-16" d="m1826.07,144.26c13.43,29.35,23.36,60.35,48.25,82.23"/><path class="cls-16" d="m54,284.16c14.65-20.78,31.7-55.82,39-80"/><path class="cls-16" d="m256,40.16c-22.82,26.64-47.68,64.51-64,102"/><path class="cls-16" d="m266.48,83.1c7.44,31.41,11.13,63.74,31.27,90.07"/><path class="cls-16" d="m372,209.16c29.47,23.41,64.44,60.66,88,99"/></g><rect id="sea" class="cls-10" y="340.83" width="1920" height="744"/><path class="cls-2" d="m1263.07,397.06c42.45-2.06,84.96-2.87,127.46-2.41"/><path class="cls-2" d="m1764.06,448.53c35.44-1.88,70.97-1.98,106.42-.29"/><path class="cls-2" d="m1280.11,583.52c48.26-1.65,96.51-3.3,144.77-4.95"/><path class="cls-2" d="m151.34,793.49c87.36-4.87,174.83-7.73,262.33-8.58"/><path class="cls-2" d="m1589.59,499.22c22.27-.82,44.55-1.65,66.82-2.47"/><path class="cls-2" d="m1457.19,395.28h38.36"/><path class="cls-2" d="m1746.73,791.31c34.23-1.24,68.47-2.47,102.7-3.71"/><path class="cls-2" d="m1334.85,734.92c59.81-2.06,119.61-4.13,179.42-6.19"/><path class="cls-2" d="m1494.19,921.28c96.13-.47,192.28,1.69,288.3,6.46"/><path class="cls-2" d="m1133,1033.54c44.55.41,89.09.82,133.64,1.24"/><path class="cls-2" d="m737.25,945.78l301.92.43"/><path class="cls-2" d="m668.64,599.05l94.04-1.24"/><path class="cls-2" d="m68.59,573.31l98.99-1.24"/><path class="cls-2" d="m947.28,487.03c84.14-2.81,168.41-1.59,252.42,3.66"/><path class="cls-2" d="m662.7,449.85h149.72"/><path class="cls-2" d="m928.86,413.76c44.13.32,88.27.63,132.4.95"/></g><g id="Du_har_tabt"><path class="cls-12" d="m610.35,210.31c12.33,16.07,20.2,37.71,22.92,58.29,2.64,19.98-.52,41.14-15.94,55.54-5.13,4.8-10.57,8-16.48,9.54.2,4.26-.62,7.36-2.51,9.35-1.13,1.19-3.13,1.96-5.99,2.32-9.97-4.37-18.51-11.48-26.42-18.42-12.63-11.07-25-23.49-37.29-35.42-12.29-11.93-24.52-23.98-37.15-35.57-.21-.19-.64-.46-1.29-.81-.64-.35-1.13-.67-1.45-.96-1.9-1.74-2.63-4-2.18-6.8.45-2.8,1.81-5.4,4.06-7.77,3.13-3.29,6.87-5.29,11.15-5.97,4.28-.69,7.29.54,9.08,3.58-.88-14.59,6.66-28.85,17.3-38.13,12.38-10.8,30.49-18.71,47.19-14.75,15.31,3.63,25.97,14.22,35,25.98Zm-19.43,13.52c-12.17-15.58-32.68-30.26-50.92-14.43-6.42,5.58-10.88,16.67-11.48,24.91-.67,9.31.38,17.85,3.72,24.88,3.34,7.03,8.22,13.61,14.5,19.82,10.89,10.77,21.78,21.54,32.67,32.31,6.99,7.77,18.29,10.37,26.2,2.47,7.7-7.69,10.39-19.29,10.05-29.9-.37-11.4-3.54-22.34-7.82-32.56-3.94-9.43-10.54-19.33-16.92-27.5Z"/><path class="cls-12" d="m693.35,174.77c1.95,3.95,4.36,10.16,7.33,18.59,2.97,8.43,5.5,14.67,7.54,18.73,1.78,3.55,4.6,8.78,8.42,15.67,3.82,6.89,6.58,12.06,8.29,15.49,1.46,2.92-.08,5.49-4.57,7.82-4.6,2.39-8.78,1.6-12.65-2.45-2.71,5.54-6.02,9.46-10.09,11.86-3.28,1.93-7.55,3.22-12.88,3.96-5.33.74-9.7.42-13.11-1.08-9.17-4.14-15.56-12.98-21.02-20.6-2.58-3.59-7.03-10.49-13-20.06-5.3-8.5-9.54-15.27-12.84-19.91,2.2-5.26,4.71-8.77,7.4-10.5,6.45-4.15,11.47-3.26,14.97,2.44,1.19,1.94,2.65,5.06,4.39,9.33,1.74,4.28,3.22,7.38,4.42,9.31,5.28,8.53,10.56,17.06,15.84,25.59,1.8,2.9,4.46,5.52,7.9,7.67,4.02,2.51,7.4,2.99,9.96,1.48,5.01-2.96,6.87-8.51,5.58-16.71-.89-5.64-3.18-11.89-6.87-18.63-4.91-8.99-7.36-13.49-12.27-22.48-1.57-2.87-4.3-6-8.26-9.34,1.8-4.73,4.32-7.95,7.49-9.62,3.3-1.74,6.8-2.33,10.45-1.78,3.65.55,6.17,2.32,7.61,5.25Z"/><path class="cls-12" d="m826.21,211.14c-1.74,3.18-4.47,5.24-8.27,6.22-2.57.66-7.6-.63-9.37-3.24-3.7-5.44-5.23-18.66-7.79-27.96-2.77-10.09-11.84-45.81-26.48-41.62-13.7,3.91-5.11,31.33-1.88,40.72.46,1.34,1.12,3.3,1.98,5.86.86,2.56,1.52,4.52,1.98,5.86.68,2.02,2.04,4.98,4.05,8.88,2.01,3.9,3.34,6.87,4.01,8.9.58,1.76.15,3.66-1.26,5.71-1.41,2.06-2.89,3.36-4.47,3.91-3.03,1.07-6.09.63-9.24-1.31-3.15-1.94-5.39-4.56-6.66-7.88-14.43-38.56-28.81-77.15-43.12-115.76-.15-.4-.35-.93-.61-1.6-.25-.67-.43-1.13-.53-1.4-1.82-4.79.44-8.42,6.83-10.72,3.03-1.09,6.98-1.16,11.77-.14,4.79,1.01,7.56,2.79,8.37,5.22.98,2.99,1.68,7.64,2.15,13.95.48,6.31,1.25,10.95,2.26,13.92,1.28,3.79,3.46,9.76,6.53,17.91,2.61-2.82,5.04-4.58,7.24-5.28,5.72-1.82,12.43-2.45,19.88-1.71,9.59.95,17.08,5.12,22.24,12.05,3.86,5.18,6.94,12.96,9.37,23.2,3.66,15.43,7.33,30.86,10.99,46.3Z"/><path class="cls-12" d="m901.94,159.99c.7,12.92,1.73,26.07.88,38.85-.29,4.39-2.82,6.8-7.44,7.18-7,.57-10.54-3.02-10.59-11.02-6.05,4.05-12.38,6.55-19.18,7.54-6.56.96-13.05.18-19.7-2.34-7.92-3-12.73-7.68-14.15-14.36-1.39-6.54,1.49-13.62,9.17-20.96,6.94-6.63,14.19-10.45,21.3-11.43,7.11-.99,10.68-1.42,17.82-2.15-.21-2.02-.32-3.03-.53-5.05-.29-8.97-4.57-22.08-15.99-20.52-11.52,1.58-16.56,7.67-14.88,17.95.57,3.47-1.12,5.52-5.06,6.2-2.39.42-5.08-.22-8.1-1.89-3.02-1.67-4.79-3.67-5.26-6.05-1.55-7.81.06-14.83,5.09-20.93,5.03-6.11,11.92-9.87,20.39-11.03,31.82-4.34,44.73,22.07,46.23,50Zm-20.01,9.35c-.29-2.83-2.67-4.19-6.57-3.57-8.01,1.26-25.23,3.63-23.34,16.02.68,4.43,4.71,6.09,11.88,5.05,4.43-.64,8.43-2.65,12.05-5.67,4.24-3.54,6.43-7.44,5.98-11.82Z"/><path class="cls-12" d="m975.25,123.56c-.08.99-.35,2.54-.81,4.64-3.4,4.02-6.71,5.93-10.04,5.73-2.75-.16-6.4-2.44-7.17-5.07-1.29-4.44-2.24-9.72-6.7-9.87-2.68-.09-6.19,6.58-10.11,20.04-1.8,5.95-2.71,14.26-2.81,24.93-.09,10.1.33,16.24,1.12,18.36.98,2.65,1.4,4.57,1.39,5.57-.04,2.42-1.06,4.36-3.04,5.83-1.98,1.48-4.16,2.22-6.56,2.23-6.83.04-10.33-3.39-10.53-10.5-.02-.71.12-1.71.41-3,.29-1.29.44-2.22.42-2.78-.29-10.76-1.04-21.54-1.87-32.28-.83-10.67-1.67-21.38-2-32.06-.2-6.38,3.83-9.76,12.06-9.82,4.88-.03,8.23,1.35,10.02,4.07,4.28-4.36,9.18-6.47,14.54-6.27,3.67.13,7.16,1.22,10.4,3.25,2.22,1.26,4.73,3.87,7.47,7.84,2.74,3.97,3.97,7.03,3.81,9.16Z"/><path class="cls-12" d="m1079.77,139.04c-1.04,3.7-7.63,4.56-19.74,3.22-1.03,2.97-2.85,9.85-5.48,20.63-1.34,5.47-2,8.21-3.34,13.68-.67,2.77-1.27,6.94-1.81,12.52-.55,5.58-1.17,9.68-1.82,12.3-.55,2.21-2.06,3.92-4.48,5.17-2.42,1.25-4.62,1.64-6.62,1.19-3.12-.71-5.09-4.26-6-10.7-.7-4.94-.64-9.57.24-13.89,3.02-14.77,6.04-29.54,9.06-44.32-6.42-2.32-10.15-3.62-11.11-4.09-3.57-1.8-5.19-3.72-4.83-5.83.1-.56.35-1.17.76-1.82,4.71-4.53,9.52-6.34,14.28-5.42.3.06.74.14,1.34.26.56.26,1,.42,1.29.48,3.11.62,5.31-2.47,6.6-9.32,1.28-6.1,1.92-9.15,3.2-15.24-.45-1.69-.57-3.09-.34-4.21.38-1.81,1.92-3.2,4.65-4.15,2.73-.94,5.2-1.17,7.39-.67,3.28.74,6.09,2.83,8.37,6.24,2.28,3.41,3,6.64,2.23,9.67-.84,3.31-2.24,6.44-4.18,9.4-1.94,2.96-3.25,6.2-3.95,9.68-.08.33-.12.5-.2.83,11.27,3.94,16.02,8.91,14.48,14.39Z"/><path class="cls-12" d="m1139.21,203.14c-5.41,11.76-10.63,23.88-17.37,34.78-2.31,3.75-5.72,4.68-10.05,2.84-6.56-2.79-8.06-7.62-4.37-14.73-7.32.75-14.16,0-20.71-2.3-6.31-2.21-11.74-5.92-16.49-11.23-5.66-6.33-7.74-12.71-5.9-19.28,1.81-6.44,7.67-11.38,17.92-14.31,9.28-2.65,17.53-2.65,24.36-.2,6.83,2.45,10.22,3.74,16.98,6.43.76-1.89,1.13-2.83,1.89-4.72,3.96-8.15,6.14-21.73-4.76-25.65-11.05-3.97-18.39-.93-21.69,8.95-1.12,3.34-3.58,4.36-7.41,3.14-2.33-.74-4.42-2.55-6.33-5.44-1.91-2.88-2.56-5.48-1.87-7.8,2.26-7.64,6.96-13.1,14.29-16.17,7.33-3.07,15.24-3.2,23.35-.27,30.33,10.95,29.96,40.27,18.15,65.94Zm-22.37-1.15c1.06-2.64-.49-4.68-4.22-6.24-7.76-3.24-24.5-7.46-28.36,3.28-1.5,4.17,1.36,7.58,8.25,10.01,4.26,1.5,8.78,1.59,13.44.61,5.46-1.15,9.24-3.57,10.88-7.66Z"/><path class="cls-12" d="m1221.17,235.04c-6.4,8.86-14.02,17.59-23.6,23.5-8.91,5.49-20.33,7.44-29.77,1.82-2.91-1.73-6.89-5.59-12.1-11.47-.36.94-.74,1.78-1.15,2.54-2.23,4.13-5.44,5.04-9.67,2.84-3.08-1.61-4.96-4.15-5.66-7.67-.36-1.61.93-5.97,3.56-13,2.19-5.84,4-10.48,5.56-13.67.15-.31.22-.46.37-.77,18.59-35.66,37.38-71.21,56.37-106.65,4.04-1.97,7.66-1.81,10.79.44.9.14,1.73.42,2.5.82,2.77,1.44,4.62,4.16,5.52,8.12.9,3.96.66,7.13-.63,9.5-2.94,5.37-7.46,12.28-13.51,20.58-6.99,9.58-11.66,16.34-13.89,20.15,6.34-2.24,12.78-1.55,19.1,2.12,7.55,4.38,12.85,10.94,15.67,19.41,2.81,8.46,2.69,16.59-.1,24.31-1.69,4.69-4.77,10.73-9.37,17.11Zm-16.31-12.38c4.75-7.37,14.19-24.89,4.1-31.44-5.89-3.82-13.64-2.14-21.6,4.67-6,5.14-10.93,11.49-14.91,18.86-4.99,9.25-10.41,25.4.64,31.15,12.48,6.48,26.06-14.39,31.77-23.24Z"/><path class="cls-12" d="m1289.62,252.68c-2.53,2.89-9.09.59-19.9-6.21-2.21,2.24-6.8,7.67-13.79,16.29-3.55,4.38-5.32,6.56-8.87,10.94-1.79,2.21-4.1,5.74-6.95,10.58-2.85,4.83-5.15,8.29-6.87,10.37-1.44,1.76-3.57,2.63-6.37,2.65-2.8.02-5.03-.62-6.71-1.95-2.63-2.08-2.98-6.2-1.14-12.48,1.42-4.81,3.41-9.01,6.06-12.54,9.03-12.08,18.06-24.15,27.09-36.23-5.04-5.02-7.98-7.89-8.68-8.74-2.58-3.24-3.29-5.72-2.07-7.47.32-.47.81-.9,1.48-1.31,6.31-2.01,11.57-1.49,15.63,1.51.25.19.63.47,1.14.84.42.49.76.83,1.01,1.02,2.66,1.98,6.01.16,10.09-5.49,3.76-4.97,5.64-7.45,9.4-12.42.28-1.75.76-3.08,1.45-3.99,1.11-1.48,3.14-2.05,6.1-1.66,2.96.38,5.37,1.31,7.21,2.76,2.77,2.17,4.53,5.37,5.24,9.52.71,4.16.03,7.44-1.96,9.85-2.17,2.63-4.81,4.84-7.87,6.65-3.06,1.81-5.65,4.15-7.77,7.01-.22.26-.32.4-.54.66,8.93,8.78,11.32,15.55,7.58,19.84Z"/><path class="cls-12" d="m1283.46,333.66c-7.9,7.38-15.89,6.58-24.33-1.8-1.55-1.54-3.55-5.43-6.2-11.63.94-3.41,2.36-6.17,4.3-8.25,5.61-6.04,12.19-5.67,19.46,1.54,2.66,2.64,4.85,5.9,6.54,9.67,2.25,5.02,2.31,8.53.23,10.47Zm94-77.12c-.74.67-1.84,1.06-3.27,1.16-1.99.14-3.27.22-3.82.25-10.5,2.94-19.68,8.84-28.6,14.71-8.89,5.85-17.24,12.83-25.66,19.47-.51.49-1.65,1.31-3.41,2.46-1.76,1.15-3.04,2.12-3.86,2.91-2.66,2.57-5.59,6.6-8.86,12.03-1.45.13-3.62.13-6.5.02-1.45-.88-2.85-2-4.21-3.37-2.1-2.11-3.55-4.54-4.37-7.32,1.18-4.41,3.9-8.94,8.23-13.41,6.81-7.03,15.3-12.49,23.38-17.9,8.06-5.39,16.8-10.67,23.7-17.53,1.8-1.79,4.14-4.96,6.98-9.46,2.84-4.49,5.14-7.67,6.93-9.5.99-1.01,1.96-1.76,2.92-2.22,5.27,1,10.23,3.84,14.75,8.53,2.64,2.74,4.86,6.05,6.29,9.75,1.67,4.31,1.37,7.58-.63,9.4Z"/><g id="Layer_10"><path class="cls-16" d="m495.27,249.14c.16-1.79.58-4.41,1.84-5.34.41-.3.76-.36,1.38-.34.27,0,.34.02.78.14.39.1.79.25,1.05.37,3.92,1.77,7.13,5.26,10.02,8.34,1.49,1.59,2.92,3.23,4.36,4.87,1.28,1.45,3.39-.68,2.12-2.12-3.1-3.52-6.2-7.09-9.79-10.13-2.8-2.37-7.74-6.27-11.53-3.65-2.47,1.71-2.98,5.09-3.22,7.85-.17,1.92,2.83,1.91,3,0h0Z"/><path class="cls-16" d="m607.55,227.67c-5.62-11.43-14.97-21.16-25.8-27.78s-23.27-10.12-35.44-7.08c-7.14,1.78-13.41,5.9-18.37,11.28-1.3,1.42.81,3.55,2.12,2.12,4.18-4.55,9.3-8.17,15.24-10.01,5.41-1.68,11.19-1.87,16.74-.88,11.93,2.14,22.77,8.96,31.18,17.51,4.73,4.81,8.76,10.29,11.74,16.35.85,1.73,3.44.21,2.59-1.51h0Z"/><path class="cls-16" d="m632.62,203.53c.29-1.03.62-2.05,1.07-2.97.19-.37.39-.74.62-1.09.04-.07.3-.42.13-.2.13-.16.27-.32.41-.47.11-.11.22-.21.34-.31-.23.21,0,0,.12-.08.1-.06.21-.11.3-.17.17-.1-.28.08-.1.04.07-.02.15-.05.22-.07.2-.06.36-.04.04-.03.12,0,.24,0,.36-.01.38-.01-.14-.06.05,0,.13.04.27.07.4.1.06.02.12.05.18.06.19.05-.27-.13-.09-.04.12.06.24.12.36.18.11.06.21.12.31.19.09.06.51.4.23.15.5.42.95.87,1.37,1.37.04.05.35.45.18.21.11.15.22.29.32.44.23.33.45.66.66,1.01.42.7.81,1.42,1.15,2.16.66,1.4,1.3,3.28,1.67,5.04.17.79,1.1,1.25,1.85,1.05.82-.23,1.22-1.05,1.05-1.85-.76-3.63-2.34-7.26-4.7-10.13-.97-1.18-2.2-2.25-3.68-2.73s-3.11-.07-4.33.95c-1.86,1.55-2.75,4.15-3.38,6.39-.53,1.86,2.36,2.65,2.89.8h0Z"/><path class="cls-16" d="m676.23,179.65c.49-.45.88-.74,1.54-1.07.21-.1-.21.07,0,0,.06-.02.12-.05.18-.06.12-.04.23-.07.35-.1.08-.02.15-.03.23-.05-.01,0-.29.02-.11.02.15,0,.3-.02.45-.02.06,0,.4.04.18,0s.16.04.23.06c.11.03.21.07.32.1.03,0,.21.08.03,0-.21-.08.09.04.13.06.22.12.44.24.65.39.05.03.32.24.19.13-.15-.12.05.05.09.08.06.06.13.11.19.17.44.4.85.84,1.22,1.31.06.07.12.14.17.22-.02-.02-.12-.16-.02-.03.09.11.17.23.26.34.21.29.42.59.62.89.73,1.1,1.4,2.23,2.09,3.35s1.46,2.36,2.38,3.4c.54.61,1.57.55,2.12,0,.6-.6.54-1.51,0-2.12-.08-.09-.16-.19-.24-.29-.24-.28.08.12-.08-.1-.19-.27-.38-.53-.57-.8-.37-.54-.71-1.1-1.05-1.66-.75-1.23-1.48-2.47-2.3-3.66-1.55-2.24-3.63-4.76-6.6-4.85-1.84-.05-3.46.97-4.76,2.17-1.42,1.31.7,3.43,2.12,2.12h0Z"/><path class="cls-16" d="m724.5,96.81c2.35-1.83,5.38-3.87,8.41-3.71.83.04,1.65.35,2.45.94.68.51,1.41,1.47,1.93,2.38,1.35,2.38,2.01,5.14,2.53,7.8.62,3.16.95,6.36,1.24,9.56s.51,6.5.95,9.74c.11.81,1.14,1.23,1.85,1.05.87-.23,1.16-1.05,1.05-1.85-.85-6.26-.96-13.12-2.24-19.53-1.02-5.13-3.15-12.42-9.35-13.07-4.07-.43-7.9,2.19-10.94,4.55-1.52,1.18.61,3.29,2.12,2.12h0Z"/><path class="cls-16" d="m770.57,137.45c6.57-1.52,13.46-.8,18.85,3.52s8.4,10.61,10.39,16.95c.58,1.84,3.47,1.05,2.89-.8-3.35-10.68-10.27-21.5-22.24-23.19-3.58-.51-7.17-.19-10.69.62-1.88.43-1.08,3.33.8,2.89h0Z"/><path class="cls-16" d="m839.3,139.78c-5.89-13.08,9.7-23.47,21.32-22.64,1.93.14,1.92-2.86,0-3-10.57-.75-23.7,6.27-25.39,17.54-.5,3.34.11,6.55,1.49,9.61.79,1.76,3.38.23,2.59-1.51h0Z"/><path class="cls-16" d="m843.01,191.77c-2.32-.98-4.6-2.43-5.62-4.83-.86-2.02-.61-4.29.05-6.32,1.64-5.02,5.82-9.31,10.27-11.99,2.42-1.46,5.15-2.56,8.02-2.61,1.93-.03,1.93-3.03,0-3-6.16.09-11.99,3.93-16.02,8.35-3.73,4.09-7.26,10.23-5.37,15.93,1.13,3.4,3.95,5.7,7.16,7.06.75.32,1.6.22,2.05-.54.38-.63.21-1.74-.54-2.05h0Z"/><path class="cls-16" d="m962.44,130.35c3.08-3.85,4.03-8.87,2.38-13.56-1.55-4.39-4.95-8.03-9.37-9.6-2.64-.94-5.53-.94-8.22-.2-1.86.51-1.07,3.41.8,2.89,4.83-1.33,9.76.78,12.49,4.92s2.95,9.49-.2,13.43c-.51.64-.61,1.5,0,2.12.52.53,1.62.63,2.12,0h0Z"/><path class="cls-16" d="m922.31,116.8c2.57-3.41,7.43-4.54,11.32-3.05.76.29,1.65-.32,1.85-1.05.23-.85-.29-1.55-1.05-1.85-5.25-2.01-11.38,0-14.71,4.43-.49.65-.1,1.68.54,2.05.77.45,1.56.11,2.05-.54h0Z"/><path class="cls-16" d="m1055.07,98.69c.95-.08,2.16-.09,2.95.02.39.06.77.14,1.15.25.2.06.4.12.6.19.1.03.19.07.28.11-.13-.05-.11-.04.05.03.34.17.67.36.98.58.36.25-.2-.18.13.1.13.12.27.24.39.37s.24.26.35.4c-.2-.25.12.18.15.23.09.15.18.3.27.46.02.04.21.45.15.3s.1.28.12.32c.06.17.11.35.15.52s.09.36.12.54c.02.09.03.19.05.28-.02-.16-.02-.15,0,.03.07.76.06,1.52-.03,2.27-.02.18-.03.21,0,.08-.02.11-.03.21-.05.32-.04.22-.08.43-.13.65-.09.39-.19.77-.3,1.16-.27.9-.58,1.69-.97,2.51-.35.73-.2,1.62.54,2.05.65.38,1.7.2,2.05-.54,1.39-2.9,2.29-6.1,1.8-9.32-.44-2.88-2.31-5.15-4.99-6.23-1.81-.73-3.86-.83-5.78-.68-.81.06-1.5.64-1.5,1.5,0,.76.69,1.57,1.5,1.5h0Z"/><path class="cls-16" d="m1071.88,137.79c-6.41-6.3-15.51-8.01-24.05-9.39-1.89-.3-2.7,2.59-.8,2.89,7.97,1.29,16.73,2.72,22.73,8.62,1.38,1.35,3.5-.77,2.12-2.12h0Z"/><path class="cls-16" d="m1089.9,159.9c-1.45-11.72,12.82-16.02,22.07-13.78,1.88.45,2.68-2.44.8-2.89-8.41-2.04-20.28.27-24.54,8.67-1.26,2.48-1.67,5.25-1.33,8,.1.81.62,1.49,1.5,1.5.73,0,1.6-.7,1.5-1.5h0Z"/><path class="cls-16" d="m1073.89,209.23c-1.97-2.74-3.54-5.89-3.36-9.34.14-2.74,1.52-5.24,3.39-7.2,4.49-4.72,11.33-7.1,17.64-7.99,3.56-.5,7.28-.52,10.8.29,1.88.43,2.68-2.46.8-2.89-7.22-1.67-15.19-.48-21.97,2.35-6.08,2.54-12.5,7.14-13.52,14.14-.64,4.41,1.1,8.63,3.63,12.16,1.12,1.55,3.72.06,2.59-1.51h0Z"/><path class="cls-16" d="m1194.03,163.87c3.96-6.35,9.12-11.86,13.4-17.99s8-12.74,7.56-20.09c-.26-4.42-2.13-8.33-4.87-11.75-1.21-1.5-3.32.63-2.12,2.12,2.18,2.71,3.75,5.97,3.99,9.48.22,3.26-.55,6.49-1.81,9.48-2.8,6.68-7.59,12.41-12.02,18.06-2.34,2.98-4.71,5.96-6.71,9.18-1.02,1.64,1.57,3.15,2.59,1.51h0Z"/><path class="cls-16" d="m1209.77,231.66c4.77-6.57,8.95-13.78,11.48-21.53,2.28-6.99,3.22-15.27-.91-21.79-2.61-4.12-6.73-6.77-11.2-8.51-1.8-.7-2.58,2.2-.8,2.89,3.54,1.38,6.96,3.51,9.13,6.71,1.8,2.66,2.64,5.79,2.72,8.99.19,7.39-2.85,14.69-6.29,21.08-1.99,3.7-4.26,7.25-6.73,10.65-1.14,1.56,1.47,3.06,2.59,1.51h0Z"/><path class="cls-16" d="m1282.44,220.81c4.15-1.69,7.47-5.31,8.79-9.6s-.13-8.97-4.18-11.41c-1.66-1-3.17,1.59-1.51,2.59,6.62,3.99,1.78,13.22-3.9,15.53-.75.31-1.28,1-1.05,1.85.2.71,1.09,1.35,1.85,1.05h0Z"/><path class="cls-16" d="m1282.01,246.76c-4.12-6.3-9.56-11.65-15.93-15.66-1.64-1.03-3.15,1.56-1.51,2.59,5.93,3.73,11.01,8.72,14.85,14.58,1.05,1.61,3.65.11,2.59-1.51h0Z"/><path class="cls-16" d="m1330.32,271.81c1.87-3.04,5.05-5.13,8.14-6.84,3.68-2.03,7.59-3.63,11.44-5.32,3.48-1.53,7.07-3.07,10.15-5.34,2.54-1.87,4.75-4.32,5.01-7.6.37-4.67-3.29-8.85-6.35-11.91-1.37-1.36-3.49.76-2.12,2.12,2.47,2.46,5.56,5.88,5.5,9.34-.02,1.1-.38,2.05-1.14,3.12-.61.86-1.85,1.95-2.85,2.65-6.4,4.48-14.23,6.55-21.04,10.29-3.58,1.97-7.14,4.42-9.32,7.97-1.01,1.65,1.58,3.16,2.59,1.51h0Z"/><path class="cls-16" d="m1269.18,333.83c5.67-4.39,4.51-14.11-1.96-17.13-.73-.34-1.62-.21-2.05.54-.38.65-.2,1.71.54,2.05,4.9,2.28,5.59,9.13,1.36,12.41-.64.5-.52,1.6,0,2.12.63.63,1.48.5,2.12,0h0Z"/></g></g><g id="small_ice_flage"><path class="cls-9" d="m1526.54,620.1c-23.84-9.94,161.73-20.79,146.15-15.65,33.87-8.22,174.26-19.26,202.73,7.63-.82,8.8-25.17,18.36-25.17,18.36-6.54,25.25,11.24,29.25-30.9,32.24-103.47-4.41-159.05,20.66-208.9-23.38-29.7-18.74-76.36,3.91-83.91-19.21Z"/><path class="cls-13" d="m1526.54,609.91c-23.84-9.94,161.73-20.79,146.15-15.65,33.87-8.22,174.26-19.26,202.73,7.63-.82,8.8-25.17,18.36-25.17,18.36-6.54,25.25,11.24,29.25-30.9,32.24-103.47-4.41-159.05,20.66-208.9-23.38-29.7-18.74-76.36,3.91-83.91-19.21Z"/></g><g id="small_ice_flage_2"><path class="cls-8" d="m339.61,431.13c-1.17-18.79,52.69-14.94,73.59-18.23,37.03-.25,27.7-11.68,64.95-10.96,34.17,3.14,112.33.84,140.81,7.24-1.81,22.03-42.04,12.18-74.16,17.22-27.18,10.21-175.34,5.01-205.18,4.73Z"/><path class="cls-13" d="m339.96,425.69c-1.42-18.79,52.48-15.32,73.33-18.76,37.02-.52,27.53-11.88,64.79-11.42,34.21,2.89,112.35.03,140.91,6.22-1.5,22.04-41.91,12.49-73.92,17.76-27.04,10.41-175.31,6.27-205.11,6.21Z"/></g><g id="big_ice_flage"><path class="cls-17" d="m596.5,703c168.14,17.44,304.63,14.93,399.89,9.09,161.35-9.9,319.13-36.41,341.11,15.91,5.88,14,.42,29.79-5.01,40.81-13.17,12.72-36.98,37.73-75.02,44.61-36.11,6.53-81.54,4.4-130.98-7.42-34.94,70.32-274.63,52.07-340,54.01-27.95-6.99-41.51-31.79-48-52.02-70.13-6.42-162.51-29.32-142-105Z"/><path class="cls-14" d="m730.5,602c112-3.01,224-6.02,336-9.02,5.09.49,10.9,1.65,17,4.02,24.32,9.47,35.56,31.45,39,39,10.45,17.32,188.05,17.56,208,64,38.48,54.43-75.01,70.83-88.99,74-65.85,9.04-91.76-11.26-134,0-23.23,8.87-48.93,17.16-77,24-85.93,20.96-162.68,20.81-221,15-3.33-1.33-6.67-2.67-10-4-10.33-11.33-20.67-22.67-31-34-100.2-6.71-169.94-39.02-171.99-72.01-1.99-31.97,59.09-72.39,100.99-89.99,12.74-5.35,24.11-8.77,33-11Z"/></g><g id="Pingo_sad"><g id="pingo"><g id="white"><path id="face" class="cls-16" d="m935,442.01c14.49,1.12,36.85,2.55,59.48-10.72,11.01-6.46,18.43-14.25,22.94-19.81,13.2-28.1,17.45-67.62,0-88.52-51.03-46.62-105.87,38.65-46.58,79.36h-51.09c4.77-3.69,18.02-14.97,21.37-33.58,4.11-22.85-7.34-53.38-30.53-58-18.91-3.77-37.75,11.25-45.79,27.47-12.04,24.32,1.77,48.25,2.86,50.06-.57,7.31-.25,18.78,6.29,29.3,12.85,20.68,40.47,22.82,61.05,24.42Z"/><path id="tommy" class="cls-16" d="m991.61,429.67c-26.86,13.35-73.52,13.73-97.54-.11-42.75,37.5-34.14,65.36-37.95,123.35-3.66,55.54-28.94,61.31-22.66,94.93,24.39,86.29,128.66,107.66,187,59.73,58.96-65.33,28.64-209.98-28.85-277.91Z"/></g><path id="l_foot" class="cls-4" d="m1119.83,657.5c10.38-12.52-3.97-26.86-14.04-21.98,2.69-20.06-14.29-28.91-31.94-17.43-.34.22-.68.4-1.03.64-20.76,11.29-26.56,35.41-28.39,43.35-3.98,11.74-5.04,31.24,2.95,46.12,4.26,7.94,11.06,14.58,21.47,17.98,45.48,15.26,107.75-68.07,50.98-68.68Z"/><path id="r_foot" class="cls-4" d="m830.76,678.56c.31-8.24,1.22-32.97-15.26-49.76-4.23-5.26-9-8.54-13.68-9.98-10.52-3.25-20.53,2.85-22.65,17-8.24-7.33-25.95,2.14-19.54,17.09-54.95-14.96-18.01,82.42,29.91,79.98,20.38-.59,32.03-15.29,37.46-30.71,2.95-8.37,4.07-16.96,3.75-23.62Z"/><path id="body_black" class="cls-6" d="m1044.43,662.08c1.83-7.94,7.63-32.05,28.39-43.35.34-.24.68-.42,1.03-.64-1.9-13.61-5.61-27.9-11.22-42.67,4.9-27.85.53-67.93-.8-71.47-15.87-39.99-25.34-48.53-54.95-68.68,32.66-16.48,34.19-69.29,30.83-103.48-3.66-44.87-40.6-73.26-85.47-76.31,5.8-5.19,15.57-2.75,20.45-1.22-4.88-7.33-22.28-5.49-30.53-.31,5.49-11.29,16.48-7.33,20.76-11.29-4.88-6.11-22.59-.92-29,5.19-11.29-.92-33.88-.92-35.1,11.9,6.11-1.83,10.99-8.24,20.15-1.83-59.83,8.24-86.69,74.79-61.66,128.82-5.8,13.43,11.9,43.96,23.5,45.79-51.14,19.15-71.65,71.98-62.2,120.43-8.56,21.71-15.17,43.84-16.8,65.86,4.68,1.44,9.45,4.72,13.68,9.98,16.48,16.79,15.57,41.51,15.26,49.76.32,6.66-.8,15.25-3.75,23.62,24.4,26.5,79.7,34.3,106.92,32.54,52.69,5.52,90.3-5.17,113.45-26.53-7.99-14.88-6.93-34.38-2.95-46.12Zm-209.71-12.82c-1.3-11.6,1.86-25.48,6.3-40.12,7.64,14.35,14.11,19.69,20.57,23.03,6.43,3,10.5,3.6,12.87,2.36.2-.1.4-.19.58-.32,1.21-.9,1.85-2.44,2.05-4.48.3-3.1-.42-7.39-1.76-12.55-3.69-14.18-12-34.79-16.18-54.61-.49-1.95-1.1-4.79-1.77-8.24.3-1.53.61-3.07.85-4.58,1.5-57.98-3.76-81.38,37.11-118.78.33-.3.66-.6.99-.91-2.26-.67-4.49-1.37-6.66-2.11h2.11c-.56-.21-1.13-.46-1.7-.72-12.52-5.81-27.24-23.55-21.16-37.74-6.41-18.62-9.16-43.65,3.97-60.44,39.62-45.41,73.46,12.95,61.1,55.67,3.4-1.44,7.1-2.25,10.94-2.25,2.23.05,4.41.39,6.52.95-10.48-37.59,17.61-94.19,56.97-64.45,14.04,7.33,16.79,24.11,18.32,34.19,2.75,16.48-.92,23.2-4.58,37.24,3.14,11-9.67,31.83-23.58,37.55h.99c-2.45.83-4.89,1.6-7.33,2.31.21.27.43.55.64.82,33.43,42.82,53.2,109.92,38.13,168.11-1.33,4.76-5.99,12.6-7.45,18.87-.25,1.09-.39,2.11-.42,3.08-.07,2.4.63,4.38,2.68,5.53,6.86,3.96,16.91-15.35,23.66-24.2-1.21,36.74-7.07,73.63-27.93,97.46-51.59,49.76-164.23,35.71-186.81-50.67Z"/><path class="cls-3" d="m917.14,403.53c.61,2.75,5.8,4.88,12.21,3.05,6.41,2.75,11.9,3.05,15.26,3.05,7.02,0,12.21-1.83,15.26-3.05,6.41,1.83,11.6-.31,12.21-3.05-2.76-9.79-10.89-17.5-20.65-20.11-2.11-.56-4.29-.9-6.52-.95-3.84,0-7.54.81-10.94,2.25-7.96,3.37-14.27,10.26-16.84,18.81Z"/><path class="cls-1" d="m924.04,399.62c9.46-6.11,26.86-10.07,42.74,0"/><path class="cls-11" d="m1001.7,359.27c-2.75-18.93-26.56-28.69-30.53,0-3.97,39.68,33.27,24.42,30.53,0Zm-6.41-9.16c5.8,5.19,1.83,8.55-3.36,6.11-14.65-5.8-8.85-15.87,3.36-6.11Zm-3.66,18.01c4.27,6.1-4.27,11.9-10.99,8.55-16.79-11.29.31-23.81,10.99-8.55Z"/><path class="cls-11" d="m917.45,358.35c-2.44-28.69-26.86-20.45-30.53-1.83-3.97,24.42,32.05,41.82,30.53,1.83Zm-6.41,15.87c-5.49,5.19-15.26,2.44-13.13-4.58,4.88-17.7,25.34-11.6,13.13,4.58Zm-18.62-23.81c8.85-13.13,17.4-5.19,5.19,4.58-6.41,4.27-8.55,0-5.19-4.58Z"/><path class="cls-16" d="m991.93,356.22c5.19,2.44,9.16-.92,3.36-6.11-12.21-9.77-18.01.31-3.36,6.11Z"/><path class="cls-16" d="m980.64,376.67c6.72,3.36,15.26-2.44,10.99-8.55-10.68-15.26-27.78-2.75-10.99,8.55Z"/><path class="cls-16" d="m897.91,369.65c-2.14,7.02,7.63,9.77,13.13,4.58,12.21-16.18-8.24-22.28-13.13-4.58Z"/><path class="cls-16" d="m892.42,350.42c-3.36,4.58-1.22,8.85,5.19,4.58,12.21-9.77,3.66-17.7-5.19-4.58Z"/><path id="eyebrow_r" class="cls-6" d="m869.83,346.76c6.11,2.14,19.23-10.99,15.87-18.01-.61,5.19-9.16,17.09-15.87,18.01Z"/><path id="eyebrow_l" class="cls-6" d="m1016.35,347.67c-4.58-.92-15.87-11.29-15.87-17.7-3.05,5.8,8.85,20.45,15.87,17.7Z"/><path class="cls-1" d="m1023,622.7c-15.26-36.32,13.43-48.53-7.33-89.13"/><path class="cls-1" d="m880.6,532.08c-9.16,43.65,17.4,53.11-4.88,97.99"/><path class="cls-1" d="m890.83,428.14c30.22,10.38,69.6,13.74,109.89,0"/></g></g><g id="Layer_11"><path id="tear" class="cls-15" d="m1052.29,375.09c-2.75,12.21-2.14,17.09,0,18.32,1.83.92,4.88-.92,6.11-3.05,2.44-3.66.61-10.68-6.11-15.26Z"/></g></svg>