<?xml version="1.0" encoding="UTF-8"?><svg id="Layer_2" xmlns="http://www.w3.org/2000/svg" width="187" height="187" viewBox="0 0 187 187"><defs><style>.cls-1{fill:#047086;stroke:#047086;stroke-miterlimit:10;}</style></defs><path class="cls-1" d="M60.1,41.11c-.08-.2.17-.5.5-.8.04-.03,1.19-1.11,1.23-1.15.03-.03,1.09-1.02,1.13-1.05.22-.15.52-.32.9-.45.24-.08.46-.14.65-.17,6.81,0,13.63,0,20.44,0,.13.68.27,1.35.4,2.03-.52.61-1.03,1.22-1.55,1.84-13.09-.15-20.92-.18-22.39-.04-.2.02-1.17.12-1.3-.2Z"/><path class="cls-1" d="M109.07,40.78c26.23.32,45.29.55,46.28.57.11,0,.48.01.55-.15.08-.19-.26-.56-1.03-1.11-.03-.03-.92-.81-.95-.84-.12-.11-1.76-1.56-1.88-1.66-.06-.11-.26-.43-.68-.6-.49-.2-.93-.05-1.02-.01l-45.28.21c1.33,1.2,2.67,2.4,4,3.6Z"/><path class="cls-1" d="M12.34,166.12c-1.55-.1-3.52-.49-4.27-1.87-.94-1.74.54-4.2,1.07-5.07,2.86-4.78,17.36-29.52,37.33-63.47,23.99-.45,31.2-.58,31.2-.58,0,0-10.04-.94-20.53,4.05-1.39.66-2.55,1.31-3.47,1.87-4.09,7.11-8.18,14.22-12.27,21.33-1.27,1.5-1.58,3.58-.8,5.33,1.12,2.52,3.85,2.92,4,2.93,8.09.09,16.18.18,24.27.27.84.59,1.74,1.29,2.67,2.13,1.32,1.2,2.37,2.4,3.2,3.47-10.67.09-21.33.18-32,.27-1.23.19-2.69.51-4.27,1.07-2.23.78-4.02,1.79-5.33,2.67-2.84,3.64-5.69,7.29-8.53,10.93-1.05,1.09-1.47,2.62-1.07,4,.51,1.75,2.26,3,4.27,2.93,23.38-.09,46.76-.18,70.13-.27,1.2,1.04,2.46,2.19,3.73,3.47s2.43,2.53,3.47,3.73c-30.93.27-61.87.53-92.8.8Z"/><path class="cls-1" d="M124.07,144.25c.71-.7,2.63.78,7.73,2.4,2.7.86,4.96,1.34,6.4,1.6,1.37,1.59,2.68,2.83,3.73,3.73,1.01.87,2.55,2.18,4.8,3.47.94.53,2.24,1.28,4,1.87,2.64.88,6.23,2.08,9.07.27,2-1.28,2.68-3.45,2.93-4.27.9-2.89.04-5.35-.27-6.13-15.73-28.36-31.47-56.71-47.2-85.07,2.06.99,4.19,1.97,6.4,2.93,1.72.75,3.41,1.46,5.07,2.13,16.89,29.87,33.78,59.73,50.67,89.6.35.36,1.42,1.57,1.6,3.47.22,2.33-1.07,3.95-1.33,4.27-10.4.27-20.8.53-31.2.8-1.94-.22-4.86-.79-8-2.4-4.46-2.28-6.92-5.4-9.33-8.53-2.29-2.97-6.28-8.94-5.07-10.13Z"/><path class="cls-1" d="M91.54,16.25c.67-1.03,1.86-2.61,3.47-2.67,1.32-.04,2.44.95,3.2,1.87,6.84,11.29,13.69,22.58,20.53,33.87-2.75-1.15-5.51-2.31-8.27-3.47-1.69-.71-3.38-1.42-5.07-2.13l-10.4-15.47c-6.13,10.76-12.27,21.51-18.4,32.27-1.88,1.41-3.92,2.84-6.13,4.27-3.26,2.09-6.4,3.85-9.33,5.33,16.1-29.1,28.06-50.28,30.4-53.87Z"/><path class="cls-1" d="M15.22,94.53c-.08-.2.17-.5.5-.8.04-.03,1.19-1.11,1.23-1.15.03-.03,1.09-1.02,1.13-1.05.22-.15.52-.32.9-.45.24-.08.46-.13.65-.17,22.4,0,44.8,0,67.2,0,.32,0,.51.06.55.17.08.19-.28.56-1.05,1.09-.03.03-.94.79-.97.82-.12.1-1.8,1.51-1.92,1.62-.06.1-.27.42-.69.58-.49.19-.93.03-1.02-.01-38.13-.39-63.64-.59-65.19-.44-.15.01-1.16.14-1.3-.2Z"/></svg>