<?xml version="1.0" encoding="UTF-8"?><svg xmlns="http://www.w3.org/2000/svg" width="1920" height="1080" xmlns:xlink="http://www.w3.org/1999/xlink" viewBox="0 0 1920 1080"><defs><style>.cls-1,.cls-2,.cls-3{stroke-width:.58px;}.cls-1,.cls-2,.cls-3,.cls-4,.cls-5,.cls-6,.cls-7,.cls-8,.cls-9,.cls-10,.cls-11,.cls-12,.cls-13,.cls-14,.cls-15,.cls-16,.cls-17,.cls-18,.cls-19,.cls-20,.cls-21,.cls-22,.cls-23,.cls-24,.cls-25,.cls-26{stroke-miterlimit:10;}.cls-1,.cls-2,.cls-3,.cls-4,.cls-5,.cls-6,.cls-7,.cls-8,.cls-9,.cls-10,.cls-11,.cls-12,.cls-15,.cls-16,.cls-17,.cls-19,.cls-20,.cls-21,.cls-22,.cls-24,.cls-25,.cls-26{stroke:#000;}.cls-1,.cls-8{fill:#ffb814;}.cls-2,.cls-6{fill:#fff947;}.cls-3,.cls-5,.cls-7,.cls-9,.cls-11,.cls-25,.cls-27{fill:#fff;}.cls-4{fill:#25ff2f;}.cls-4,.cls-9,.cls-10{stroke-width:.57px;}.cls-5,.cls-24{stroke-width:.57px;}.cls-6,.cls-7,.cls-8{stroke-width:.58px;}.cls-10,.cls-13,.cls-14{fill:#00c80e;}.cls-11{stroke-width:.58px;}.cls-28{fill:url(#linear-gradient);}.cls-28,.cls-29,.cls-30,.cls-31,.cls-32,.cls-33,.cls-34,.cls-35,.cls-36,.cls-37,.cls-38,.cls-39,.cls-27,.cls-40,.cls-41{stroke-width:0px;}.cls-12{stroke-width:.44px;}.cls-12,.cls-20,.cls-21,.cls-23,.cls-24{fill:none;}.cls-13{stroke-width:.61px;}.cls-13,.cls-14{stroke:#00a32a;}.cls-14{stroke-width:.51px;}.cls-15{fill:#6f1e00;}.cls-15,.cls-26{stroke-width:.52px;}.cls-16{fill:#ffb63f;}.cls-16,.cls-17,.cls-20{stroke-width:1.05px;}.cls-17{fill:#ffc95a;}.cls-18{fill:#00b7b5;stroke:#00b3ac;stroke-width:1.61px;}.cls-19{fill:#ff2121;stroke-width:1.35px;}.cls-21{stroke-width:1.57px;}.cls-29{fill:#0a0036;opacity:.5;}.cls-22{fill:#00ff19;stroke-width:.82px;}.cls-23{stroke:#fff;}.cls-25{stroke-width:2.1px;}.cls-30{fill:url(#linear-gradient-2);}.cls-32{fill:#46d2d9;}.cls-33{fill:#4cced6;}.cls-34{fill:#48cfd6;}.cls-35{fill:#99eaee;}.cls-36{fill:#100069;}.cls-37{fill:#070053;}.cls-38{fill:#d8eff1;}.cls-39{fill:#009ba7;}.cls-40{fill:#fff4f4;}.cls-41{fill:#000062;}</style><linearGradient id="linear-gradient" x1="1868.85" y1="-292.52" x2="2217.21" y2="-292.52" gradientTransform="translate(-1082.61 466.54)" gradientUnits="userSpaceOnUse"><stop offset="0" stop-color="#e8c3c6"/><stop offset="1" stop-color="#b1d8e5"/></linearGradient><linearGradient id="linear-gradient-2" x1="1600.36" y1="1021.29" x2="1600.36" y2="683.83" gradientTransform="translate(1.4 1729.62) scale(1 -.95)" gradientUnits="userSpaceOnUse"><stop offset="0" stop-color="#99eaee"/><stop offset=".48" stop-color="#99eaee" stop-opacity=".8"/><stop offset=".69" stop-color="#99eaee" stop-opacity=".79"/><stop offset=".77" stop-color="#99eaee" stop-opacity=".76"/><stop offset=".82" stop-color="#99eaee" stop-opacity=".71"/><stop offset=".87" stop-color="#99eaee" stop-opacity=".64"/><stop offset=".91" stop-color="#99eaee" stop-opacity=".54"/><stop offset=".95" stop-color="#99eaee" stop-opacity=".43"/><stop offset=".98" stop-color="#99eaee" stop-opacity=".29"/><stop offset="1" stop-color="#99eaee" stop-opacity=".2"/></linearGradient></defs><g id="Layer_1"><rect class="cls-35" x=".42" y="335.85" width="1920" height="744"/><rect class="cls-28" x="786.24" y="-785.97" width="348.36" height="1920" transform="translate(786.4 1134.45) rotate(-90)"/><path class="cls-23" d="m1263.5,392.08c42.45-2.06,84.96-2.87,127.46-2.41"/><path class="cls-23" d="m1764.48,443.55c35.44-1.88,70.97-1.98,106.42-.29"/><path class="cls-23" d="m1529.37,901.97c48.26-1.65,96.51-3.3,144.77-4.95"/><path class="cls-23" d="m1588.77,532.51c87.36-4.87,174.83-7.73,262.33-8.58"/><path class="cls-23" d="m1590.01,494.23c22.27-.82,44.55-1.65,66.82-2.47"/><path class="cls-23" d="m1435.32,621.37c28.88-1.98,57.76-3.96,86.63-5.94"/><path class="cls-23" d="m1457.61,390.3h38.36"/><path class="cls-23" d="m1629.6,591.99c47.41,1.72,94.89,1.72,142.3,0"/><path class="cls-23" d="m1562.78,684.56c100.22-1.82,200.45-3.63,300.67-5.45"/><path class="cls-23" d="m1457.61,896.3c96.13-.47,192.28,1.69,288.3,6.46"/><path class="cls-23" d="m1133.42,1028.56c44.55.41,89.09.82,133.64,1.24"/><path class="cls-23" d="m545.67,980.8l301.92.43"/><path class="cls-23" d="m101.46,1037.23c54.03,1.65,108.06,3.29,162.1,4.94"/><path class="cls-23" d="m155.88,925.05l313.07-5.04"/><path class="cls-23" d="m39.59,807.51l123.74-1.24"/><path class="cls-23" d="m381.09,807.14c56.46-2.68,113.01-3.41,169.52-2.19"/><path class="cls-23" d="m145.99,712.51l381.11-6.36"/><path class="cls-23" d="m532.06,613.07c31.35-.41,62.69-.82,94.04-1.24"/><path class="cls-23" d="m47.01,619.33l98.99-1.24"/><path class="cls-23" d="m54.44,493.46c64.34-.8,128.69-1.6,193.03-2.4"/><path class="cls-23" d="m248.7,441.05c84.14-2.81,168.41-1.59,252.42,3.66"/><path class="cls-23" d="m110.12,385.23c34.65.82,69.29,1.65,103.94,2.47"/><path class="cls-23" d="m501.13,382.87h149.72"/><path class="cls-23" d="m559.28,466.78c44.13.32,88.27.63,132.4.95"/><path class="cls-33" d="m1461.73,442.91s-4.74-5.18,5.27-14.5c10.01-9.32,60.65-14.41,83.24-16.05,22.59-1.65,29.8-3.55,39.48-9.72s14.83-8.93,38.64-8.65c23.8.29,100.09,6.61,123.13,6.89,23.03.28,41.82-1.19,46.24,5.25,4.42,6.44-10.81,21.43-10.81,21.43,0,0-53.74,5.94-78.4,7.42-24.18,1.45-41.61,11.91-41.61,11.91l-205.19-3.98Z"/><path class="cls-38" d="m1462.15,433.79s-4.79-5.13,5.13-14.55c9.92-9.42,60.5-15.02,83.08-16.89,22.58-1.88,29.77-3.85,39.38-10.11,9.62-6.26,14.74-9.08,38.55-9.04s100.16,5.6,123.19,5.65c23.04.04,41.81-1.61,46.29,4.78,4.49,6.39-10.59,21.54-10.59,21.54,0,0-53.68,6.48-78.32,8.21s-41.49,12.32-41.49,12.32l-205.22-1.91Z"/><path class="cls-34" d="m116.77,547.34s-7.28-14.77,82.9-21.02c73.84-5.12,90.99-1.83,90.99-1.83l17.93-9.34,181.83-1.09s42.42,8.78,41.45,21.6-29.94,26.78-29.94,26.78l-2.84,34.78s-.8,12.28-33.93,12.28c-95.05,0-178.28,8.78-210.61-4.36s-18.71-17.49-37.95-29.78-59.11-13.84-59.11-13.84c0,0,.09,1-21.46,1s-19.27-15.18-19.27-15.18Z"/><path class="cls-38" d="m116.77,532.46s-7.28-14.77,82.9-21.02c73.84-5.12,90.99-1.83,90.99-1.83l17.93-9.34,181.83-1.09s42.42,8.78,41.45,21.6-29.94,26.78-29.94,26.78l-2.84,34.78s-.8,12.28-33.93,12.28c-95.05,0-178.28,8.78-210.61-4.36s-18.71-17.49-37.95-29.78-59.11-13.84-59.11-13.84c0,0,.09,1-21.46,1s-19.27-15.18-19.27-15.18Z"/><path class="cls-32" d="m669.52,899.95c-22.67-94.72-10.06-228.75,11.31-322.66,0,0,34.31-102.79,34.31-102.79l31.15,28.7c6.59-36.1,27.06-106.79,47.64-137.41,0,0,25.13,18.38,25.13,18.38,33.1-79.06,116.02-231.33,178.09-277.66,10.12,8.47,51.52,88.58,70.35,74.44,0,0,65.6,131.63,65.6,131.63,38.62-60.59,28.08-37.93,59,9.2,8.03,31.51,32.7,93.48,47.05,122.89,0,0,35.76-21.99,35.76-21.99,55.34,75.63,76.05,399.5,87.6,491.24,0,0-276.57,18.84-276.57,18.84-3.34-39.28-225.68-8.4-246.96-12.76-1.54-27.43-154.24-16.09-169.46-20.05Z"/><path class="cls-27" d="m745.02,647.01c-9.64,52.93-36.2,103.23-34.89,157"/><path class="cls-27" d="m738.67,608.19c2.06-46.3,15.28-90.95,29.15-134.93"/><path class="cls-27" d="m828.6,604.02c18.22-69.82,80.96-163.67,66.07-223.01"/><path class="cls-27" d="m898.45,381.88c-4.28-73.74,61.55-157.1,81.98-232.69"/><path class="cls-27" d="m953.82,504.03c2.29-53.23,13.35-106.08,32.61-155.82"/><path class="cls-27" d="m1008.69,146.28c9.79,56.26,52.77,98.65,59.96,155.93-38.26-1.3-8.89,26.3,6.48,40.03,24.13,21.04,42.99,48.04,61.92,72.81-3.07-1.05-70.01-95.45-73.16-98.55"/><path class="cls-27" d="m1134.24,319.68c27.22,47.14,40.44,105.73,51.3,153.45"/><path class="cls-27" d="m1077.65,836.28c6.69-64.82,37.34-131.04,37.12-195.86,11.79-13.97,27.74-24.31,38.42-39.45-39.49,21.36-22.06,14.6-41.38,49.82"/><path class="cls-27" d="m1149.28,606.85c29.01-32.4,4.17-54.86,24.65-79.29,21.26-21.34,54-65.14,54.97-67.55"/><path class="cls-27" d="m1246.63,519.62c-9.81,32.08-.87,88.44,35.06,98.48,14.72,21.48,9.12,54.56,29.62,70.77"/><path class="cls-27" d="m1012.29,674.47c-28.07,5.48-56.14,10.95-84.21,16.43l-59.25-12.91c19.41,6.38,38.83,12.75,58.24,19.13"/><path class="cls-18" d="m640.15,191.92c1.54,1.83,2.78,3.56,3.73,5.17,9.38,15.14,15.55,35.99.69,49.89-6.45,6.03-13.88,9.98-22.58,11.65.99.95,1.48,1.42,2.47,2.37,5.18,5.12,9.2,8.2,12,9.16,3.95,1.36,6.17,2.23,6.56,2.61,1.55,1.52,2.4,3.37,2.56,5.55.16,2.18-.39,3.93-1.68,5.28-2.89,3.04-6.09,3.95-9.67,2.7-2.09-.77-5.32-2.96-9.69-6.55-2.85-2.35-6.05-5.13-9.58-8.36-1.36-1.25-3.26-3.28-5.68-6.11-2.42-2.83-4.34-4.91-5.78-6.23-3.27-3-4.9-4.5-8.16-7.49-2.47-2.13-5.88-5.53-10.19-10.23-4.31-4.7-7.58-8.09-9.82-10.15-4.31-3.98-6.47-5.97-10.78-9.95-.16-.15-2.65-1.77-7.51-4.84.06-3.93,1.01-6.85,2.8-8.75,2.1-2.22,4.55-3.25,7.32-3.07,2.77.18,5.24,1.34,7.42,3.47.55.53,1.09,1.06,1.63,1.59-1.68-11.04,2.45-22.17,10.12-29.81,6.02-6,17.91-9.97,26.34-8.16,8.19,1.76,17.93,8.49,23.1,15,.46.58,1.22,1.46,2.2,2.62.98,1.17,1.71,2.04,2.2,2.62Zm-12.45,7.3c-4.96-5.62-10.04-9.74-15.26-12.16-7.06-3.28-13.22-2.62-18.02,1.93-7.08,6.7-7.09,17.5-4.88,26.14,2.09,8.17,7.42,18.45,13.75,24.4,9.46,8.9,21.4,10.41,31.07.99,5.28-5.14,6.94-11.37,4.81-18.97-1.13-4.25-4.44-10.83-9.88-19.81-1.13-1.75-1.66-2.59-1.59-2.51Z"/><path class="cls-18" d="m664.85,178.2c1.18,1.56,2.53,4.02,4.07,7.35,1.53,3.34,2.91,5.78,4.1,7.34,6.8,8.89,13.6,17.78,20.4,26.67,1.26,1.64,3.68,3.89,7.24,6.77.42,2.83-.01,4.73-1.31,5.74-4.54,3.53-9.2,2.86-13.86-2.12-6.49-6.93-13.1-14.02-19.13-21.43-6.77-8.33-12.14-15.62-16.06-21.81-.34-.42-.68-.84-1.02-1.27-1.23-1.52-.73-3.19,1.52-4.98,2-1.59,4.44-2.7,7.03-3.45,3.25-.94,5.65-.64,7.03,1.18Zm-12.65-19.05c1.44,1.91,1.99,3.95,1.66,6.11-.33,2.17-1.4,3.95-3.21,5.36-2.15,1.67-4.74,2.48-7.81,2.43-3.07-.05-5.5-1.15-7.28-3.35-1.5-1.86-2.09-3.9-1.74-6.14.35-2.23,1.51-4.13,3.46-5.67,2.29-1.8,4.93-2.64,7.87-2.49,2.94.14,5.29,1.4,7.05,3.75Z"/><path class="cls-18" d="m748.18,196.12c.13,2.83-.62,4.75-2.28,5.76-1.29.79-3.96,1.15-8.07,1.18-.42-.66-.63-.99-1.04-1.65-1.28-2.02-3.12-5.03-5.54-9.03-2.42-4-4.22-6.93-5.36-8.76-4.31-6.92-17.45-28.61-26.61-24.36-1.39.64-2.36,3.38-2.55,7.17-.6,12.11,3.75,23.86,10.64,33.62,1.06,1.5,2.88,3.59,5.45,6.24,2.57,2.65,4.37,4.74,5.42,6.26.87,1.25,1.09,2.61.7,4.08-.4,1.47-1.14,2.59-2.24,3.37-4.39,3.12-8.99,1.41-13.88-5.25-6.72-9.16-13.43-18.31-20.15-27.47-.51-.7-1.19-1.79-2.03-3.26-.84-1.47-1.51-2.56-2.02-3.27-.77-1.05-2.03-2.48-3.8-4.29-1.76-1.81-3-3.19-3.71-4.15-1.03-1.4-1.26-3.3-.65-5.69.61-2.39,1.54-4.04,2.8-4.94,1.84-1.31,4.51-1.54,7.99-.65,1.34,2.25,2.01,3.37,3.35,5.61-.61-7.39,1.44-12.7,6.04-15.74,2.98-1.97,6.86-2.94,11.58-2.85s8.69,1.09,11.92,2.94c9.63,6.04,15.78,15.63,21.94,24.83,4.85,8.12,7.27,12.18,12.12,20.3Z"/><path class="cls-18" d="m777.18,127.54c.95,2.55,2.4,7.18,4.31,13.81,1.67,5.8,3.26,10.35,4.77,13.6,1.38,2.96,3.56,7.33,6.55,13.14,2.99,5.8,5.16,10.19,6.53,13.15,2.83,6.11,4.44,10.91,4.94,14.24.63,4.2.12,8.19-1.64,11.88-1.77,3.69-4.14,6.3-7.19,7.85-3.2,1.63-7.76,2.49-13.68,2.81-7.07.38-11.62-.83-13.46-4.03-2.38-4.15-2.05-7.1,1.01-8.82,1.42-.79,2.68-.81,3.78-.05,2.02,1.37,3.29,2.16,3.83,2.36.54.2,1.99,0,4.35-.59,2.36-.58,3.95-1.07,4.77-1.5,6.7-3.49,7.39-10.62,1.97-21.64-1.58-3.22-3.04-5.89-4.38-8.02-1.64,5.29-4.74,9.1-9.39,11.55-1.94,1.02-4.46,1.51-7.59,1.48-3.13-.03-5.83-.57-8.08-1.67-4.33-2.05-8.43-6.46-12.28-13.09-5.28-9.09-7.89-19.15-10.17-29.28-2.04-9.1-2.17-21.23,5.69-26.21,3.27-2.08,8.8-2.06,13.61.24,4.15,1.98,8.49,4.75,12.63,7.11,1.17.65,2.69,1.01,4.55,1.11,2.3.12,3.83.33,4.58.58Zm-8.9,15.04c-.72-1.46-2.78-2.17-3.6-2.77-4.8-3.56-10.01-11.8-15.08-9.18-2.89,1.49-2.99,7.3-.05,17.15,2.24,7.51,4.81,13.76,7.5,18.74,5.06,9.37,9.6,12.96,13.64,10.84,3.81-1.99,4.87-7.31,3.42-16.02-1.12-6.71-3.01-13-5.83-18.76Z"/><path class="cls-18" d="m837.74,121.22c2.83,9.14,3.79,17.89,2.28,25.73-1.72,8.98-5.98,14.71-12.92,17.39-7.11,2.74-13.66,1.87-19.87-2.49-5.54-3.88-10.4-10.47-14.45-19.32-3.67-8.02-5.75-19.2-5.12-27.98.81-11.26,4.96-18.87,12.7-21.84,2.42-.93,5.91-.91,10.4.11,13.59,3.56,23,15.51,26.99,28.41Zm-11.69,3.68c-2.87-8.65-9.3-21.92-18.55-19.74-4.37,1.03-7.19,6.59-6.92,14.09.21,5.64,1.65,11.59,4.21,17.82,5.49,13.37,11.47,18.69,18.01,16.17,4.22-1.63,6.33-5.59,6.39-11.97.05-4.87-1.17-10.43-3.14-16.37Z"/><path class="cls-18" d="m824.26,55.5c-.76-2.38-.41-4.83,1.06-7.34,1.48-2.51,3.6-4.18,6.33-5,2.94-.87,5.88-.25,8.77,1.86,2.89,2.12,4.89,5.23,6.03,9.31,1.23,4.4,1.84,8.12,1.86,11.16.02,3.04-.61,6.16-1.73,9.3-1.15,3.23-2.59,6.21-4.36,8.84-1.78,2.64-3.68,4.4-5.45,4.83-1.44.34-2.87-.03-3.92-.9-1.05-.86-1.46-2.66-.73-3.96.91-1.61,2.86-3.7,4.02-5.87,1.15-2.17,1.69-4.72,1.72-7.51.02-1.58-.26-3.24-.93-4.91-.66-1.67-2-2.83-4.02-3.47-2.02-.63-3.8-1.33-5.34-2.1-1.54-.77-2.65-2.18-3.31-4.26Z"/><path class="cls-18" d="m910.49,118.55c.95,5.02.03,9.74-2.65,14.12-2.93,4.79-7.63,7.75-13.69,9.27-2.63.66-5.71.72-9.19.02-11.27-2.23-17.5-4.52-18.33-7.44-1.3-4.6.77-7.69,6.25-9.14.78-.21,1.62-.37,2.52-.49,1.08,3.09,3.84,5.05,8.16,6.01,3.76.84,7.15.76,10.16-.22,2.41-.79,3.45-2.16,3.01-4.17-.07-.32-.24-.78-.51-1.39-.27-.61-.45-1.1-.53-1.47-.08-.37-1.94-.87-5.53-1.35-4.04-.54-6.37-.79-6.86-.9-10.08-3.84-19.06-11.23-22.02-21.93-1.68-6.07-1.72-12.13.05-18.08,1.96-6.58,5.72-10.58,11.02-11.85,3.96-.95,8.89-.29,14.66,2.03,5.77,2.32,9.62,5.42,11.49,9.12,1.31,2.6,2.12,4.85,2.48,6.66.38,1.92.45,3.57.25,4.93-.25,1.7-.47,3.42-.7,5.12-1.46,1.73-3.05,2.78-4.78,3.14-.91.19-2.58-.15-5.01-1.01-2.43-.86-3.77-1.75-3.99-2.71-.1-.42.14-1.93.73-4.5.34-1.52.41-2.76.2-3.72-1.4-6.37-4.34-9.08-8.78-8.04-2.65.61-4.27,3.04-4.7,7.15-.33,3.17-.02,6.5.81,9.87,1.05,4.22,4.8,7.76,10.51,9.55,4.9,1.54,10.51,2.82,15.74,4.42,5.64,1.73,8.69,4.12,9.23,7Z"/><path class="cls-18" d="m1109.76,37.54c-.32,1.82-1.42,3.17-3.28,4.07-1.87.9-3.65,1.21-5.36.94-1.31-.21-2.62-1.07-3.94-2.59.23-2.16.03-3.6-.6-4.29-.62-.7-2.06-1.22-4.31-1.54-4.4-.63-8.46,4.79-11.72,16.05-1.87,6.45-3.32,14.09-4.49,22.74.48.06,1.05.13,1.72.21.86.11,1.48.19,1.86.24,4.01.52,6.63,2.71,7.81,6.5-.87,2.38-1.3,3.57-2.16,5.95-1.93.82-5.08.92-9.46.37-.75-.09-1.36-.11-1.84-.06-.72,3.52-1.33,7.39-1.85,11.6-.72,5.89-1.08,8.83-1.8,14.72-.7,5.72-.71,11.68-.1,17.89-3.64,1.95-6.2,2.87-7.73,2.69-2.05-.23-3.41-2.46-4.25-6.52-.67-3.21-.95-6.44-.62-9.56,1.08-10.32,2.39-20.73,3.64-31.09-3.11.02-4.57.06-4.38.07-1.59-.14-2.93-.86-4.05-2.15-1.12-1.29-1.6-2.91-1.45-4.85.27-3.35,1.68-5.41,4.25-6.17,1.37-.32,3.88-.31,7.51.05.4-1.05.96-4.4,1.43-9.82.79-9.14,3.6-20.29,8-28.42,4.52-8.36,12.98-14.96,22.99-13.47,4.68.7,8.51,2.37,11.06,5,2.9,3,3.92,6.94,3.13,11.44Z"/><path class="cls-18" d="m1114.91,73.61c-.37,1.92-1.29,4.57-2.72,7.94-1.43,3.38-2.32,6.03-2.68,7.95-2.09,11-4.18,21.99-6.27,32.99-.39,2.03-.47,5.33-.29,9.9-1.77,2.21-3.41,3.17-4.96,2.89-5.41-.99-7.85-4.89-7.22-11.68.88-9.46,1.8-19.1,3.31-28.53,1.7-10.6,3.55-19.46,5.51-26.51.09-.53.18-1.07.27-1.61.32-1.93,1.83-2.68,4.52-2.22,2.4.41,4.73,1.47,6.91,2.89,2.72,1.77,4.03,3.75,3.6,5.99Zm5.69-22.14c-.46,2.35-1.58,4.12-3.35,5.33-1.77,1.21-3.72,1.62-5.88,1.22-2.56-.46-4.77-1.84-6.66-4.15-1.9-2.3-2.64-4.84-2.18-7.63.39-2.36,1.48-4.16,3.3-5.4,1.82-1.24,3.9-1.66,6.24-1.24,2.74.48,5,1.87,6.76,4.14,1.76,2.27,2.34,4.85,1.77,7.73Z"/><path class="cls-18" d="m1153.23,130.45c-1.44,4.9-4.41,8.69-8.81,11.38-4.8,2.94-10.35,3.45-16.45,2.06-2.64-.6-5.43-1.94-8.2-4.13-9.03-7.08-13.51-11.93-12.92-14.91.93-4.69,4.17-6.51,9.7-5.33.79.17,1.61.4,2.47.7-.44,3.24,1.13,6.23,4.53,9.04,2.96,2.45,6.03,3.91,9.16,4.4,2.51.39,4.06-.36,4.58-2.36.08-.32.14-.81.18-1.47.04-.66.1-1.18.2-1.55.1-.37-1.34-1.65-4.32-3.7-3.36-2.31-5.32-3.58-5.71-3.9-7.23-7.98-11.86-18.63-9.63-29.49,1.26-6.17,3.98-11.59,8.25-16.09,4.73-4.98,9.89-6.85,15.2-5.58,3.96.94,8.06,3.76,12.16,8.44,4.1,4.68,6.13,9.18,6.12,13.33,0,2.91-.31,5.28-.81,7.06-.54,1.88-1.23,3.38-2.03,4.51-.99,1.4-1.98,2.83-2.96,4.25-2.1.88-3.99,1.09-5.7.63-.9-.24-2.23-1.3-4.01-3.17-1.78-1.87-2.57-3.27-2.33-4.22.11-.42,1-1.65,2.7-3.68.99-1.2,1.62-2.28,1.87-3.22,1.64-6.31.25-10.05-4.18-11.14-2.64-.65-5.19.78-7.44,4.25-1.74,2.68-2.97,5.78-3.76,9.17-.98,4.23.75,9.09,5.03,13.27,3.67,3.59,8.09,7.27,12.05,11.07,4.26,4.09,5.9,7.61,5.08,10.42Z"/><path class="cls-18" d="m1201.13,170.28c-4.22,1.52-7.18,1.96-8.93,1.25-2.31-.93-4.4-5.32-6.6-13.08-1.55-5.46-3.18-10.98-4.82-16.53-.91-3.32-2.56-8.11-5.11-14.35-.2.07-.3.11-.49.18-1.82,5.44-2.74,8.16-4.56,13.6-.28.83-.41,2.13-.4,3.91,0,1.78-.15,3.13-.47,4.06-.49,1.44-1.52,2.5-3.08,3.18-1.56.68-2.95.82-4.19.42-2.15-.7-3.64-2.14-4.5-4.34-.86-2.2-.89-4.65-.05-7.36,2.54-8.22,3.81-12.33,6.36-20.56.39-1.25,1.1-3.1,2.16-5.56,1.06-2.46,1.78-4.31,2.17-5.56,4.34-13.96,8.68-27.92,13.02-41.87,1.97-6.33,3.13-11.55,3.5-15.64.17-1.87.41-3.29.69-4.22.61-1.97,2.37-3.36,5.13-4.21,2.45-.76,4.75-.89,6.78-.24,1.52.49,2.98,1.63,4.34,3.4,1.37,1.77,1.8,3.39,1.31,4.83-.14.41-.95,1.74-2.42,4s-3.05,5.99-4.8,11.11c-4.66,13.68-9.54,27.41-14.31,41.11.5-.29,7.09-3.83,20.19-10.03,10.93-5.18,17.38-7.36,18.79-6.8,4.98,1.97,6.01,6.24,3.13,12.69-.25.6-.37.9-.62,1.51-4.98.89-11.7,2.88-19.91,5.99-10.29,3.9-15.75,7.15-16.54,9.4-.07.21,1.24,4.29,3.6,12.22,2.24,7.52,3.49,12.23,4.04,14.07,2.57,8.34,5.37,14.53,8.62,18.61-.81,1.92-1.22,2.88-2.03,4.81Z"/><path class="cls-18" d="m1245.54,169.72c-2.5,4.83-7.18,7.14-13.91,7.2-5.26.05-10.19-1.06-14.77-3.09-13.81-6.11-12.78-22.79-7.63-34.44,3.09-6.98,7.79-14.67,14.64-22.15,8.41-9.19,15.59-12.47,21.15-9.94,5.01,2.28,9.29,7.25,12.57,14.81,3.28,7.56,3.46,13.92.82,19.04-3.28,6.38-8.43,10.12-15.2,11.5-6.01,1.23-11.97.51-17.99-2.23-1.17-.53-2.67-2.22-4.54-5.07-3.83,9.6-3.63,15.31.61,17.26,3.59,1.64,7.66,2.07,12.32,1.31,4.65-.76,7.5-.84,8.48-.35,3.51,1.77,4.65,3.85,3.45,6.16Zm.14-34.39c1.18-2.45,1.68-5.08,1.46-7.89-.22-2.81-1.4-4.73-3.53-5.72-2.93-1.36-5.9-.96-8.74,1.2-2.44,1.85-4.4,4.52-5.9,7.9-.84,1.89-.96,3.68-.38,5.37.58,1.69,1.73,2.92,3.44,3.71,6.24,2.87,10.77,1.41,13.65-4.56Z"/><path class="cls-18" d="m1296.5,142.89c-5.28,4.57-8.79,8.44-10.6,11.53-5.31,9.07-10.47,18.24-15.62,27.41-5.18,9.22-10.39,18.42-15.75,27.53-4.02,6.83-8.91,11.9-14.49,15.33-6.19,3.81-11.66,4.42-16.62,1.75-2.62-1.41-5.51-5.19-8.98-11.09-3.77-6.41-5.21-11.13-3.76-14.17,1.68-3.53,4.08-4.57,7.17-3.06.83.41,1.58,1.08,2.24,2.01.74,6.43,3.55,11.56,7.51,13.02,8.7,3.19,17.11-8.71,21.33-16.78,10.56-20.19,22.01-40.74,32.97-61.14,1.44-.62,2.16-.92,3.6-1.53,3.45.82,5.74,1.58,6.87,2.23,2,1.16,3.39,3.49,4.12,6.96Zm8.07-12.65c-1.22,2.05-3.05,3.27-5.47,3.67-2.42.4-4.58.05-6.51-1.06-.96-.56-1.94-2.24-2.9-5.03-.8-2.3-1.32-4.29-1.58-5.93.35-1.05.81-2.1,1.39-3.14,2.53-4.57,6.07-5.6,10.6-3.02,2.53,1.45,4.3,3.61,5.28,6.46.98,2.85.7,5.53-.81,8.05Z"/><path class="cls-18" d="m1325.4,204.23c-5.91,7.8-11.89,16.03-18.65,23.1-2.32,2.43-4.87,2.66-7.53.72-4.02-2.94-4.09-6.69-.13-11.35-5.19-.49-9.75-2.05-13.75-4.73-3.86-2.58-6.78-6.16-8.84-10.8-2.46-5.53-2.41-10.51.3-14.97,2.66-4.36,7.67-6.95,15.16-7.47,6.77-.47,12.27.74,16.33,3.48,4.06,2.74,6.07,4.14,10.08,6.98.9-1.27,1.34-1.9,2.24-3.17,6.62-9.19,7.37-15.63,2.18-19.18-6.51-4.46-11.99-3.23-16.34,3.43-1.47,2.25-3.34,2.63-5.61,1.17-1.38-.89-2.37-2.52-2.99-4.9-.62-2.38-.46-4.36.52-5.93,3.21-5.17,7.53-8.39,13.02-9.52,5.49-1.14,10.69-.03,15.41,3.09,19.17,12.68,9.71,35.37-1.4,50.02Zm-15.03-3.71c1.25-1.77.73-3.49-1.59-5.11-9.67-6.75-16.38-7.16-19.87-1.77-1.89,2.92-.72,5.73,3.46,8.53,2.58,1.73,5.64,2.46,9.02,2.41,3.95-.06,7.03-1.3,8.98-4.06Z"/><path class="cls-18" d="m1385.85,228.25c-2.01,1.84-5.78,4.89-11.25,9.11-4.78,3.69-8.41,6.86-10.86,9.48-2.22,2.38-5.45,6.06-9.7,11.01-4.25,4.96-7.49,8.62-9.72,11-4.6,4.92-8.46,8.19-11.4,9.87-3.69,2.12-7.66,3.08-11.84,2.73-4.18-.35-7.59-1.66-10.27-3.98-2.81-2.44-5.44-6.44-8.08-11.9-3.15-6.52-3.8-11.24-1.53-14.15,2.94-3.77,5.82-4.56,8.63-2.32,1.3,1.04,1.82,2.22,1.54,3.54-.48,2.41-.72,3.9-.69,4.48.03.58.79,1.88,2.28,3.89,1.48,2.01,2.58,3.34,3.31,3.96,5.95,5.06,12.93,3.14,21.1-6.02,2.39-2.68,4.31-5.04,5.77-7.09-5.63.36-10.45-1.19-14.61-4.7-1.73-1.46-3.19-3.67-4.4-6.63-1.21-2.96-1.77-5.7-1.62-8.23.21-4.83,2.72-10.31,7.4-16.38,6.42-8.34,14.79-14.51,23.35-20.39,7.02-4.82,19.15-10.45,26.8-4.27,3.32,2.68,5.46,7.58,5.24,13.02-.19,4.65-1.03,9.81-1.58,14.63-.14,1.35.14,2.94.81,4.75.82,2.24,1.25,3.78,1.32,4.6Zm-17.76-3.07c1.09-1.22.91-3.44,1.15-4.43,1.41-5.73,7.05-13.82,2.57-17.67-2.55-2.19-8.04-.15-16.09,6.24-6.14,4.87-10.98,9.61-14.57,13.97-6.77,8.22-8.33,13.82-4.73,16.87,3.39,2.88,8.8,1.94,16.4-2.61,5.85-3.51,11-7.59,15.27-12.37Z"/><path class="cls-18" d="m1421.73,250.61c-2.17,1.98-6.55.17-13.26-5.12-1.87,1.51-5.86,5.19-11.98,11.05-3.11,2.98-4.66,4.46-7.77,7.44-1.57,1.5-3.68,3.93-6.35,7.28-2.67,3.34-4.76,5.72-6.25,7.14-1.26,1.2-2.9,1.71-4.92,1.57-2.02-.14-3.54-.74-4.58-1.81-1.62-1.67-1.33-4.69.84-9.12,1.67-3.4,3.68-6.31,6.05-8.7,8.12-8.17,16.23-16.34,24.35-24.52-2.8-3.86-4.42-6.09-4.78-6.75-1.31-2.48-1.42-4.3-.29-5.48.3-.31.71-.6,1.23-.85,4.71-1.06,8.29-.4,10.68,1.95.15.15.37.37.67.66.22.37.4.63.55.78,1.56,1.55,4.18.41,7.87-3.43,3.37-3.36,5.05-5.05,8.41-8.41.46-1.23,1-2.15,1.61-2.77,1-1,2.49-1.31,4.49-.92,1.99.39,3.53,1.14,4.6,2.24,1.6,1.64,2.36,3.96,2.26,6.92-.1,2.96-1.04,5.26-2.77,6.9-1.89,1.79-4.05,3.27-6.45,4.44-2.41,1.18-4.55,2.75-6.44,4.7-.19.18-.28.27-.47.45,5.06,6.57,5.89,11.42,2.69,14.35Z"/><path class="cls-27" d="m588.19,189.21c3.71-7.21,11.3-11.57,19.39-11.49s15.66,4.39,19.99,11.1c.25.39,2.66-1.37,2.3-1.93-3.82-5.92-10.23-9.97-17.2-10.96s-13.85,1.4-19.28,5.71c-3.07,2.43-5.64,5.44-7.44,8.93-.3.58.59.16.76.06.56-.32,1.18-.84,1.48-1.43h0Z"/><path class="cls-27" d="m652.69,166.09c-2.61-4.4-8.23-6.48-13.11-5.02-.64.19-1.23.72-1.66,1.21-.15.17-.69.94-.07.76,4.7-1.4,10.05.8,12.54,4.99.22.37,2.65-1.34,2.3-1.93h0Z"/><path class="cls-27" d="m563.8,215.18c-.03-1.09.22-2.2.9-3.07s1.91-1.15,2.97-1.25c2.56-.24,5.1.8,7.16,2.26s3.59,3.15,5.21,4.91c1.91,2.07,3.83,4.15,5.74,6.22.41.44,2.66-1.53,2.3-1.93-2.38-2.58-4.72-5.19-7.14-7.72-2.15-2.25-4.54-4.36-7.56-5.31-2.78-.87-5.63-.48-8,1.2-2.09,1.48-3.99,3.69-3.92,6.39.01.47.99-.22,1.11-.31.34-.24,1.25-.88,1.24-1.4h0Z"/><path class="cls-27" d="m655.93,186.32c.17-.67.5-1.58,1-2.01.62-.54,1.7-.67,2.48-.66,2.03.03,3.76,1.09,4.86,2.76s1.84,3.57,3.1,5.19,2.82,3.13,4.34,4.58c.46.44,2.65-1.59,2.3-1.93-1.92-1.84-3.87-3.7-5.32-5.96-1.33-2.08-2.04-4.68-4.36-5.92-4.26-2.27-9.68,1.27-10.76,5.64-.11.46,1.05-.26,1.11-.31.45-.32,1.1-.82,1.24-1.4h0Z"/><path class="cls-27" d="m694.14,162.45c-.82-7.98,9.48-8.3,14.82-6.42s10.12,6.63,11.64,12.37c.05.18,2.51-1.11,2.3-1.93-1.82-6.85-7.94-12.09-14.89-13.25-3.54-.59-7.34-.06-10.46,1.76s-6.17,5.21-5.76,9.16c.04.42,2.42-.97,2.35-1.7h0Z"/><path class="cls-27" d="m747.42,158.17c-2.42-8.17-4.15-16.52-5.14-24.98-.11-.95-.27-1.93-.28-2.89,0-.86,0-1.74.87-2.09,1.58-.61,3.35-.78,5.04-.68,3.45.22,6.68,1.69,9.11,4.15.44.44,2.66-1.56,2.3-1.93-2.77-2.82-6.68-4.39-10.64-4.26-3.29.11-8.1,1.6-8.92,5.3-.25,1.1-.03,2.27.09,3.37.14,1.27.3,2.54.48,3.81.35,2.53.77,5.06,1.25,7.57.94,4.91,2.13,9.76,3.55,14.55.06.2,2.53-1.13,2.3-1.93h0Z"/><path class="cls-27" d="m640.54,249.49c5.8-5.2,9.46-12.45,9.42-20.32,0-.47-1,.22-1.11.31-.35.25-1.24.88-1.24,1.4.03,6.63-2.58,13.54-7.58,18.02-.18.16-1.16.95-.9,1.26s1.27-.55,1.4-.66h0Z"/><path class="cls-27" d="m773.94,217.98c6.22.62,13.01,1.17,18.55-2.32,4.34-2.73,8.29-7.64,6.99-13.05-.04-.16-2.5,1.1-2.3,1.93,1.04,4.3-1.54,8.73-5.51,10.45-4.87,2.11-10.52,1.48-15.65.97-.54-.05-1.24.63-1.59.98-.1.1-.94,1-.49,1.04h0Z"/><path class="cls-27" d="m796.16,111.06c.84-2.71,1.99-6.45,4.52-8.07,3.13-2,7.52-1.03,10.58.58s5.76,3.96,8.13,6.41c2.58,2.67,3.91,5.79,5.08,9.27.08.23,2.56-1.16,2.3-1.93-.68-2.03-1.36-4.08-2.46-5.92s-2.59-3.39-4.16-4.83c-3.05-2.8-6.5-5.58-10.66-6.42s-7.66.51-10.54,3.27c-2.65,2.54-4.07,5.9-5.15,9.35-.14.44,1.06-.27,1.11-.31.48-.34,1.06-.81,1.24-1.4h0Z"/><path class="cls-27" d="m828.33,53.57c.12-.35.26-.73.49-1.02.17-.21-.02-.02.15-.13.6-.38,1.41-.53,2.1-.56,1.73-.08,3.35.66,4.64,1.78,3.12,2.71,3.87,6.94,4.49,10.81.07.46.95-.19,1.11-.31.29-.21,1.31-.93,1.24-1.4-.72-4.46-1.7-9.81-6.11-12.12-1.78-.93-3.74-1.03-5.6-.28-1.98.79-4.04,2.49-4.75,4.56-.2.58.52.21.76.06.48-.29,1.29-.85,1.48-1.43h0Z"/><path class="cls-27" d="m896.42,94.46c.46-7.17-4.55-13.57-11.01-16.19-3.1-1.26-6.57-1.63-9.79-.61-2.96.94-5.94,3.15-7.01,6.15-.21.58.53.19.76.06.49-.28,1.28-.85,1.48-1.43.47-1.31,1.11-2.07,2.4-2.59s2.78-.77,4.21-.78c2.93-.02,5.83.94,8.32,2.45,5.05,3.06,8.69,8.59,8.3,14.63-.03.47,1.01-.24,1.11-.31.38-.27,1.2-.86,1.24-1.4h0Z"/><path class="cls-27" d="m905.02,137.92c-.39-1.4.91-2.71,1.38-3.95s.65-2.43.76-3.69c.2-2.37.49-5.23-1.43-7-1.78-1.64-4.47-2.59-6.71-3.41-2.69-.99-5.47-1.68-8.31-2.07-.53-.07-1.25.65-1.59.98-.11.11-.94.98-.49,1.04,2.72.38,5.39,1.02,7.97,1.94,1.36.49,2.7,1.06,4,1.71,1.07.53,2.2,1.08,3.04,1.95,1.81,1.86,1.37,5.07,1.08,7.42-.16,1.32-.5,2.54-1.14,3.71-.58,1.06-1.21,2.05-.86,3.29.05.19,2.52-1.12,2.3-1.93h0Z"/><path class="cls-27" d="m1103.61,33.28c-1.11-6.09-7.36-10.32-13.42-8.98-6.41,1.42-10.89,7.4-14.18,12.64-2.59,4.12-5.11,8.29-7.67,12.43-.29.48-.13.59.36.42.57-.19,1.31-.85,1.63-1.36,2.49-4.04,4.96-8.1,7.47-12.12,1.88-3.01,3.93-6.35,6.9-8.41,6.23-4.33,15.22-.3,16.57,7.08.09.47,2.47-1.01,2.35-1.7h0Z"/><path class="cls-27" d="m1114.06,45.62c-1.89-1.19-4.2-1.18-6.23-.38-2.36.93-4.77,2.92-5.63,5.37-.2.58.52.2.76.06.49-.29,1.28-.85,1.48-1.43.12-.35.31-.77.48-1.05.06-.1.13-.19.2-.29.2-.29-.14.14.1-.12.02-.03.25-.26.11-.13s.1-.09.12-.11c-.28.27,0,0,.06-.04-.3.25,0,0,.06-.03-.32.22.34-.19.13-.08.38-.21.72-.34,1.13-.46,1.64-.49,3.48-.33,4.94.6.65.41,2.57-1.76,2.3-1.93h0Z"/><path class="cls-27" d="m1100.34,73.68c-1.05,5.1-2.47,10.11-4.25,15-.21.58.53.2.76.06.5-.3,1.27-.85,1.48-1.43,1.83-5,3.29-10.12,4.37-15.34.1-.46-1.05.26-1.11.31-.44.32-1.12.82-1.24,1.4h0Z"/><path class="cls-27" d="m1054.03,84.01c3.74-3.75,9.7-4.78,14.71-3.5.48.12,1.28-.68,1.59-.98.13-.13.93-.93.49-1.04-6.48-1.65-13.25.81-17.88,5.46-.17.17-.91.84-.49,1.04.38.18,1.39-.78,1.59-.98h0Z"/><path class="cls-27" d="m1151.7,87.41c0-4.51-3.75-7.3-7.28-9.37-1.85-1.09-3.72-2.23-5.86-2.63s-4.76-.41-7.02-.18c-8.68.87-12.97,10.57-13.01,18.3,0,.47,1-.23,1.11-.31.35-.25,1.24-.87,1.24-1.4.02-3.76.88-7.57,2.81-10.82.86-1.45,1.89-2.71,3.52-3.29,1.88-.67,3.95-.59,5.91-.55s3.97.19,5.84,1.04c1.62.74,3.19,1.71,4.69,2.67,2.91,1.86,5.7,4.52,5.71,8.22,0,.47,1-.22,1.11-.31.35-.25,1.24-.88,1.24-1.4h0Z"/><path class="cls-27" d="m1108.68,129.89c3.3,4.32,7.67,7.73,12.66,9.88.44.19,1.09-.41,1.4-.66.08-.07,1.18-1.14.9-1.26-4.99-2.15-9.37-5.56-12.66-9.88-.32-.42-2.67,1.44-2.3,1.93h0Z"/><path class="cls-27" d="m1200.05,47.77c-1.35-1.23-3.29-2.66-5.24-2.34-2.43.4-3.77,2.71-4.69,4.73-2.29,5.02-4.59,10.04-6.88,15.06-.27.58.57.17.76.06.53-.31,1.21-.84,1.48-1.43,1.84-4.03,3.68-8.05,5.52-12.08.45-.99.91-1.99,1.36-2.98.2-.44.39-.89.61-1.32.47-.95-.18.15-.32.02.03.03.53-.09.6-.09,1.71-.04,3.32,1.2,4.51,2.29.49.44,2.65-1.61,2.3-1.93h0Z"/><path class="cls-27" d="m1161.33,145.93c.35-5.47,1.71-10.8,4.04-15.76.27-.58-.57-.17-.76-.06-.54.32-1.21.84-1.48,1.43-2.38,5.06-3.79,10.52-4.15,16.1-.03.47,1.01-.24,1.11-.31.38-.27,1.2-.86,1.24-1.4h0Z"/><path class="cls-27" d="m1217.33,95.87c-6.11.11-11.96,2.18-16.94,5.69-.28.2-1.36.97-1.24,1.4s.94-.19,1.11-.31c4.36-3.07,9.67-4.66,14.98-4.76.58-.01,1.2-.6,1.59-.98.09-.08.93-1.05.49-1.04h0Z"/><path class="cls-27" d="m1192.66,165.51c-1.28-5.39-2.87-10.69-4.77-15.89-.09-.25-2.57,1.18-2.3,1.93,1.9,5.2,3.49,10.51,4.77,15.89.08.32,1.3-.59,1.4-.66.31-.26,1.01-.79.9-1.26h0Z"/><path class="cls-27" d="m1254.87,131.89c.54-7.68-3.64-16.14-11.11-18.96-8.58-3.25-15.28,5.02-19.43,11.31-.31.48-.12.58.36.42.58-.19,1.29-.85,1.63-1.36,1.96-2.98,4.01-6.41,7.31-8.05s7.33-1.07,10.5.95c5.75,3.67,8.86,10.69,8.4,17.4-.03.47,1.02-.24,1.11-.31.38-.27,1.2-.86,1.24-1.4h0Z"/><path class="cls-27" d="m1238.15,168.76c-4.86-.62-9.8.46-14.63-.41-3.67-.66-7.33-2.53-8.82-6.13-.12-.28-2.59,1.21-2.3,1.93,1.47,3.56,5.1,5.44,8.71,6.16,4.92.98,9.99-.16,14.96.47.53.07,1.25-.64,1.59-.98.11-.11.94-.98.49-1.04h0Z"/><path class="cls-27" d="m1329.67,160.99c-2-3.55-5.63-5.9-9.6-6.65-1.94-.37-3.96-.32-5.88.15-2.48.6-4.49,2.07-6.7,3.27-.59.32-1.28.77-1.63,1.36-.23.4-.19.72.36.42,2.09-1.13,4.02-2.57,6.37-3.12,1.85-.43,3.81-.39,5.67,0,3.79.79,7.19,3.11,9.1,6.5.2.36,2.64-1.32,2.3-1.93h0Z"/><path class="cls-27" d="m1379.5,219.4c.13-4.19.26-8.38.39-12.57.1-3.32-.18-6.37-2.76-8.73-5.16-4.74-12.6-2.73-17.87.66-3.66,2.36-6.78,5.42-10.09,8.22-.18.15-1.16.95-.9,1.26s1.27-.55,1.4-.66c5.99-5.07,13.58-13.22,22.31-9.4,3.69,1.61,5.61,4.82,5.6,8.79-.01,4.71-.28,9.43-.43,14.14-.01.47,1.01-.23,1.11-.31.37-.26,1.22-.87,1.24-1.4h0Z"/><path class="cls-27" d="m1328.27,269.84c-5.61-.02-11.6-.14-16.22-3.75-3.93-3.07-6.33-7.92-6.28-12.91,0-.47-1,.23-1.11.31-.36.25-1.23.87-1.24,1.4-.04,5.07,2.34,10.01,6.33,13.14,4.68,3.67,10.75,3.82,16.44,3.84.57,0,1.21-.6,1.59-.98.09-.09.93-1.04.49-1.04h0Z"/><path class="cls-27" d="m1431.02,216.99c-1.23.14-2.35-.39-3.52-.67-1.37-.32-2.54.03-3.68.83-1.22.86-2.18,2.02-3.16,3.13-1.04,1.17-2.08,2.33-3.12,3.5-.17.19-.68.87-.07.76s1.27-.77,1.66-1.21c.84-.94,1.67-1.88,2.51-2.82.41-.46.81-.91,1.22-1.37.22-.25.66-.85.86-.93-.39.16,0,.06.14.03.22-.05.46-.05.68-.04.47.03.94.15,1.39.28.98.29,1.95.65,2.99.53.6-.07,1.17-.57,1.59-.98.08-.07.91-1.09.49-1.04h0Z"/><path class="cls-27" d="m1409.63,238.94c-2.9-3.19-5.96-6.25-9.16-9.14-.31-.28-1.19.48-1.4.66-.14.12-1.18,1.01-.9,1.26,3.2,2.9,6.26,5.95,9.16,9.14.4.44,2.66-1.53,2.3-1.93h0Z"/><path class="cls-27" d="m1304.22,120.69c-1.85-1.62-3.87-3.37-6.37-3.83-2.65-.49-5.09.73-6.85,2.67-.17.19-.68.87-.07.76s1.26-.77,1.66-1.21c-.26.28-.14.11.15,0,.42-.16.87-.25,1.31-.28.89-.07,1.8.05,2.65.34,2.01.67,3.65,2.13,5.21,3.5.51.44,2.64-1.63,2.3-1.93h0Z"/><path class="cls-27" d="m1284.45,138.98c1.87.47,5,1.62,4.4,4.12-.17.71-.63,1.33-1.02,1.93-.47.73-.94,1.46-1.41,2.18-.94,1.46-1.88,2.91-2.82,4.37-.29.44-.14.64.36.42.59-.26,1.27-.82,1.63-1.36,1.04-1.6,2.07-3.2,3.11-4.81.49-.76.98-1.52,1.47-2.28.43-.68.87-1.37,1.05-2.16.61-2.7-2.62-3.93-4.67-4.44-.49-.12-1.28.68-1.59.98-.13.13-.93.93-.49,1.04h0Z"/><path class="cls-27" d="m1214.15,201.76c.37,5.1,2.3,10,5.54,13.96.35.43,2.67-1.48,2.3-1.93-3.19-3.9-5.13-8.7-5.49-13.73-.03-.47-.98.21-1.11.31-.32.23-1.27.9-1.24,1.4h0Z"/><path class="cls-31" d="m1659.32,588.26c-75.26-54.94-79.46-37.72-147.85-38.97-14.43.48-37.42-4.2-55,4.82,11.3,20.5,35.33,36.86,53.68,49.49,31.75,18.32,63.29,26.42,72.95,44.83,14.09,18.48,36.31,31.75,61.31,61.32,116.3,109.73-15.3,237.24-112.62,230.58-10.06-1.28-7.45-5.44-27.2-28.86-17.04-20.71-25.56-31.06-36.68-36.68-12.65-6.39-26.77-6.17-55.02-5.73-23.3,1.13,7.79,23.75,26.36,38.97-21.21-7.04-13.31,11.33,2.29,19.48,12.36,5.69,22.03-1.75,30.95,5.73,6.92,10.23,15.04,18.16,26.36,20.63-22.67,43.31,8.48,26.53,10.32,56.16-5.06,3.82-13.21,15.07-14.9,24.07h12.61c-15.45,4.1-23.25,21.88-14.9,33.24,53.05-22.54,85.56-60.89,57.31-104.3,35.75,1.11,183.57-41.73,207.45-142.12.38,3.44.76,6.88,1.15,10.32,1.91-.38,3.82-.76,5.73-1.15-2.57,9.62,22.79,20.15,24.07,36.68,23.57-27.26-7.86-69.37-32.09-95.13,2.1-32.55-26.1-102.92-48.13-123.78,9.93,3.82,19.87,7.64,29.8,11.46,4.98-20.27,6.35-14.59,5.73,5.73,16.25.35,48,19.87,55.01,32.09,11.75-67.69-90.71-110.95-138.68-108.88Zm-111.75,5.16c-1.67-4.83-9.74-12.44-13.75-13.75,6.23-1.47,19.25,1.23,24.07,4.58-3.44,3.06-6.88,6.11-10.32,9.17Zm125.5,56.73c-9.96,1.03-24.14-16.56-30.94-21.78-12.1-8.91-48.19-5.64-55.01-26.36-6.11-44.64,90.18,35.5,85.96,48.14Z"/><path class="cls-27" d="m1533.98,945.96c183.05-40.23,209.03-177.98,51.29-293.44,4.78,18.14-18.8,26.42-30.09,18.95-14.02-14.81-29.18-29.98-45.56-45.32-22.79-21.34-45.17-40.41-66.64-57.42-7.46,27.35,2.6,36.87,18.34,69.91,15.24,48.27,45.84,121.05,89.86,160.61-.11.07-.23.14-.34.21,50.96,55.34,42.02,124.61-18.3,140.98-1.92,1.48-.28,5.65,1.46,5.52Z"/><path class="cls-31" d="m1532.9,778.47c-31.36-46.06-57.63,47.17-34.03,68.82,6.88-8.79,13.75-17.57,20.63-26.36,10.45-6.31,6.63-13.62,2.29-19.48,12.91,8.64,10.64,9.44,28.31-2.09-4.12-5.6-12.64-15.51-17.2-20.89Z"/><path class="cls-27" d="m1588.27,590.55c-11.53,30.65,40.84,28.48,53.87,37.82,7.51,4.87,6.51,8.21,16.05,14.9,53.86,29.41-59.41-74.84-69.91-52.72Z"/><path class="cls-27" d="m1547.4,584.11c-3.34,6.84-8.95-2.83-2.87-4.28-4.02-.65-8-.81-10.71-.17,4.01,1.31,12.09,8.92,13.75,13.75,3.44-3.06,6.88-6.11,10.32-9.17-2.26-1.63-6.86-3.19-11.67-4.12,1.17.62,1.91,2.07,1.18,3.98Z"/><path class="cls-31" d="m1542.03,582.1c-1.62,4.16,3.85,6.21,5.37,2.01,1.7-4.16-4.06-6.04-5.37-2.01Z"/><path class="cls-5" d="m1456.97,554.54c35.01,51.18,82.92,57.82,122.64,87.1,17.91,21.17-8.66,49.73-34.39,26.36-34.75-39.67-64.82-65.82-102-98.56"/><path class="cls-24" d="m1456.97,554.54c-1.15,7.64-2.29,15.28-3.44,22.92h22.92c.38,7.26.76,14.52,1.15,21.78,8.02-.38,16.05-.76,24.07-1.15,1.15,9.17,2.29,18.34,3.44,27.51,11.84-1.91,23.69-3.82,35.53-5.73-.38,13.37-.76,26.74-1.15,40.11,14.9-2.67,29.8-5.35,44.7-8.02"/><rect class="cls-30" x="1366.3" y="756.05" width="470.91" height="321.69" transform="translate(3211.67 1819.4) rotate(179.49)"/><path class="cls-23" d="m1694.56,770.17c34.23-1.24,68.47-2.47,102.7-3.71"/><path class="cls-23" d="m1406.26,773.27c59.81-2.06,119.61-4.13,179.42-6.19"/><g id="Layer_3"><path id="lower_foot" class="cls-16" d="m989.32,651.66c19.3,34.82-78.23,46.98-87.67,23.07-1.68-4.61,2.52-7.55,4.4-9.65-2.52-2.31-9.02-4.19-5.45-11.12,1.47-2.94,3.78-2.52,4.19-4.4-15.1-21.81,20.97-21.39,36.91-15.94"/><path id="upper_foot" class="cls-16" d="m1088.73,614.12c19.71,9.86,43,19.92,62.71,12.79,9.86-4.4,10.07-9.23,5.45-15.1-.21-.63,6.29-2.94,6.71-3.78,3.98-4.61,1.68-14.47-3.98-16.99,5.87-2.31,7.97-12.58,1.47-15.94-6.71-4.82-20.76-4.82-28.73-3.36-15.1-5.87-11.12-11.54-34.61-13.42"/></g><g id="body"><path id="white_left_arm" class="cls-27" d="m1138.98,408.16c-10.46,15.29-21.45,25.97-29.7,32.93-13.83,11.66-20.75,17.5-31.04,20.76-6.53,2.07-12.04,2.59-14.76,7.13-3.64,6.07.23,15.12,4.07,21.81,8.4-2.84,57.39-20.19,69-62.92,1.5-5.51,2.55-12.09,2.44-19.71Z"/><path id="white_face" class="cls-27" d="m1023.63,397.67c9.49-11.22,11-26.51,4.19-37.75-6.03-9.96-17.71-15.3-27.43-14.2-16.52,1.87-32.15,22.92-30.38,51.53-18.67,0-3.78-25.17-13.21-36.7-8.39-21.18-41.32-10.7-42.58,8.18-.59,6.85-1.17,13.7-1.76,20.55-10.81,18.19-7.43,30.23-6.29,33.56,9.14,26.72,56.64,27.2,62.92,27.27,22.86.23,40.66-7.46,50.34-12.58.9-.49,11.3-6.38,12.58-18.88,1.28-12.43-7.6-20.3-8.39-20.97Z"/><path id="white_tommy" class="cls-27" d="m941.84,632.57c9.03,5.5,29.68,16.29,56.63,14.68,30.8-1.84,69.1-19.83,77.6-50.34,10.81-38.81-30.16-85.14-32.64-87.88-9.09-10.05-19.98-18.55-25.24-35.85-3.35-10.99-3.55-22.96-.77-36.51-3.57,3.98-24.96,12.16-49.08,12.16-13.42,0-26.22-2.73-34.19-5.24-6.71,16.15-18.04,32.93-50.13,31.25-8.22-4.56-18.15-11.04-28.31-20.13-12.61-11.29-21.32-22.82-27.14-31.88,1.88,22.32,9.59,37.77,14.68,46.14,11.38,18.7,37,46.82,60.82,41.95,2.7-.55,4.85-1.42,6.29-2.1-3.85,10.04-9.16,28.15-6.29,50.34,1.71,13.19,5.66,22.83,8.39,29.36,4.51,10.79,13.06,27.33,29.36,44.04Z"/><g id="colors_body_black"><path class="cls-26" d="m907.94,520.37c-25.59,66.28,37.12,155.2,112.84,123.32,33.14-3.57,59.14-10.91,74.87-39.85,35.24-36.7-28.52-92.91-32.93-132.76-.63-4.19,6.92-6.29,7.76-6.29,20.13-6.71,22.65-10.7,39.22-24.33,11.33-11.33,33.77-26.85,27.68-40.9-1.26-1.05-3.36-.63-4.82-.21-5.87,7.34-18.46,21.18-39.43,30.2-24.75,10.7-46.98,8.6-56.21,7.13,1.89-1.05,15.31-9.65,16.78-25.17.63-6.29-1.05-11.33-2.31-14.47,12.16-31.67-13.42-76.13-51.59-78.44-20.13,1.68-15.1-19.3-.21-18.67-15.73-10.28-15.94,14.05-30.83,5.24-23.49-5.66-2.1,0,2.1,7.97-3.98-2.94-19.71-3.57-22.86,2.1,58.31.42-70.26,13.21-39.64,76.76-11.12,13-6.92,35.03,7.55,43.2,9.44,5.66,12.37,3.98,2.31,14.89-19.51,24.12-44.67.21-61.24-16.99-9.02-9.23-18.88-21.6-26.22-20.13-6.71,1.05-3.36,8.39.21,12.79,16.36,24.33,41.95,48.45,53.27,50.97,32.09,1.68,43.41-15.31,50.13-31.46-24.96-4.82-38.17-34.82-21.18-52.22,6.29-5.87-3.78-15.1,1.47-22.86,1.26-18.88,34.19-29.36,42.58-8.18,9.44,11.54-5.45,36.7,13.21,36.7,5.24-87.04,84.1-48.03,52.43-.42,14.89,11.12,9.44,33.77-5.03,38.8-6.5,30.2,1.47,52.64,25.8,73.83,54.74,53.27,31.88,127.1-45.72,135.7-68.37,10.7-111.37-83.47-89.14-133.81,3.36-7.13,1.26-2.52-.84,7.55Z"/></g><path class="cls-20" d="m1019.31,436.89c-32.51,18.88-63.55,15.73-94.8,4.19"/><path class="cls-21" d="m911.51,431.02c4.19,4.82,14.89,12.16,22.44,14.05"/><path class="cls-21" d="m910.46,509.46c-28.73,14.26-61.24-30.62-61.24-30.62-14.89-16.36-22.02-63.55-22.02-63.55"/><path class="cls-21" d="m1067.97,490.37c37.12-13.84,80.12-47.82,69.42-90.81"/></g><g id="mund"><path class="cls-17" d="m951.08,404.55c-1.89-3.57,5.87-8.39,9.02-10.49,2.1-3.15,21.6,1.05,25.38,4.82,14.26,9.65-16.57,32.3-19.71,31.67-22.23-12.37,13.84-35.24-14.68-26.01Z"/></g><g id="tongue"><path class="cls-15" d="m964.09,424.68c-1.68-.42-2.73-1.68-2.73-1.68-2.1-2.52-1.05-6.71-.21-9.65.63-2.1,1.68-5.03,4.19-8.39,1.68,0,3.98,0,7.13.21,1.05,0,1.47.21,1.89.21,1.89,0,4.19-.21,9.23-1.68,1.89,2.1-11.33,23.07-19.51,20.97Z"/></g><g id="eyes_oval"><path class="cls-25" d="m996.8,365.12c-9.02,7.76-7.55,16.15-5.24,25.17,17.2,27.68,40.27-40.48,5.24-25.17Z"/><path class="cls-25" d="m935.35,366.8c-9.02,7.76-7.55,16.15-5.24,25.17,17.2,27.68,40.27-40.48,5.24-25.17Z"/></g><g id="eyes_blue"><path class="cls-41" d="m998.9,396.58c-11.95-5.24-5.45-26.01,6.08-24.96,16.99,2.1,6.29,26.85-6.08,24.96Z"/><path class="cls-36" d="m938.08,397.42c-11.95-5.24-5.45-26.01,6.08-24.96,16.57,2.31,6.92,26.64-6.08,24.96Z"/><path class="cls-40" d="m1005.4,376.23c-5.87-1.05-4.4,7.13-.42,7.76,8.39,4.82,13.21-6.5.42-7.76Z"/><path class="cls-40" d="m943.74,375.6c-5.87-1.05-4.4,7.13-.42,7.76,8.39,4.82,13.21-6.5.42-7.76Z"/></g><g id="yellow_fish"><path class="cls-1" d="m842.95,416.01c10.87,2.05,46.46,16.79,15.61,22.7-22.77-6.46-9.89-13.06-25.23,6.68-34.61,17.21-9.99-30.76,9.62-29.37Z"/><path class="cls-1" d="m801.91,386.42c-11.41,2.69-11.64,21.69-2.19,26.88,8.51-5.26,10.27-20.25,2.19-26.88Z"/><path class="cls-1" d="m867.37,354.99c.84,1.98-1.59,1.74-1.99,2.85-.5,2.97.26,3.83-1.9,6.11,1,5.04-1.3,6.55.68,11.33-5.17.67-.46,2.65-2.1,6.5,1.01,2.24,2.12,3.02-.87,3.14.37,5.22-2.86,7.12-.26,12.39-3.33,2.23-12.23-3.01-15.08-4.28-.06-13.79-.44-27.29-3.03-40.84,4.92-.37,21.97-3.22,24.54,2.81Z"/><path class="cls-2" d="m800.13,313.25c4.76.07,12.41.87,20.24,5.15,13.21,7.21,18.41,19.64,21.59,27.25,12.3,29.41,2.51,59.86-1.12,69.76-1.38.36-3.2,1.04-5.22,1.13-17.86-2.71-42.11-19.96-48.67-34.13-7.48-16.15-4.93-46.36-.81-62.07-1.42-.87-3.01-2.83-2.98-4.96.79-4.46,5.32-3.99,6.95-.41.17-7.8,8.02-9.67,10.03-1.72Z"/><path class="cls-1" d="m787.51,349.7c-12.87,1.89-16.9,21.62-7.96,29.78,14.42-.99,17.32-20.93,7.96-29.78Z"/><path class="cls-3" d="m816.9,327.46c-3.64,1.1-7.39-.27-9.03-3.04-2.22-3.76.07-9.05,4.12-10.7,3.35-1.37,7.79-.18,9.5,3.1,1.85,3.57.05,8.75-4.59,10.64Z"/><path class="cls-31" d="m812.5,321.39c-3.59,1.54-5.2-3.09-1.61-4.6,3.58-1.52,5.21,3.07,1.61,4.6Z"/><path class="cls-27" d="m811.64,319.03c-.93.39-1.46-1.13-.53-1.52.93-.39,1.46,1.13.53,1.52Z"/><path class="cls-31" d="m804.2,319.42c3.12,2.29,5.02,6.47,4.69,10.29-.62-3.78-2.1-7.41-4.69-10.29h0Z"/><path class="cls-31" d="m797.96,338.44c3.46,3.91,8.91,7.06,14.26,5.95,0,0,.06.16.06.16-5.11,2.1-11.86-1.58-14.32-6.1h0Z"/><path class="cls-31" d="m833.41,367.94c5.06,3.2,10.68,2,11.24-4.6,0,0,.17,0,.17,0,.57,7.09-6.89,9.07-11.41,4.6h0Z"/><path class="cls-31" d="m815.56,373.68c5.15,3.52,10.57,2.35,11.31-4.4,0,0,.17,0,.17,0,.4,7.26-6.93,9.17-11.47,4.4h0Z"/><path class="cls-31" d="m796.86,379.46c5.15,3.98,10.96,2.25,12-4.42,0,0,.17.01.17.01.06,7.23-7.66,9.61-12.16,4.41h0Z"/><path class="cls-31" d="m830.47,384.68c5.4,3.43,9.75,1.75,10.66-4.72,0,0,.17.01.17.01.25,6.95-6.05,9.42-10.83,4.71h0Z"/><path class="cls-31" d="m810.56,391.17c5.14,2.95,11.9,2.88,12.04-4.5,0,0,.17,0,.17,0,.96,7.89-7.51,8.73-12.21,4.51h0Z"/><path class="cls-31" d="m827.22,401.76c5.38,3.01,10.27,2.55,10.21-4.66,0,0,.17-.01.17-.01,1.3,7.58-5.54,9.03-10.38,4.67h0Z"/></g><path id="hand" class="cls-31" d="m827.85,424.41c-3.93-4.05-2-10.94,3.41-14.21,2.48-2.07,5.88-4.92,8.87-3.78,10.4,7.93-6.84,13.89-12.28,17.98Z"/><g id="green_fish"><path class="cls-10" d="m1128.26,401.32c-11.07,1.31-46.18,13.9-16.1,21.18,22.44-5.36,10.08-12.45,24.43,7.7,33.05,16.65,11.85-27.26-8.33-28.88Z"/><path class="cls-10" d="m1168,372.23c10.99,2,10.06,19.71,2.58,25.29-8.76-4.62-10.53-18.87-2.58-25.29Z"/><path class="cls-10" d="m1107.73,338.1c-1.03,1.53,1.37,2.04,1.68,2.94.09,3.02-.87,3.68.95,6.25-1.86,4.73-.15,6.66-2.9,10.94,5.09,1.64.18,2.91,1.41,7.22-1.15,2.2-2.48,2.96.51,3.48-.88,5.2,1.96,7.88-1.11,12.81,2.91,2.42,12-2.26,14.65-3.22,2-14,5.32-27.8,5.14-42-4.76-.4-17.21-3.1-20.33,1.57Z"/><path class="cls-4" d="m1168.81,301.63c-18.92,6.52-30.87,8.98-41.15,31.76-9.02,20-16.01,45.84,2.52,67.04,2.02,1.39,3.39,1.23,5.65,1.83,17.71-2.68,39.89-20.31,47.83-34.28,9.04-15.91,4.49-43.64-.27-59.56,1.24-1.31,2.55-3.15,2.43-5.35-.86-4.45-5.38-3.7-6.79-.08-.36-8.07-7.98-10.14-10.22-1.37Z"/><path class="cls-10" d="m1184.03,336.89c12.67,1.97,16.48,20.76,7.56,28.83-14.92-1.16-17.31-19.7-7.56-28.83Z"/><path class="cls-9" d="m1152.58,316.45c10.33.72,13.07-7.47,4.27-13.05-11.79-.98-14.88,7.75-4.27,13.05Z"/><path class="cls-31" d="m1156.44,310.63c3.84,1.19,5.43-3.2,1.65-4.41-3.78-1.2-5.49,3.22-1.65,4.41Z"/><path class="cls-27" d="m1157.27,308.38c.98.32,1.54-1.15.56-1.47-.98-.32-1.54,1.15-.56,1.47Z"/><path class="cls-31" d="m1165.13,308.28c-2.47,2.77-3.97,6.24-4.35,9.91-.56-3.67,1.36-7.72,4.35-9.91h0Z"/><path class="cls-31" d="m1172.33,326c-2.69,4.59-8.93,8.16-14.18,5.99,0,0,.06-.15.06-.15,5.36,1.28,10.7-2.04,14.13-5.84h0Z"/><path class="cls-31" d="m1137.76,354.14c-5.04,4.84-11.02,1.05-10.28-5.52,0,0,.16,0,.16,0,.49,6.36,4.56,8.97,10.11,5.52h0Z"/><path class="cls-31" d="m1155.07,360.32c-4.72,4.66-11.72,2.56-11.16-4.57,0,0,.16,0,.16,0,.65,6.87,5.77,7.86,10.99,4.57h0Z"/><path class="cls-31" d="m1173.42,365.59c-4.6,4.62-12.17,3.36-12.02-4.02,0,0,.16,0,.16,0,.98,7.02,6.79,7.32,11.85,4.03h0Z"/><path class="cls-31" d="m1140.44,371.03c-5.03,4.42-11.93,2.01-11.03-5.17,0,0,.16,0,.16,0,.33,6.99,5.4,8.2,10.86,5.16h0Z"/><path class="cls-31" d="m1159.64,377.2c-4.64,4.48-12.08,3.28-11.52-4.16,0,0,.16,0,.16,0,.61,7.13,6.29,7.28,11.35,4.16h0Z"/><path class="cls-31" d="m1145.04,388.05c-4.93,4.72-12.27,2.28-11.76-4.96,0,0,.16,0,.16,0,.65,6.94,6.23,8.34,11.59,4.96h0Z"/></g><path id="hand-2" class="cls-31" d="m1141.97,407.78c3.93-4.05,2-10.94-3.41-14.21-2.48-2.07-5.88-4.92-8.87-3.78-10.4,7.93,6.84,13.89,12.28,17.98Z"/><g id="knap_start"><path class="cls-39" d="m577.14,762.79c139.05,12.37,164.09-67.86,304.76-45.4,52.26,25.9,116.14,79.39,115.3,137.09-5.42,14.33-23.23,16.21-145.19,22.68-179.47-2.65-311.96,82.54-274.86-114.36Z"/><path class="cls-27" d="m576.2,762.79c-2.15-33.45,278.92-90.9,285.49-72.27,52.68,29,110.56,68.27,115.29,137.08-10.09,31.01-69.02,13.74-251.84,27.79-101.91,12.19-176.38,9.85-148.95-92.6Z"/></g><path class="cls-27" d="m654.21,762.56c-3.56-7-11.22-12.49-19.29-9.61-3.7,1.32-6.61,4.22-8.6,7.54-2.16,3.62-4.33,8.15-3.76,12.45.06.44,2.44-.98,2.35-1.7-.51-3.83,1.2-7.58,2.96-10.89.8-1.51,1.75-3.1,3.09-4.2s3.29-1.7,5.07-1.88c7.07-.69,12.85,4.24,15.89,10.22.17.34,2.63-1.28,2.3-1.93h0Z"/><path class="cls-27" d="m644.61,829.01c-6.86.25-13.57-2.82-17.87-8.17-.34-.43-2.67,1.47-2.3,1.93,4.34,5.39,11.17,8.51,18.09,8.26.59-.02,1.19-.59,1.59-.98.08-.08.93-1.06.49-1.04h0Z"/><path class="cls-27" d="m669.56,756.18c9.98-4.1,20.46-6.95,31.14-8.49.61-.09,1.16-.56,1.59-.98.07-.07.91-1.1.49-1.04-10.98,1.58-21.69,4.51-31.95,8.73-.58.24-1.32.81-1.63,1.36-.24.45-.2.65.36.42h0Z"/><path class="cls-27" d="m699.33,821.64c-4.33-2.25-6.44-6.88-7.27-11.49-.97-5.41-1.06-11.06-1.23-16.54-.01-.47-.99.22-1.11.31-.34.24-1.25.89-1.24,1.4.17,5.62.24,11.45,1.31,16.98.88,4.53,2.97,9.05,7.24,11.28.72.37,2.51-1.82,2.3-1.93h0Z"/><path class="cls-27" d="m724.24,817.72c-1.78-6.99-2.02-14.29-.75-21.38.08-.47-1.04.25-1.11.31-.43.3-1.14.83-1.24,1.4-1.29,7.19-1,14.54.8,21.61.04.17,2.51-1.11,2.3-1.93h0Z"/><path class="cls-27" d="m730.9,770.22c-.15-2.97.69-5.78,1.71-8.54s2.15-5.68,3.22-8.52c.53-1.4,1.06-2.79,1.58-4.19.37-.98.71-2.88,1.83-3.21,2.56-.75,4.7,1.87,4.52,4.21-.04.47,1.02-.24,1.11-.31.38-.27,1.2-.85,1.24-1.4.22-2.81-2.16-5.07-4.97-4.51-3.14.63-4.76,3.36-5.79,6.1-1.41,3.72-2.82,7.44-4.23,11.17-1.33,3.5-2.77,7.07-2.58,10.88.02.38,2.39-.94,2.35-1.7h0Z"/><path class="cls-27" d="m782.33,739.87c6.67-3.77,14.6-4.97,22.12-3.63.51.09,1.26-.66,1.59-.98.12-.12.94-.96.49-1.04-8.08-1.44-16.35.13-23.48,4.16-.43.24-1.41.89-1.48,1.43s.41.26.76.06h0Z"/><path class="cls-27" d="m793.64,808.61c-1.94-4.11-3.45-8.25-4.13-12.76s-1.12-9.02-1.66-13.53c-.05-.43-2.44.98-2.35,1.7.56,4.66,1,9.36,1.74,14s2.21,8.49,4.11,12.52c.15.32,2.62-1.25,2.3-1.93h0Z"/><path class="cls-27" d="m840.95,734.5c7.17-2.65,14.43-5.03,21.77-7.14.63-.18,1.24-.72,1.66-1.21.15-.17.69-.93.07-.76-7.34,2.11-14.61,4.49-21.77,7.14-.64.24-1.23.7-1.66,1.21-.12.15-.69.98-.07.76h0Z"/><path class="cls-27" d="m868.52,799.09c-3.96-4.94-6.18-11.09-6.26-17.43,0-.47-.99.22-1.11.31-.35.25-1.24.88-1.24,1.4.08,6.4,2.3,12.66,6.31,17.66.34.43,2.67-1.47,2.3-1.93h0Z"/><path class="cls-27" d="m835.09,802.02c-5.2-7.25-12.64-12.68-21.1-15.49-.66-.22-2.53,1.87-2.08,2.02,8.38,2.78,15.74,8.23,20.89,15.4.29.41,2.67-1.42,2.3-1.93h0Z"/><g id="knap_start-2"><path class="cls-39" d="m1376.66,820.12c-124.8,9.79-147.27-53.7-273.51-35.93-46.9,20.49-104.24,62.82-103.48,108.48,4.86,11.34,20.85,12.83,130.31,17.94,161.07-2.1,279.98,65.32,246.68-90.49Z"/><path class="cls-27" d="m1377.5,820.12c1.93-26.47-250.33-71.93-256.23-57.19-47.28,22.95-99.23,54.03-103.47,108.47,9.05,24.54,61.95,10.87,226.02,21.99,91.47,9.65,158.29,7.79,133.68-73.27Z"/></g><path class="cls-14" d="m1115.17,837.71c-.14,2.73-1.84,4.75-5.09,6.06-2.56,1.08-5.39,1.54-8.47,1.38-2.81-.15-6.09-.94-9.82-2.39-4.61-1.85-6.86-3.85-6.74-6,.04-.8.37-1.48.98-2.03.61-.55,1.32-.8,2.12-.76,1.21.06,2.3.61,3.27,1.65,1.67,1.57,2.56,2.42,2.69,2.56,1.52.98,4.31,1.57,8.37,1.78,3.62.19,5.47-.54,5.56-2.2.07-1.38-1.53-3.39-4.79-6.03-2.29-1.64-4.58-3.28-6.87-4.93-2.93-2.21-5.04-4.27-6.33-6.17-1.71-2.51-2.48-5.33-2.32-8.45.2-3.93,1.59-7.38,4.17-10.33,2.77-3.26,6.07-4.79,9.92-4.59,3.31.17,6.05,1.22,8.24,3.15,2.18,1.93,3.5,4.54,3.96,7.83.07,1.26.24,3.13.51,5.6.14.72.2,1.27.19,1.62-.08,1.61-.42,2.96-1.02,4.05-.75,1.48-1.84,2.19-3.27,2.11-.8-.04-1.55-.45-2.25-1.23-.7-.78-1.03-1.57-.99-2.38.03-.58.21-1.44.54-2.57.33-1.13.51-1.99.54-2.57.32-6.05-1.54-9.19-5.56-9.4-2.23-.12-4.16.74-5.78,2.56-1.62,1.82-2.49,3.88-2.6,6.16-.17,3.22,1.59,6.45,5.27,9.7,3.41,2.56,6.83,5.11,10.29,7.67,3.65,2.93,5.42,5.65,5.29,8.15Z"/><path class="cls-14" d="m1142.26,829.73c-.24,4.56-1.24,8.38-3.02,11.47-2.22,4.01-5.37,5.9-9.43,5.69-2.19-.11-4.03-.84-5.53-2.17-.03.49-.06,1.16-.1,2.01-.05.98-.09,1.65-.1,2.01-.22,4.29.09,7.69.95,10.2.4,1,.59,1.64.57,1.91-.08,1.52-1.01,2.23-2.8,2.14-1.34-.07-2.33-.37-2.98-.89-.48-.34-.91-1.48-1.3-3.43-.31-1.72-.45-3.03-.4-3.92l.84-16.15c.08-1.47.27-3.48.58-6.02.33-2.85.54-4.83.65-5.95.1-1.11.18-2.59.23-4.42.12-2.32.2-3.82.23-4.49.2-3.8,1.53-5.63,4.01-5.5.62.03,1.18.28,1.69.73.51.45.75.97.72,1.55-.05.98-.25,2.77-.61,5.34,1.87-2.37,4.03-3.49,6.49-3.36,3.31.17,5.78,1.64,7.43,4.42,1.44,2.41,2.07,5.35,1.89,8.83Zm-5.93-.91c.25-4.83-.66-7.29-2.73-7.4-.9-.05-2.11.76-3.64,2.43-2.96,3.21-4.73,7.75-5.3,13.63.48.29,1.31,1.28,2.48,2.95.93,1.26,1.88,1.91,2.87,1.96,3.73.19,5.84-4.33,6.32-13.58Z"/><path class="cls-14" d="m1155.1,820.52c-.04.8-.28,1.93-.72,3.39-.43,1.46-.67,2.58-.71,3.39l-.72,13.8c-.04.85.15,2.2.59,4.06-.73.99-1.5,1.47-2.31,1.42-2.84-.15-4.33-1.64-4.45-4.46-.18-5.25-.19-9.19-.06-11.83.23-4.42.6-8.12,1.12-11.1.01-.22.02-.45.03-.67.04-.8.68-1.17,1.92-1.11,1.11.06,2.2.34,3.29.84,1.39.57,2.06,1.32,2.01,2.26Zm1.09-9.35c-.05.98-.43,1.77-1.13,2.36-.7.59-1.55.86-2.53.81-1.16-.06-2.22-.52-3.19-1.38s-1.42-1.86-1.35-3.03c.05-.98.44-1.77,1.17-2.36.72-.59,1.6-.86,2.63-.8,1.21.06,2.26.51,3.16,1.34.9.83,1.32,1.85,1.25,3.06Z"/><path class="cls-14" d="m1164.91,845.08c-.04.8-.4,1.47-1.08,1.99-.68.52-1.44.77-2.29.72-2.81-.15-4.03-3.91-3.65-11.28.17-3.35.47-8.38.88-15.07.42-6.7.71-11.72.88-15.07.03-.54,0-1.32-.08-2.36-.08-1.03-.11-1.8-.08-2.29,1.53-.91,2.71-1.34,3.56-1.29.98.05,1.9.42,2.76,1.12.86.7,1.26,1.53,1.21,2.52-.03.49-.17,1.07-.42,1.72-.37,1.06-.58,1.63-.63,1.71-.73,2.74-1.22,6.66-1.49,11.75-.42,8.09-.64,12.24-.65,12.46-.16,5.64.11,9.59.79,11.87.19.64.28,1.13.26,1.49Z"/><path class="cls-14" d="m1176.23,845.67c-.04.8-.4,1.47-1.08,1.99-.68.52-1.44.76-2.29.72-2.81-.15-4.03-3.91-3.65-11.28.17-3.35.47-8.38.88-15.07.42-6.7.71-11.72.89-15.07.03-.54,0-1.32-.08-2.36s-.11-1.8-.08-2.29c1.53-.91,2.71-1.34,3.56-1.29.98.05,1.9.42,2.76,1.12.86.69,1.26,1.53,1.21,2.52-.03.49-.17,1.07-.42,1.72-.37,1.06-.58,1.63-.63,1.71-.73,2.74-1.22,6.66-1.49,11.75-.42,8.09-.64,12.24-.65,12.46-.16,5.64.11,9.59.79,11.87.19.64.28,1.13.26,1.49Z"/><path class="cls-14" d="m1201.58,842.89c-.12,2.23-1.73,3.9-4.83,4.99-2.42.86-4.92,1.22-7.51,1.09-6.88-.36-10.12-4.45-9.71-12.26.17-3.22,1.13-6.75,2.9-10.6,2.17-4.72,4.62-7.02,7.35-6.88,2.46.13,5.05,1.36,7.77,3.7,2.72,2.34,4.02,4.69,3.9,7.06-.15,2.95-1.59,5.23-4.32,6.83-2.41,1.44-5.22,2.08-8.43,1.91-.63-.03-1.61-.46-2.96-1.3-.04,4.25,1.1,6.44,3.42,6.56,1.96.1,3.93-.36,5.88-1.37,1.96-1.02,3.2-1.51,3.74-1.49,1.92.1,2.85.69,2.8,1.76Zm-6.64-13.05c.06-1.12-.21-2.19-.81-3.23-.6-1.04-1.43-1.59-2.5-1.64-1.47-.08-2.65.51-3.52,1.77-.73,1.08-1.13,2.38-1.21,3.9-.04.85.21,1.56.76,2.12.55.57,1.27.87,2.17.92,3.26.17,4.96-1.11,5.11-3.83Z"/><path class="cls-14" d="m1223.51,826.83c-.02.31-.09.8-.21,1.47-1.01,1.29-2.03,1.91-3.05,1.86-.85-.04-1.58-.57-2.2-1.59.01-2.01-.65-3.06-1.99-3.13-.8-.04-1.9,2.03-3.28,6.21-.63,1.85-1.04,4.45-1.21,7.8-.17,3.17-.12,5.1.14,5.79.29.87.42,1.46.41,1.77-.04.76-.41,1.36-1.12,1.79-.71.43-1.49.63-2.33.58-2.39-.12-3.53-1.3-3.41-3.54.01-.22.08-.53.21-.93.13-.4.2-.68.21-.86.12-2.28.18-5.67.19-10.17,0-4.5.07-7.87.19-10.1.1-2.01,1.36-2.95,3.78-2.83,1.43.08,2.39.55,2.88,1.43,1.32-1.32,2.77-1.94,4.33-1.86,1.07.06,2.08.4,3.04,1.03.65.39,1.39,1.2,2.23,2.43.83,1.23,1.23,2.18,1.2,2.85Z"/><path class="cls-14" d="m1246.34,845.22c-.12,2.23-1.73,3.9-4.83,4.99-2.42.86-4.92,1.22-7.51,1.09-6.88-.36-10.12-4.45-9.71-12.26.17-3.22,1.13-6.75,2.9-10.6,2.17-4.72,4.62-7.02,7.35-6.88,2.46.13,5.05,1.36,7.77,3.7,2.72,2.34,4.02,4.69,3.9,7.06-.15,2.95-1.59,5.23-4.32,6.83-2.41,1.44-5.22,2.08-8.43,1.91-.63-.03-1.61-.46-2.96-1.3-.04,4.25,1.1,6.44,3.42,6.56,1.96.1,3.93-.36,5.88-1.37,1.96-1.02,3.2-1.51,3.74-1.49,1.92.1,2.85.69,2.8,1.76Zm-6.64-13.04c.06-1.12-.21-2.19-.81-3.23-.59-1.04-1.43-1.59-2.5-1.64-1.47-.08-2.65.51-3.52,1.77-.73,1.08-1.13,2.38-1.21,3.9-.04.85.21,1.56.76,2.12.55.57,1.27.87,2.17.92,3.26.17,4.96-1.11,5.11-3.83Z"/><path class="cls-14" d="m1274.01,832.62c-.15,1.11-.54,3.06-1.18,5.85-.58,2.43-.9,4.39-.98,5.86-.07,1.34-.11,3.35-.11,6.04,0,2.69-.04,4.7-.11,6.04-.14,2.77-.52,4.81-1.12,6.12-.71,1.67-1.97,2.98-3.77,3.94-1.8.96-3.63,1.39-5.51,1.29-1.97-.1-4.37-.76-7.22-1.99-3.42-1.43-5.09-2.91-5.01-4.43.1-1.97,1.07-2.9,2.9-2.8.85.04,1.42.32,1.71.83.53.92.9,1.48,1.09,1.67.19.19.91.44,2.15.75,1.24.31,2.1.48,2.59.5,4.02.21,6.16-2.21,6.42-7.26.08-1.47.08-2.73,0-3.76-2.01,1.55-4.35,2.26-7.03,2.12-1.12-.06-2.35-.44-3.7-1.13-1.35-.7-2.36-1.49-3.03-2.38-1.3-1.68-1.87-4.11-1.7-7.28.2-3.8,1.29-7.93,3.27-12.4,2.43-5.47,5.19-8.13,8.28-7.97,1.88.1,3.62,1.06,5.23,2.89,1.16,1.72,2.33,3.41,3.5,5.09.33.46.87.9,1.61,1.29.92.5,1.5.86,1.76,1.1Zm-6.98,3.67c.04-.67-.25-1.24-.85-1.72-.05-4.12-1.38-6.25-3.97-6.39-1.47-.08-2.81,1.94-4.01,6.04-.88,3.13-1.38,5.86-1.5,8.19-.23,4.38.8,6.63,3.08,6.75,2.14.11,3.93-1.54,5.36-4.96,1.12-2.63,1.75-5.26,1.89-7.9Z"/><path class="cls-14" d="m1285.2,851.34c-.04.8-.4,1.47-1.08,1.99-.68.52-1.44.76-2.29.72-2.81-.15-4.03-3.91-3.65-11.28.17-3.35.47-8.38.88-15.07.42-6.7.71-11.72.89-15.07.03-.54,0-1.32-.08-2.36-.08-1.03-.11-1.8-.08-2.29,1.52-.91,2.71-1.34,3.56-1.29.98.05,1.9.42,2.76,1.12.86.7,1.26,1.53,1.21,2.52-.03.49-.17,1.07-.42,1.72-.37,1.06-.58,1.63-.63,1.71-.73,2.74-1.22,6.66-1.49,11.75-.42,8.09-.64,12.24-.65,12.46-.16,5.64.11,9.59.79,11.87.19.64.28,1.13.26,1.49Z"/><path class="cls-14" d="m1310.54,848.56c-.12,2.23-1.73,3.9-4.83,4.99-2.42.86-4.92,1.22-7.51,1.09-6.88-.36-10.12-4.45-9.71-12.26.17-3.22,1.13-6.75,2.9-10.6,2.17-4.72,4.62-7.02,7.35-6.87,2.46.13,5.05,1.36,7.77,3.7,2.72,2.34,4.02,4.69,3.9,7.06-.15,2.95-1.59,5.23-4.32,6.83-2.41,1.44-5.22,2.08-8.43,1.91-.63-.03-1.61-.46-2.96-1.3-.04,4.25,1.1,6.44,3.42,6.56,1.97.1,3.93-.36,5.88-1.37,1.96-1.02,3.2-1.51,3.74-1.49,1.92.1,2.85.69,2.8,1.76Zm-6.64-13.05c.06-1.12-.21-2.19-.81-3.23-.59-1.04-1.43-1.58-2.5-1.64-1.47-.08-2.65.51-3.52,1.76-.73,1.08-1.13,2.38-1.21,3.9-.04.85.21,1.56.76,2.12.55.57,1.27.87,2.17.92,3.26.17,4.96-1.11,5.11-3.83Z"/><path class="cls-14" d="m1332.47,832.5c-.02.31-.09.8-.21,1.47-1.01,1.29-2.03,1.91-3.05,1.86-.85-.04-1.58-.58-2.2-1.59.02-2.02-.65-3.06-1.99-3.13-.8-.04-1.9,2.03-3.28,6.21-.63,1.85-1.04,4.45-1.21,7.8-.17,3.17-.12,5.1.14,5.79.29.87.42,1.46.41,1.77-.04.76-.41,1.36-1.12,1.79s-1.49.63-2.33.58c-2.39-.12-3.53-1.3-3.41-3.54.01-.22.08-.53.22-.93.13-.4.2-.68.21-.86.12-2.28.18-5.67.19-10.17,0-4.5.07-7.87.19-10.1.1-2.01,1.36-2.95,3.78-2.83,1.43.07,2.39.55,2.88,1.43,1.32-1.32,2.77-1.94,4.33-1.86,1.07.06,2.08.4,3.04,1.03.65.39,1.39,1.2,2.23,2.43.83,1.23,1.23,2.18,1.2,2.85Z"/><path class="cls-13" d="m673.24,817.39c.48,4.76-1.59,8.73-6.21,11.94-3.63,2.6-7.81,4.21-12.55,4.82-4.32.56-9.51.12-15.56-1.3-7.49-1.87-11.42-4.67-11.8-8.41-.14-1.4.18-2.67.97-3.79.79-1.12,1.8-1.77,3.04-1.93,1.85-.24,3.65.4,5.41,1.9,2.94,2.22,4.52,3.44,4.75,3.64,2.56,1.25,6.96,1.47,13.21.66,5.56-.72,8.19-2.52,7.9-5.4-.24-2.41-3.19-5.42-8.83-9.03-3.9-2.17-7.81-4.35-11.71-6.53-5.03-2.98-8.77-5.92-11.21-8.84-3.24-3.84-5.13-8.48-5.68-13.93-.69-6.85.55-13.2,3.72-19.05,3.39-6.43,8.03-10.03,13.93-10.79,5.08-.66,9.53.37,13.34,3.07s6.49,6.83,8.02,12.39c.42,2.15,1.16,5.33,2.21,9.53.4,1.21.63,2.13.69,2.75.28,2.8.11,5.23-.52,7.28-.76,2.78-2.24,4.31-4.44,4.6-1.24.16-2.48-.33-3.75-1.48-1.26-1.14-1.96-2.42-2.1-3.82-.1-1.02-.05-2.55.16-4.59.21-2.05.27-3.58.16-4.59-1.06-10.55-4.68-15.42-10.86-14.62-3.43.44-6.15,2.47-8.15,6.09-2,3.62-2.8,7.41-2.4,11.39.56,5.61,4.06,10.69,10.5,15.23,5.84,3.43,11.71,6.86,17.61,10.28,6.31,4,9.69,8.19,10.13,12.55Z"/><path class="cls-13" d="m721.1,750.9c.13,1.32-.11,2.52-.73,3.58-.62,1.07-1.48,1.67-2.58,1.81-.62.08-1.8-.1-3.55-.55-1.75-.44-3.17-.59-4.27-.45-2.95.38-5.32.69-7.1.92-1.03.13-1.59.3-1.67.51-.08.21-.13.98-.13,2.33-.08,1.98-.2,4.95-.36,8.92-.24,10.75.31,22.79,1.65,36.1.91,9.03,2.46,15.1,4.65,18.21l.32,3.15c-1.23.95-2.22,1.47-2.97,1.57-4.39.57-7.48-1.48-9.27-6.13-.85-2.26-1.61-6.69-2.28-13.31-.77-7.71-1.24-13.72-1.4-18.03-.12-1.88-.19-6.4-.22-13.57,0-5.6-.18-10.11-.53-13.53l-.34-3.38c-.96.2-2.8.71-5.51,1.54-2.24.68-4.08,1.12-5.53,1.31-4.76.62-7.3-.67-7.62-3.87-.13-1.32.13-2.15.79-2.47.86-1.84,6.1-4.02,15.72-6.53,7.45-1.91,13.52-3.17,18.18-3.77,3.29-.43,6.22-.33,8.79.28,3.7.86,5.69,2.66,5.96,5.38Z"/><path class="cls-13" d="m774.75,794.95c.38,3.74-.91,5.83-3.85,6.29.52,1.75,1.52,4.06,2.99,6.95.1,1.72-.37,3.2-1.43,4.44-1.06,1.24-2.38,1.96-3.95,2.17-1.24.16-2.72-.08-4.45-.72-1.1-1.91-1.78-4.26-2.07-7.07-.07-.7-.14-1.72-.2-3.05-.06-1.33-.13-2.31-.19-2.93.05.55-1.05.96-3.31,1.26-3.84.5-8.39,1.28-13.63,2.35-7.5,1.44-11.54,2.63-12.1,3.58-.57.94-.58,5.16-.03,12.66-.74,1.59-1.8,2.48-3.17,2.66-1.44.19-2.99-.31-4.63-1.47-1.65-1.17-2.55-2.53-2.7-4.09-.05-.54.34-2.8,1.2-6.78.82-5.7,2.21-14.28,4.19-25.73,6.33-29.75,12.54-45.03,18.65-45.82,5.97-.77,11.33,6.18,16.07,20.87,2.12,6.59,4.5,16.8,7.15,30.66,1.83.24,3,.48,3.51.73,1.17.56,1.83,1.58,1.98,3.06Zm-14.86-2.57c-5.75-26.77-9.83-40.01-12.23-39.7-1.92.25-4.64,7.07-8.16,20.45-2.51,9.63-4.42,17.96-5.73,24.99,2.14-.83,5.33-1.91,9.58-3.25,3.86-1.05,9.37-1.88,16.54-2.49Z"/><path class="cls-13" d="m842.1,805.16l.06.58c-.86,1.84-2.04,2.87-3.55,3.06-1.17.15-2.22-.3-3.16-1.37-.9-2.72-5.9-6.69-15.01-11.9-9.11-5.21-15.04-7.64-17.78-7.28-.48.06-1.1.14-1.85.24-.95.2-1.6.33-1.94.37l.46,4.55c.16,1.56.53,3.6,1.14,6.12.66,3.07,1.23,4.93,1.71,5.58,1.42,1.71,2.16,2.8,2.21,3.26.14,1.4-.22,2.61-1.09,3.63-.87,1.02-1.92,1.61-3.16,1.77-2.61.34-4.74-.45-6.39-2.37-1.56-1.69-3.02-9.31-4.38-22.85-1.44.19-3-.12-4.68-.93-1.91-1.01-2.94-2.22-3.08-3.62-.29-2.88,1.8-5.24,6.28-7.08.03-2.45-.06-5.79-.28-10.02-.34-4.77-.5-8.1-.48-9.99.16-2.54.3-6.35.42-11.41l-.82.11c-2.74.43-4.25-.75-4.53-3.55-.24-2.41.43-4.04,2.01-4.87,1.13-.54,2.25-1.08,3.38-1.62,1.23-1.58,2.22-2.63,2.97-3.16.74-.53,1.98-.91,3.69-1.13,1.24-.16,1.92.38,2.04,1.63.04.39.92.47,2.63.25,8.03-1.04,15.04-.09,21.04,2.84,7.38,3.54,11.49,9.51,12.33,17.92.65,6.46-.6,12.02-3.75,16.69-2.11,3.19-6.04,6.97-11.79,11.34,5.22,2.87,10.41,5.75,15.57,8.63,6.04,4.03,9.3,8.89,9.81,14.58Zm-19.26-50.5c-.5-4.98-3.12-8.47-7.86-10.46-3.79-1.64-8.1-2.14-12.92-1.52-.62.08-2.09.39-4.41.92.35,2.79.18,7.7-.51,14.73-.34,4.23-.25,10.32.27,18.3,4.15,1.04,6.71,1.5,7.67,1.37.83-.11,2-.54,3.54-1.29,4.39-2.14,7.87-5,10.44-8.57,3.01-4.09,4.27-8.59,3.77-13.5Z"/><path class="cls-13" d="m891.06,728.93c.13,1.32-.11,2.52-.73,3.58-.62,1.07-1.48,1.67-2.58,1.81-.62.08-1.8-.1-3.55-.55-1.75-.44-3.17-.59-4.27-.45-2.95.38-5.32.69-7.1.92-1.03.13-1.59.3-1.67.51-.08.21-.13.98-.13,2.32-.08,1.98-.2,4.95-.36,8.92-.24,10.75.31,22.79,1.65,36.1.91,9.03,2.46,15.1,4.65,18.21l.32,3.15c-1.23.95-2.22,1.47-2.97,1.57-4.39.57-7.48-1.48-9.27-6.13-.85-2.26-1.61-6.69-2.28-13.31-.77-7.71-1.24-13.72-1.4-18.03-.12-1.88-.19-6.4-.22-13.57,0-5.6-.18-10.11-.53-13.53l-.34-3.38c-.96.2-2.8.72-5.51,1.54-2.24.69-4.08,1.12-5.53,1.31-4.76.62-7.3-.67-7.62-3.86-.13-1.32.13-2.15.79-2.47.86-1.84,6.1-4.02,15.72-6.53,7.45-1.91,13.52-3.17,18.18-3.77,3.29-.43,6.22-.33,8.79.28,3.7.86,5.69,2.66,5.96,5.38Z"/></g><g id="Layer_2"><rect class="cls-29" width="1920" height="1080"/></g><g id="regler_text"><path class="cls-32" d="m651.74,195.19c-142.15,226.13-23.7,294.33,14.03,499,4.79,108.98-42.17,157.23-5.03,222,162.84,153.91,399.47,151.96,581.25,48.84,39.56-28.99,64.99-61.55,80.01-84.03-70.7-6.05-1.83-190.56-34.29-289.79-34.4-444.44-238.24-642.38-635.97-396.01Z"/><path class="cls-35" d="m707.78,165.47c-142.15,226.12-23.7,294.33,14.03,499,4.79,108.98-42.17,157.23-5.03,222,135.1,133.88,396.86,183.88,592.22,13.56,107.66-159.68,7.63-516.53-46.2-675.56-87.29-245.41-389.38-171.3-555.02-59Z"/><path class="cls-37" d="m777.32,165.03c-6.84-.35,1.86,48.84-5.76,35.22,1.26-14.33-7.4-9.62-18.18-7.63-3.23,2.25,1,9.62-.57,10.99-5.58,2.85-2.66-7.09-4.29-10.08-3.1.47-2.78-4.11-.06-3.84,1.5-3.48-2.4-34.21,6.72-24.18-.58,2.95-8.11,24.73,1.33,22.86,6.74-2.26,11.22.69,14.21-3.54-.83-4.89.18-32.88,6.6-19.8Z"/><path class="cls-37" d="m787.34,179.49c-5.16,11.02,7.17,36.57-8.58,40.44-1.6.46-13.87-4.44-8.71-6.3,25.31,18.35,4.79-35.1,17.28-34.14Zm.36-6.12c-.42,3.09-4.64,2.36-4.92-.96-.01-3.25,5.18-1.62,4.92.96Z"/><path class="cls-37" d="m823.58,197.01c-4.18,11.98-17.21,2.02-25.14,6.48-16.21-1.88-3.43-15.95,7.02-12.66,3.59-11.5-10.1-14.35-10.5-2.45-3.28,2.71-2.77-5.45-.6-7.39,3.06-6.25,11.38-3.12,13.8,1.44,3.96-13.68,21.46,2.96,11.7,9.84-3.05,3.06-6.89,3.21-10.5,1.56-2.61,3,1.57,8.01,4.92,7.38,3.84,1.66,7.7-9.48,9.3-4.2Zm-17.76-1.86c-.71-4.73-12.25-2.19-11.7,2.58.98,6.16,12.04,2.87,11.7-2.58Zm13.62-9.18c-.43-12.28-14.64-1.02-8.68,5.4,3.85,3.25,8.96-.9,8.68-5.4Z"/><path class="cls-37" d="m830.72,202.35c-5.82,12.6-7.08-53.3,0-38.76-1.71,3.53-1.48,24.67-1.5,25.86.22,6.1.31,9.03,1.5,12.9Z"/><path class="cls-37" d="m852.2,188.25c-.05,24.8-15.17,9.37-15.3,16.2-1.31,7.16,3.05,11.66.66,14.82-7.84,2.6-1.5-63.78.12-40.26-2.37,10.46,11.58-14.91,14.52,9.24Zm-3,.24c-.41-18.7-14.18-1.55-12.3,8.16,6.24,11.22,13.05,1.21,12.3-8.16Z"/><path class="cls-37" d="m885.38,189.63c.98,11.21-6.22,15.14-14.1,12.72.84,4.34-3.82,2.92-3.24-1.74.59,2.48-1.64-43.93,3.39-36.81,2.1,4.49-1.17,12.26-.39,17.25,5.52-10.25,15.95-.6,14.34,8.58Zm-3.18.33c-.01-21.66-16.71-3.53-10.14,7.94,4.85,8.69,11.18-1.37,10.14-7.94Z"/><path class="cls-37" d="m906.14,204.69c-1.33,2.1-3.85.29-3.12-2.7-2.94-.02-14.58,4.35-15.54-4.2.74-6.26,10.09-7.59,15.12-6.96.96-4.25.23-10.68-4.56-10.74-5.3-1.1-4.8,10.64-7.74,8.34-4.06-11.27,14.5-15.32,15.66-3.18,0,0,.18,19.44.18,19.44Zm-3.18-9.54c-.71-4.73-12.25-2.19-11.7,2.58.98,6.16,12.04,2.87,11.7-2.58Z"/><path class="cls-37" d="m927.86,189.63c.98,11.21-6.22,15.14-14.1,12.72.84,4.34-3.82,2.92-3.24-1.74.59,2.48-1.64-43.93,3.39-36.81,2.1,4.49-1.17,12.26-.39,17.25,5.52-10.25,15.95-.6,14.34,8.58Zm-3.18.33c-.01-21.66-16.71-3.53-10.14,7.94,4.85,8.69,11.18-1.37,10.14-7.94Z"/><path class="cls-37" d="m949.16,179.43c-2.94,12.41,3.38,54.36-20.1,32.52,3.92-4.12,17.39,12.86,15.48-9,.44-4.61-8.55,4.28-11.58-3-2.33-4.57-4.75-25.59,2.52-21.84-.55,1.42-4.02,23.12,3.63,22.38,10.36.41,1.23-27.51,10.05-21.06Z"/><path class="cls-37" d="m966.38,188.13c-2.29.81-20.37-2.04-12.57-3.51,4.1,1.53,11.98-2.72,12.57,3.51Z"/><path class="cls-37" d="m987.08,188.25c-.05,24.8-15.17,9.37-15.3,16.2-1.31,7.16,3.05,11.66.66,14.82-7.84,2.6-1.5-63.78.12-40.26-2.37,10.46,11.58-14.91,14.52,9.24Zm-3,.24c-.41-18.7-14.18-1.55-12.3,8.16,6.24,11.22,13.05,1.21,12.3-8.16Z"/><path class="cls-37" d="m995,179.49c-1.91,6.3-.31,18.13-1.08,23.82-4.54,2.96-5.2-33.15,1.08-23.82Zm1.14-9c.11,3.52-5.11,1.93-4.98-.72-.1-3.4,5.25-2.13,4.98.72Z"/><path class="cls-37" d="m1018.16,203.25c-6.3,2.9-1.02-26.62-7.96-23.76-10.15-.7-5.59,34.73-10.76,20.28,1.24-5.61-2.55-19.46,1.62-22.98,3.52.65-.75,11.17,2.76,5.16,11.34-15.83,16.31,12.05,14.34,21.3Z"/><path class="cls-37" d="m1039.7,184.95c-2.47,9.48,0,18.8-1.56,27.54-3.96,12.93-27.53-5.73-11.52,1.5,8.9,3.24,10.59-8.25,8.64-14.1-3.03,4.39-8.71,5.02-12.12,1.2-5.37-12.74,4.18-35.75,16.56-16.14Zm-3.6,3.3c-4.63-23.99-18.97,11.01-7.08,13.68,4.72.1,7.19-9.61,7.08-13.68Z"/><path class="cls-37" d="m1059.92,179.07c.02,36.14-20.94,24.89-16.68-1.92,4.39,3.65,1.88,17.91,8.16,22.5,5.43,1.15,3.33-29.03,8.52-20.58Z"/><path class="cls-37" d="m1068.2,179.49c-1.92,6.3-.31,18.13-1.08,23.82-4.54,2.96-5.2-33.15,1.08-23.82Zm1.14-9c.11,3.52-5.11,1.93-4.98-.72-.1-3.4,5.25-2.13,4.98.72Z"/><path class="cls-37" d="m1091.35,203.25c-6.3,2.9-1.02-26.62-7.96-23.76-10.15-.7-5.59,34.73-10.76,20.28,1.24-5.61-2.55-19.46,1.62-22.98,3.52.65-.75,11.17,2.76,5.16,11.34-15.83,16.31,12.05,14.34,21.3Z"/><path class="cls-37" d="m1112.23,197.01c-17.55,27.97-26.29-31.05-4.14-17.01,9.37,7.82-2.55,17.3-10.26,14.31,1.16,17.15,12.71-2.45,14.4,2.7Zm-4.14-11.04c-1.52-15.04-17.05,4.18-5.58,6.54,3.29.08,5.65-3.38,5.58-6.54Z"/><path class="cls-37" d="m1133.95,203.25c-6.3,2.9-1.02-26.62-7.96-23.76-10.15-.7-5.59,34.73-10.76,20.28,1.24-5.61-2.55-19.46,1.62-22.98,3.52.65-.75,11.17,2.76,5.16,11.34-15.83,16.31,12.05,14.34,21.3Z"/><path class="cls-37" d="m747.08,237.87c-1.84,16.13-13.32,17.09-22.86,11.22-1.27,4.16,5.16,15.77-2.52,10.98-2.62-5.66,1.59-61.78,3.3-31.68,6.58-17.64,26.69-6.89,22.08,9.48Zm-2.7-3.39c-.75-25-23.55-6.88-19.8,9.15,8.46,10.77,19.62,6.54,19.8-9.15Z"/><path class="cls-37" d="m755,237.09c-1.91,6.3-.31,18.13-1.08,23.82-4.54,2.96-5.2-33.15,1.08-23.82Zm1.14-9c.11,3.52-5.11,1.93-4.98-.72-.1-3.4,5.25-2.13,4.98.72Z"/><path class="cls-37" d="m778.16,260.85c-6.3,2.9-1.02-26.62-7.96-23.76-10.15-.7-5.59,34.73-10.76,20.28,1.24-5.61-2.55-19.46,1.62-22.98,3.52.65-.75,11.17,2.76,5.16,11.34-15.83,16.31,12.05,14.34,21.3Z"/><path class="cls-37" d="m799.7,242.55c-2.47,9.48,0,18.8-1.56,27.54-3.96,12.93-27.53-5.73-11.52,1.5,8.9,3.24,10.58-8.25,8.64-14.1-3.03,4.39-8.71,5.02-12.12,1.2-5.37-12.74,4.18-35.75,16.56-16.14Zm-3.6,3.3c-4.63-23.99-18.97,11.01-7.08,13.68,4.72.1,7.19-9.61,7.08-13.68Z"/><path class="cls-37" d="m821.72,248.73c1.25,9.82-10.36,19.19-17.04,9.84-10.34-16.97,15.46-37.61,17.04-9.84Zm-2.88-.06c1.15-15.88-14.08-12.34-12.84,1.44-1.06,14.24,14.33,11.2,12.84-1.44Z"/><path class="cls-37" d="m864.92,260.97c-6.84,2.98-.94-28.1-6.91-24.66-7,3.13-4.22,17.5-5.33,23.16-6.43,1.13-1.13-14.7-3.66-18.48-2.93-10.64-9.36,7.35-8.52,12.12-.14,1.98,2.08,10.02-2.28,7.2-2.47-3.25-.09-38.11,2.1-20.88-1.21,9.34,2.26-5.98,6-4.86,3.03-1.83,5.09,10.77,6.9,3.72,9.94-15.97,13.24,14.59,11.7,22.68Z"/><path class="cls-37" d="m886.28,254.61c-17.55,27.97-26.29-31.05-4.14-17.01,9.37,7.82-2.55,17.3-10.26,14.31,1.16,17.15,12.71-2.45,14.4,2.7Zm-4.14-11.04c-1.52-15.04-17.05,4.18-5.58,6.54,3.29.08,5.65-3.38,5.58-6.54Z"/><path class="cls-37" d="m908,222.4c-.86,9.46-3.35,30.13-.72,39.18-7.89.72,2-7.67-10.5-.3-12.78.02-8.25-25.55.42-27.12,10.16,5.97,5.67-.08,6.84-14.16,1.55-1.29,4.08.54,3.96,2.4Zm-4.5,22.2c-3.62-21.38-19.37,11.44-7.08,14.64,5.46-.09,7.07-9.64,7.08-14.64Z"/><path class="cls-37" d="m942.32,262.29c-1.33,2.1-3.85.29-3.12-2.7-2.94-.02-14.58,4.35-15.54-4.2.74-6.26,10.09-7.59,15.12-6.96.96-4.25.23-10.68-4.56-10.74-5.3-1.1-4.8,10.64-7.74,8.34-4.06-11.27,14.5-15.32,15.66-3.18,0,0,.18,19.44.18,19.44Zm-3.18-9.54c-.71-4.73-12.25-2.19-11.7,2.58.98,6.16,12.04,2.87,11.7-2.58Z"/><path class="cls-37" d="m956.78,241.65c-8.18-.66-3.79,12.88-3.9,18.3-6.39,5.7-3.47-15.84-4.08-16.92-4.55,1.09-7.29-3.71.3-3.48.55-2.13-.46-19.37,4.2-10.86-4.13,16.85,6.46,6.15,3.48,12.96Z"/><path class="cls-37" d="m992.6,223.53c-1.84,3.84-2.63-2.26-5.7-1.5-5.46,2.26-8.61,16.7-.72,17.16.61,2.46-3.87,1.35-5.1,1.98-.09,4.22-.77,13.94.66,19.14-6.64,6.11-3.02-19.69-3.6-19.01.51-.23-4.95.79-4.44-1.32.53-3.39,5.95.19,4.8-4.8-.82-13.41,10.3-22.03,14.1-11.64Z"/><path class="cls-37" d="m1004.9,262.29c-1.33,2.1-3.85.29-3.12-2.7-2.94-.02-14.58,4.35-15.54-4.2.74-6.26,10.09-7.59,15.12-6.96.96-4.25.23-10.68-4.56-10.74-5.3-1.1-4.8,10.64-7.74,8.34-4.06-11.27,14.5-15.32,15.66-3.18,0,0,.18,19.44.18,19.44Zm-3.18-9.54c-.71-4.73-12.25-2.19-11.7,2.58.98,6.16,12.04,2.87,11.7-2.58Z"/><path class="cls-37" d="m1028.29,260.85c-6.3,2.9-1.02-26.62-7.96-23.76-10.15-.7-5.59,34.73-10.76,20.28,1.24-5.61-2.55-19.46,1.62-22.98,3.52.65-.75,11.17,2.76,5.16,11.34-15.83,16.31,12.05,14.34,21.3Z"/><path class="cls-37" d="m1049.83,242.55c-2.46,9.48,0,18.8-1.56,27.54-3.96,12.93-27.53-5.72-11.52,1.5,8.9,3.24,10.59-8.24,8.64-14.1-3.03,4.39-8.71,5.02-12.12,1.2-5.37-12.74,4.18-35.75,16.56-16.14Zm-3.6,3.3c-4.63-23.99-18.97,11.01-7.08,13.68,4.72.1,7.19-9.61,7.08-13.68Z"/><path class="cls-37" d="m1070.41,254.61c-17.55,27.97-26.29-31.05-4.14-17.01,9.37,7.82-2.55,17.3-10.26,14.31,1.16,17.15,12.71-2.45,14.4,2.7Zm-4.14-11.04c-1.52-15.04-17.05,4.18-5.58,6.54,3.29.08,5.65-3.38,5.58-6.54Z"/><path class="cls-37" d="m1105.15,223.53c-1.84,3.84-2.63-2.26-5.7-1.5-5.46,2.26-8.61,16.7-.72,17.16.61,2.46-3.87,1.35-5.1,1.98-.1,4.22-.77,13.94.66,19.14-6.64,6.11-3.02-19.69-3.6-19.01.51-.22-4.95.79-4.44-1.32.53-3.39,5.95.19,4.8-4.8-.82-13.41,10.3-22.03,14.1-11.64Z"/><path class="cls-37" d="m1106.53,237.09c-1.92,6.3-.31,18.13-1.08,23.82-4.54,2.96-5.2-33.15,1.08-23.82Zm1.14-9c.11,3.52-5.11,1.93-4.98-.72-.1-3.4,5.25-2.13,4.98.72Z"/><path class="cls-37" d="m1127.17,257.06c-.88,10.06-24.97.6-15.84-3.41-.1,2.39,7.13,6.11,9.24,5.88,8.44-1.26-5.97-7.42-6.66-8.96-10.02-9,4.34-24.72,11.28-10.96.92,2.65,1.04,12.42-3.84,8.28,5.68-23.62-22.13-5.79,5.82,9.17Z"/><path class="cls-37" d="m1151.23,262.89c-7,6.42-18.78-26.59-17.7-5.7.11,1.34,1.96,3.94-.6,4.08-4.97-1-1.5-11.91-2.04-15.6,1.56-3.83-4.12-32.11,3.66-25.5-1.29,3.97-.74,20.33-1.02,25.14,3.45-.22,10.68-10.63,13.85-11.94,6.02,11.22-26.51,4.9,3.85,29.52Z"/><path class="cls-37" d="m1158.31,259.29c-.46,2.62-5.64,2.53-5.58-.48-.19-3.34,5.59-2.17,5.58.48Z"/><path class="cls-37" d="m750.77,458.19c-12.67,15.57-19.58-31.48-27.24-4.62-.18,5.06,3.56,14.45-1.98,8.58-1.91-7.2-2.5-35.42,1.02-41.22,4.97,1.06,3.02,2.41,1.98,6.24-6.04,42.94,12.48-11.64,22.02-3.78.95,1.1.99,2.94-.78,2.25-1.84-1.5-11.1,10.3-11.52,11.47-2.59,8.64,8.49,23.57,16.5,21.08Z"/><path class="cls-37" d="m754.31,461.55c-5.82,12.6-7.08-53.3,0-38.76-1.71,3.53-1.48,24.67-1.5,25.86.22,6.1.31,9.03,1.5,12.9Z"/><path class="cls-37" d="m762.11,438.69c-1.91,6.3-.31,18.13-1.08,23.82-4.54,2.96-5.2-33.15,1.08-23.82Zm1.14-9c.11,3.52-5.11,1.93-4.98-.72-.1-3.4,5.25-2.13,4.98.72Z"/><path class="cls-37" d="m787.31,464.49c-7,6.42-18.78-26.59-17.7-5.7.11,1.34,1.96,3.94-.6,4.08-4.97-1-1.5-11.91-2.04-15.6,1.56-3.83-4.12-32.11,3.66-25.5-1.29,3.96-.74,20.33-1.02,25.14,3.45-.22,10.68-10.63,13.85-11.94,6.03,11.22-26.51,4.9,3.85,29.52Z"/><path class="cls-37" d="m819.77,447.45c-.05,24.8-15.17,9.37-15.3,16.2-1.31,7.16,3.05,11.66.66,14.82-7.84,2.6-1.5-63.78.12-40.26-2.37,10.46,11.58-14.91,14.52,9.24Zm-3,.24c-.41-18.7-14.18-1.55-12.3,8.16,6.24,11.22,13.05,1.21,12.3-8.16Z"/><path class="cls-37" d="m841.13,463.89c-1.33,2.1-3.85.29-3.12-2.7-2.94-.02-14.58,4.35-15.54-4.2.74-6.26,10.09-7.59,15.12-6.96.96-4.25.23-10.68-4.56-10.74-5.3-1.1-4.8,10.64-7.74,8.34-4.06-11.27,14.5-15.32,15.66-3.18,0,0,.18,19.44.18,19.44Zm-3.18-9.54c-.71-4.73-12.25-2.19-11.7,2.58.98,6.16,12.04,2.87,11.7-2.58Zm-1.8-22.98c.04,4.42-6.88,4.42-6.84,0-.04-4.42,6.88-4.42,6.84,0Zm-1.2,0c.03-2.87-4.47-2.87-4.44,0-.03,2.87,4.47,2.87,4.44,0Z"/><path class="cls-37" d="m874.07,456.21c-17.55,27.97-26.29-31.05-4.14-17.01,9.37,7.82-2.55,17.3-10.26,14.31,1.16,17.15,12.71-2.45,14.4,2.7Zm-4.14-11.04c-1.52-15.04-17.05,4.18-5.58,6.54,3.29.08,5.65-3.38,5.58-6.54Z"/><path class="cls-37" d="m895.79,462.45c-6.3,2.9-1.02-26.62-7.96-23.76-10.15-.7-5.59,34.73-10.76,20.28,1.24-5.61-2.55-19.46,1.62-22.98,3.52.65-.75,11.17,2.76,5.16,11.34-15.83,16.31,12.05,14.34,21.3Z"/><path class="cls-37" d="m930.83,425.13c-1.84,3.84-2.63-2.26-5.7-1.5-5.46,2.26-8.61,16.7-.72,17.16.61,2.46-3.87,1.35-5.1,1.98-.09,4.22-.77,13.94.66,19.14-6.64,6.11-3.02-19.69-3.6-19.01.51-.23-4.95.79-4.44-1.32.53-3.39,5.95.19,4.8-4.8-.82-13.41,10.3-22.03,14.1-11.64Z"/><path class="cls-37" d="m932.21,438.69c-1.91,6.3-.31,18.13-1.08,23.82-4.54,2.96-5.2-33.15,1.08-23.82Zm1.14-9c.11,3.52-5.11,1.93-4.98-.72-.1-3.4,5.25-2.13,4.98.72Z"/><path class="cls-37" d="m952.85,458.66c-.89,9.71-24.21,1.25-16.2-3.41.62,1.8,6.94,6.29,9.6,5.88,8.44-1.26-5.97-7.42-6.66-8.96-10.02-9,4.34-24.72,11.28-10.96.92,2.65,1.04,12.42-3.84,8.28,5.68-23.62-22.13-5.79,5.82,9.17Z"/><path class="cls-37" d="m976.91,464.49c-7,6.42-18.78-26.59-17.7-5.7.11,1.34,1.96,3.94-.6,4.08-4.97-1-1.5-11.91-2.04-15.6,1.56-3.83-4.12-32.11,3.66-25.5-1.29,3.96-.74,20.33-1.02,25.14,3.45-.22,10.68-10.63,13.85-11.94,6.03,11.22-26.51,4.9,3.85,29.52Z"/><path class="cls-37" d="m1010.39,450.33c1.25,9.82-10.36,19.19-17.04,9.84-10.34-16.97,15.46-37.61,17.04-9.84Zm-2.88-.06c1.15-15.88-14.08-12.34-12.84,1.44-1.06,14.24,14.33,11.2,12.84-1.44Z"/><path class="cls-37" d="m1031.93,444.15c-2.47,9.48,0,18.8-1.56,27.54-3.96,12.93-27.53-5.73-11.52,1.5,8.9,3.24,10.58-8.25,8.64-14.1-3.03,4.39-8.71,5.02-12.12,1.2-5.37-12.74,4.18-35.75,16.56-16.14Zm-3.6,3.3c-4.63-23.99-18.97,11.01-7.08,13.68,4.72.1,7.19-9.61,7.08-13.68Z"/><path class="cls-37" d="m1066.61,450.33c1.25,9.82-10.36,19.19-17.04,9.84-10.34-16.97,15.46-37.61,17.04-9.84Zm-2.88-.06c1.15-15.88-14.08-12.34-12.84,1.44-1.06,14.24,14.33,11.2,12.84-1.44Z"/><path class="cls-37" d="m1087.61,447.45c-.05,24.8-15.17,9.37-15.3,16.2-1.31,7.16,3.05,11.66.66,14.82-7.84,2.6-1.5-63.78.12-40.26-2.37,10.46,11.58-14.91,14.52,9.24Zm-3,.24c-.41-18.7-14.18-1.55-12.3,8.16,6.24,11.22,13.05,1.21,12.3-8.16Z"/><path class="cls-37" d="m1101.23,443.25c-8.18-.66-3.79,12.88-3.9,18.3-6.39,5.7-3.47-15.84-4.08-16.92-4.55,1.09-7.29-3.71.3-3.48.54-2.13-.46-19.37,4.2-10.86-4.13,16.85,6.46,6.15,3.48,12.96Z"/><path class="cls-37" d="m1111.43,438.69c-5.16,11.02,7.17,36.57-8.58,40.44-1.6.46-13.87-4.45-8.71-6.3,25.31,18.35,4.79-35.1,17.28-34.14Zm.36-6.12c-.42,3.09-4.64,2.36-4.92-.96-.01-3.25,5.18-1.62,4.92.96Z"/><path class="cls-37" d="m1132.31,456.21c-17.55,27.97-26.29-31.05-4.14-17.01,9.37,7.82-2.55,17.3-10.26,14.31,1.16,17.15,12.71-2.45,14.4,2.7Zm-4.14-11.04c-1.52-15.04-17.05,4.18-5.58,6.54,3.29.08,5.65-3.38,5.58-6.54Z"/><path class="cls-37" d="m1154.02,462.45c-6.3,2.9-1.02-26.62-7.96-23.76-10.15-.7-5.59,34.73-10.76,20.28,1.24-5.61-2.55-19.46,1.62-22.98,3.52.65-.75,11.17,2.76,5.16,11.34-15.83,16.31,12.05,14.34,21.3Z"/><path class="cls-37" d="m1176.1,425.85c-3.17,11.62-1.7,28.31-1.62,37.32-6.03,1.58-1.71-27.39-2.94-29.7-2.98-2.27,2.25-19.13,4.56-7.62Z"/><path class="cls-37" d="m1210.67,447.45c-.05,24.8-15.17,9.37-15.3,16.2-1.31,7.16,3.05,11.66.66,14.82-7.84,2.6-1.5-63.78.12-40.26-2.37,10.46,11.58-14.91,14.52,9.24Zm-3,.24c-.41-18.7-14.18-1.55-12.3,8.16,6.24,11.22,13.05,1.21,12.3-8.16Z"/><path class="cls-37" d="m1232.68,450.33c1.25,9.82-10.36,19.19-17.04,9.84-10.34-16.97,15.46-37.61,17.04-9.84Zm-2.88-.06c1.15-15.88-14.08-12.34-12.84,1.44-1.06,14.24,14.33,11.2,12.84-1.44Z"/><path class="cls-37" d="m1240.96,438.69c-1.92,6.3-.31,18.13-1.08,23.82-4.54,2.96-5.2-33.15,1.08-23.82Zm1.14-9c.11,3.52-5.11,1.93-4.98-.72-.1-3.4,5.25-2.13,4.98.72Z"/><path class="cls-37" d="m1264.12,462.45c-6.3,2.9-1.02-26.62-7.96-23.76-10.15-.7-5.59,34.73-10.76,20.28,1.24-5.61-2.55-19.46,1.62-22.98,3.52.65-.75,11.17,2.76,5.16,11.34-15.83,16.31,12.05,14.34,21.3Z"/><path class="cls-37" d="m1278.04,443.25c-8.18-.66-3.79,12.88-3.9,18.3-6.39,5.7-3.47-15.84-4.08-16.92-4.55,1.09-7.29-3.71.3-3.48.54-2.13-.46-19.37,4.2-10.86-4.13,16.85,6.46,6.15,3.48,12.96Z"/><path class="cls-37" d="m1285.18,460.89c-.46,2.62-5.64,2.53-5.58-.48-.19-3.34,5.59-2.17,5.58.48Z"/><path class="cls-37" d="m776.2,494.61c.86,16.15-11.03,31.34-25.5,25.62-1.96-9.04-.08-29.56-.48-39.45-.56-2.74,3.61-2.01,3.84-.03-.33,1.29-1.16,4.96-.84,5.82,6.4-15.21,24.72-7.73,22.98,8.04Zm-3.54-.3c-4.47-33.31-25.52-.07-19.8,17.16,5.46,19.76,23.11-5.86,19.8-17.16Z"/><path class="cls-37" d="m796.66,497.31c-2.05,6.45,1.91,19.31-1.98,23.82-18.23-1.12-14.88-2.99-15.12-25.01,8.88-7.31-1.78,21.87,7.38,22.01,10.92,1.1.99-30.79,9.72-20.82Z"/><path class="cls-37" d="m830.44,516.26c-.89,9.71-24.21,1.25-16.2-3.41.62,1.8,6.94,6.29,9.6,5.88,8.44-1.26-5.97-7.42-6.66-8.96-10.02-9,4.34-24.72,11.28-10.96.92,2.65,1.04,12.42-3.84,8.28,5.68-23.62-22.13-5.79,5.82,9.17Z"/><path class="cls-37" d="m854.5,522.09c-7,6.42-18.78-26.59-17.7-5.7.11,1.34,1.96,3.94-.6,4.08-4.97-1-1.5-11.91-2.04-15.6,1.56-3.83-4.12-32.11,3.66-25.5-1.29,3.96-.74,20.33-1.02,25.14,3.45-.22,10.68-10.63,13.85-11.94,6.03,11.22-26.51,4.9,3.85,29.52Z"/><path class="cls-37" d="m870.82,521.49c-1.33,2.1-3.85.29-3.12-2.7-2.94-.02-14.58,4.35-15.54-4.2.74-6.26,10.09-7.59,15.12-6.96.96-4.25.23-10.68-4.56-10.74-5.3-1.1-4.8,10.64-7.74,8.34-4.06-11.27,14.5-15.32,15.66-3.18,0,0,.18,19.44.18,19.44Zm-3.18-9.54c-.71-4.73-12.25-2.19-11.7,2.58.98,6.16,12.04,2.87,11.7-2.58Z"/><path class="cls-37" d="m879.52,519.15c-5.82,12.6-7.08-53.3,0-38.76-1.71,3.53-1.48,24.67-1.5,25.86.22,6.1.31,9.03,1.5,12.9Z"/><path class="cls-37" d="m914.56,482.73c-1.84,3.84-2.63-2.26-5.7-1.5-5.46,2.26-8.61,16.7-.72,17.16.61,2.46-3.87,1.35-5.1,1.98-.09,4.22-.77,13.94.66,19.14-6.64,6.11-3.02-19.69-3.6-19.01.51-.23-4.95.79-4.44-1.32.53-3.39,5.95.19,4.8-4.8-.82-13.41,10.3-22.03,14.1-11.64Z"/><path class="cls-37" d="m926.86,521.49c-1.33,2.1-3.85.29-3.12-2.7-2.94-.02-14.58,4.35-15.54-4.2.74-6.26,10.09-7.59,15.12-6.96.96-4.25.23-10.68-4.56-10.74-5.3-1.1-4.8,10.64-7.74,8.34-4.06-11.27,14.5-15.32,15.66-3.18,0,0,.18,19.44.18,19.44Zm-3.18-9.54c-.71-4.73-12.25-2.19-11.7,2.58.98,6.16,12.04,2.87,11.7-2.58Z"/><path class="cls-37" d="m950.26,520.05c-6.3,2.9-1.02-26.62-7.96-23.76-10.15-.7-5.59,34.73-10.76,20.28,1.24-5.61-2.55-19.46,1.62-22.98,3.52.65-.75,11.17,2.76,5.16,11.34-15.83,16.31,12.05,14.34,21.3Z"/><path class="cls-37" d="m971.8,501.75c-2.47,9.48,0,18.8-1.56,27.54-3.96,12.93-27.53-5.73-11.52,1.5,8.9,3.24,10.58-8.25,8.64-14.1-3.03,4.39-8.71,5.02-12.12,1.2-5.37-12.74,4.18-35.75,16.56-16.14Zm-3.6,3.3c-4.63-23.99-18.97,11.01-7.08,13.68,4.72.1,7.19-9.61,7.08-13.68Z"/><path class="cls-37" d="m992.38,513.81c-17.55,27.97-26.29-31.05-4.14-17.01,9.37,7.82-2.55,17.3-10.26,14.31,1.16,17.15,12.71-2.45,14.4,2.7Zm-4.14-11.04c-1.52-15.04-17.05,4.18-5.58,6.54,3.29.08,5.65-3.38,5.58-6.54Z"/><path class="cls-37" d="m1035.28,520.17c-6.84,2.98-.94-28.1-6.91-24.66-7,3.13-4.22,17.5-5.33,23.16-6.43,1.13-1.13-14.7-3.66-18.48-2.93-10.64-9.36,7.35-8.52,12.12-.14,1.98,2.08,10.02-2.28,7.2-2.47-3.25-.09-38.11,2.1-20.88-1.21,9.34,2.26-5.98,6-4.86,3.03-1.83,5.09,10.77,6.9,3.72,9.94-15.97,13.24,14.59,11.7,22.68Z"/><path class="cls-37" d="m1044.04,496.29c-1.92,6.3-.31,18.13-1.08,23.82-4.54,2.96-5.2-33.15,1.08-23.82Zm1.14-9c.11,3.52-5.11,1.93-4.98-.72-.1-3.4,5.25-2.13,4.98.72Z"/><path class="cls-37" d="m1067.2,520.05c-6.3,2.9-1.02-26.62-7.96-23.76-10.15-.7-5.59,34.73-10.76,20.28,1.24-5.61-2.55-19.46,1.62-22.98,3.52.65-.75,11.17,2.76,5.16,11.34-15.83,16.31,12.05,14.34,21.3Z"/><path class="cls-37" d="m1089.22,481.6c-.85,9.46-3.35,30.13-.72,39.18-7.89.72,2-7.67-10.5-.3-12.78.02-8.25-25.55.42-27.12,10.16,5.97,5.67-.08,6.84-14.16,1.55-1.29,4.08.54,3.96,2.4Zm-4.5,22.2c-3.62-21.38-19.37,11.45-7.08,14.64,5.46-.09,7.07-9.64,7.08-14.64Z"/><path class="cls-37" d="m1109.68,516.26c-.88,10.06-24.97.6-15.84-3.41-.1,2.39,7.13,6.11,9.24,5.88,8.44-1.26-5.97-7.42-6.66-8.96-10.02-9,4.34-24.72,11.28-10.96.92,2.65,1.04,12.42-3.84,8.28,5.68-23.62-22.13-5.79,5.82,9.17Z"/><path class="cls-37" d="m1122.64,500.85c-8.18-.66-3.79,12.88-3.9,18.3-6.39,5.7-3.47-15.84-4.08-16.92-4.55,1.09-7.29-3.71.3-3.48.54-2.13-.46-19.37,4.2-10.86-4.13,16.85,6.46,6.15,3.48,12.96Z"/><path class="cls-37" d="m1145.5,483.45c-3.17,11.62-1.7,28.31-1.62,37.32-6.03,1.58-1.71-27.39-2.94-29.7-2.98-2.27,2.25-19.13,4.56-7.62Z"/><path class="cls-37" d="m1180,498.39c2.55,24.36-31.33,30.69-30.9,3.84-1.89-24.24,31.38-31.98,30.9-3.84Zm-3-.24c0-29.39-30.98-11.58-24.36,9.24,5.58,18.28,26.96,7.43,24.36-9.24Z"/><path class="cls-37" d="m1214.74,482.73c-1.84,3.84-2.63-2.26-5.7-1.5-5.46,2.26-8.61,16.7-.72,17.16.61,2.46-3.87,1.35-5.1,1.98-.1,4.22-.77,13.94.66,19.14-6.64,6.11-3.02-19.69-3.6-19.01.51-.22-4.95.79-4.44-1.32.53-3.39,5.95.19,4.8-4.8-.82-13.41,10.3-22.03,14.1-11.64Z"/><path class="cls-37" d="m1216.12,496.29c-1.92,6.3-.31,18.13-1.08,23.82-4.54,2.96-5.2-33.15,1.08-23.82Zm1.14-9c.11,3.52-5.11,1.93-4.98-.72-.1-3.4,5.25-2.13,4.98.72Z"/><path class="cls-37" d="m1236.76,516.26c-.88,10.06-24.97.6-15.84-3.41-.1,2.39,7.13,6.11,9.24,5.88,8.44-1.26-5.97-7.42-6.66-8.96-10.02-9,4.34-24.72,11.28-10.96.92,2.65,1.04,12.42-3.84,8.28,5.68-23.62-22.13-5.79,5.82,9.17Z"/><path class="cls-37" d="m1260.82,522.09c-7,6.42-18.78-26.59-17.7-5.7.11,1.34,1.96,3.94-.6,4.08-4.97-1-1.5-11.91-2.04-15.6,1.56-3.83-4.12-32.11,3.66-25.5-1.29,3.97-.74,20.33-1.02,25.14,3.45-.22,10.68-10.63,13.85-11.94,6.02,11.22-26.51,4.9,3.85,29.52Z"/><path class="cls-37" d="m790.19,540.33c-1.84,3.84-2.63-2.26-5.7-1.5-5.46,2.26-8.61,16.7-.72,17.16.61,2.46-3.87,1.36-5.1,1.98-.09,4.22-.77,13.94.66,19.14-6.64,6.11-3.02-19.68-3.6-19.01.51-.23-4.95.79-4.44-1.32.53-3.39,5.95.19,4.8-4.8-.82-13.41,10.31-22.03,14.1-11.64Z"/><path class="cls-37" d="m806.93,565.53c1.42,13.01-12.82,14.47-18.66,15.3,3.44-6.01-5.28-28.05,9.3-29.82,4.57,2.96,4.1-1.15,8.03-2.4-2.66,11.38-.15,3.09,1.33,16.92Zm-6.04-10.31c-6.29-4.07-9.98,6.42-9.68,11.71.29,13.87,5.2-3.5,9.68-11.71Zm3.16,10.25c2.51-19.57-13.42,8.76-6.91,11.34,5.16,0,6.93-6.66,6.91-11.34Z"/><path class="cls-37" d="m822.95,555.99c-1.85,6.42-2.5-3.26-5.52-2.16-7.05,1.95-1.87,21.62-5.46,23.7-4.11.44-2.92-36.81,1.56-21.96,2.51-6.08,7.88-4.76,9.42.42Z"/><path class="cls-37" d="m851.15,558.45c-8.18-.66-3.79,12.88-3.9,18.3-6.39,5.7-3.47-15.84-4.08-16.92-4.55,1.09-7.29-3.71.3-3.48.55-2.13-.46-19.37,4.2-10.86-4.13,16.85,6.46,6.15,3.48,12.96Z"/><path class="cls-37" d="m859.25,553.89c-1.91,6.3-.31,18.13-1.08,23.82-4.54,2.96-5.2-33.15,1.08-23.82Zm1.14-9c.11,3.52-5.11,1.93-4.98-.72-.1-3.4,5.25-2.13,4.98.72Z"/><path class="cls-37" d="m882.41,539.2c-.86,9.46-3.35,30.13-.72,39.18-7.89.72,2-7.67-10.5-.3-12.78.02-8.25-25.55.42-27.12,10.16,5.97,5.67-.08,6.84-14.16,1.55-1.29,4.08.54,3.96,2.4Zm-4.5,22.2c-3.62-21.38-19.37,11.44-7.08,14.64,5.46-.09,7.07-9.64,7.08-14.64Z"/><path class="cls-37" d="m902.99,571.41c-17.55,27.97-26.29-31.05-4.14-17.01,9.37,7.82-2.55,17.3-10.26,14.31,1.16,17.15,12.7-2.45,14.4,2.7Zm-4.14-11.04c-1.52-15.04-17.05,4.18-5.58,6.54,3.29.08,5.65-3.38,5.58-6.54Z"/><path class="cls-37" d="m924.7,577.65c-6.3,2.9-1.02-26.62-7.96-23.76-10.15-.7-5.59,34.73-10.76,20.28,1.24-5.61-2.55-19.46,1.62-22.98,3.52.65-.75,11.17,2.76,5.16,11.34-15.83,16.31,12.05,14.34,21.3Z"/><path class="cls-37" d="m957.94,571.41c-17.55,27.97-26.29-31.05-4.14-17.01,9.37,7.82-2.55,17.3-10.26,14.31,1.16,17.15,12.7-2.45,14.4,2.7Zm-4.14-11.04c-1.52-15.04-17.05,4.18-5.58,6.54,3.29.08,5.65-3.38,5.58-6.54Z"/><path class="cls-37" d="m973.96,555.99c-1.85,6.42-2.5-3.26-5.52-2.16-7.05,1.95-1.87,21.62-5.46,23.7-4.11.44-2.92-36.81,1.56-21.96,2.51-6.08,7.88-4.76,9.42.42Z"/><path class="cls-37" d="m1008.16,559.35c-2.47,9.48,0,18.8-1.56,27.54-3.96,12.93-27.53-5.73-11.52,1.5,8.9,3.24,10.58-8.24,8.64-14.1-3.03,4.38-8.71,5.02-12.12,1.2-5.37-12.74,4.18-35.75,16.56-16.14Zm-3.6,3.3c-4.63-23.99-18.97,11.01-7.08,13.68,4.72.1,7.19-9.61,7.08-13.68Z"/><path class="cls-37" d="m1029.52,579.09c-1.33,2.1-3.85.29-3.12-2.7-2.94-.02-14.58,4.35-15.54-4.2.74-6.26,10.09-7.59,15.12-6.96.96-4.25.23-10.68-4.56-10.74-5.3-1.1-4.8,10.64-7.74,8.34-4.06-11.27,14.5-15.32,15.66-3.18,0,0,.18,19.44.18,19.44Zm-3.18-9.54c-.71-4.73-12.25-2.19-11.7,2.58.98,6.16,12.04,2.87,11.7-2.58Zm-1.8-22.98c.04,4.42-6.88,4.42-6.84,0-.04-4.42,6.88-4.42,6.84,0Zm-1.2,0c.03-2.87-4.47-2.87-4.44,0-.03,2.87,4.47,2.87,4.44,0Z"/><path class="cls-37" d="m1049.8,571.41c-17.55,27.97-26.29-31.05-4.14-17.01,9.37,7.82-2.55,17.3-10.26,14.31,1.16,17.15,12.71-2.45,14.4,2.7Zm-4.14-11.04c-1.52-15.04-17.05,4.18-5.58,6.54,3.29.08,5.65-3.38,5.58-6.54Z"/><path class="cls-37" d="m1063.12,558.45c-8.18-.66-3.79,12.88-3.9,18.3-6.39,5.7-3.47-15.84-4.08-16.92-4.55,1.09-7.29-3.71.3-3.48.54-2.13-.46-19.37,4.2-10.86-4.13,16.85,6.46,6.15,3.48,12.96Z"/><path class="cls-37" d="m1070.26,576.09c-.46,2.62-5.64,2.53-5.58-.48-.19-3.34,5.59-2.17,5.58.48Z"/><path class="cls-37" d="m796.99,728.01c4.41,23.99-25.84,34.46-23.1,4.68,2.06-5.66-3.61-23.27,4.68-22.5.39,9.61-2.33,19.75-1.38,27.28-.5,13.69,14.08,15.87,15.72-.84,2.36-5.77-.72-21.78,1.55-27.88,4.86-1.01,1.65,17.43,2.52,19.26Z"/><path class="cls-37" d="m819.61,750.45c-6.3,2.9-1.02-26.62-7.96-23.76-10.15-.7-5.59,34.73-10.76,20.28,1.24-5.61-2.55-19.46,1.62-22.98,3.52.65-.75,11.17,2.76,5.16,11.34-15.83,16.31,12.05,14.34,21.3Z"/><path class="cls-37" d="m841.63,712c-.86,9.46-3.35,30.13-.72,39.18-7.89.72,2-7.67-10.5-.3-12.78.02-8.25-25.55.42-27.12,10.16,5.97,5.67-.08,6.84-14.16,1.55-1.29,4.08.54,3.96,2.4Zm-4.5,22.2c-3.62-21.38-19.37,11.44-7.08,14.64,5.46-.09,7.07-9.64,7.08-14.64Z"/><path class="cls-37" d="m862.21,732.15c-2.47,9.48,0,18.8-1.56,27.54-3.96,12.93-27.53-5.73-11.52,1.5,8.9,3.24,10.58-8.24,8.64-14.1-3.03,4.38-8.71,5.02-12.12,1.2-5.37-12.74,4.18-35.75,16.56-16.14Zm-3.6,3.3c-4.63-23.99-18.97,11.01-7.08,13.68,4.72.1,7.19-9.61,7.08-13.68Z"/><path class="cls-37" d="m883.57,751.89c-1.33,2.1-3.85.29-3.12-2.7-2.94-.02-14.58,4.35-15.54-4.2.74-6.26,10.09-7.59,15.12-6.96.96-4.25.23-10.68-4.56-10.74-5.3-1.1-4.8,10.64-7.74,8.34-4.06-11.27,14.5-15.32,15.66-3.18,0,0,.18,19.44.18,19.44Zm-3.18-9.54c-.71-4.73-12.25-2.19-11.7,2.58.98,6.16,12.04,2.87,11.7-2.58Zm-1.8-22.98c.04,4.42-6.88,4.42-6.84,0-.04-4.42,6.88-4.42,6.84,0Zm-1.2,0c.03-2.87-4.47-2.87-4.44,0-.03,2.87,4.47,2.87,4.44,0Z"/><path class="cls-37" d="m911.47,731.25c-8.18-.66-3.79,12.88-3.9,18.3-6.39,5.7-3.47-15.84-4.08-16.92-4.55,1.09-7.29-3.71.3-3.48.55-2.13-.46-19.37,4.2-10.86-4.13,16.85,6.46,6.15,3.48,12.96Z"/><path class="cls-37" d="m919.57,726.69c-1.91,6.3-.31,18.13-1.08,23.82-4.54,2.96-5.2-33.15,1.08-23.82Zm1.14-9c.11,3.52-5.11,1.93-4.98-.72-.1-3.4,5.25-2.13,4.98.72Z"/><path class="cls-37" d="m928.15,749.55c-6.1,10.37-5.61-41.66-2.52-40.8,4.92.88-.78,26.08,1.02,27.9.22,6.11.32,9.03,1.5,12.9Z"/><path class="cls-37" d="m962.47,751.89c-1.33,2.1-3.85.29-3.12-2.7-2.94-.02-14.58,4.35-15.54-4.2.74-6.26,10.09-7.59,15.12-6.96.96-4.25.23-10.68-4.56-10.74-5.3-1.1-4.8,10.64-7.74,8.34-4.06-11.28,14.5-15.32,15.66-3.18,0,0,.18,19.44.18,19.44Zm-3.18-9.54c-.71-4.73-12.25-2.19-11.7,2.58.98,6.16,12.04,2.87,11.7-2.58Z"/><path class="cls-37" d="m976.93,731.25c-8.18-.66-3.79,12.88-3.9,18.3-6.39,5.7-3.47-15.84-4.08-16.92-4.55,1.09-7.29-3.71.3-3.48.55-2.13-.46-19.37,4.2-10.86-4.13,16.85,6.46,6.15,3.48,12.96Z"/><path class="cls-37" d="m1014.43,752.49c-7,6.42-18.78-26.59-17.7-5.7.11,1.34,1.96,3.94-.6,4.08-4.97-1-1.5-11.91-2.04-15.6,1.56-3.83-4.12-32.11,3.66-25.5-1.29,3.96-.74,20.33-1.02,25.14,3.45-.22,10.68-10.63,13.85-11.94,6.02,11.22-26.51,4.9,3.85,29.52Z"/><path class="cls-37" d="m1020.19,749.55c-6.1,10.37-5.61-41.66-2.52-40.8,4.92.88-.78,26.08,1.02,27.9.22,6.11.32,9.03,1.5,12.9Z"/><path class="cls-37" d="m1027.99,726.69c-1.91,6.3-.31,18.13-1.08,23.82-4.54,2.96-5.2-33.15,1.08-23.82Zm1.14-9c.11,3.52-5.11,1.93-4.98-.72-.1-3.4,5.25-2.13,4.98.72Z"/><path class="cls-37" d="m1053.19,752.49c-7,6.42-18.78-26.59-17.7-5.7.11,1.34,1.96,3.94-.6,4.08-4.97-1-1.5-11.91-2.04-15.6,1.56-3.83-4.12-32.11,3.66-25.5-1.29,3.97-.74,20.33-1.02,25.14,3.45-.22,10.68-10.63,13.85-11.94,6.02,11.22-26.51,4.9,3.85,29.52Z"/><path class="cls-37" d="m1076.05,752.49c-7,6.42-18.78-26.59-17.7-5.7.11,1.34,1.96,3.94-.6,4.08-4.97-1-1.5-11.91-2.04-15.6,1.56-3.83-4.12-32.11,3.66-25.5-1.29,3.97-.74,20.33-1.02,25.14,3.45-.22,10.68-10.63,13.85-11.94,6.02,11.22-26.51,4.9,3.85,29.52Z"/><path class="cls-37" d="m1092.01,744.21c-17.55,27.97-26.29-31.05-4.14-17.01,9.37,7.82-2.55,17.3-10.26,14.31,1.16,17.15,12.71-2.45,14.4,2.7Zm-4.14-11.04c-1.52-15.04-17.05,4.18-5.58,6.54,3.29.08,5.65-3.38,5.58-6.54Z"/><path class="cls-37" d="m780.18,793.05c-.05,24.8-15.17,9.37-15.3,16.2-1.31,7.16,3.05,11.66.66,14.82-7.84,2.6-1.5-63.77.12-40.26-2.37,10.46,11.58-14.91,14.52,9.24Zm-3,.24c-.41-18.7-14.18-1.55-12.3,8.16,6.24,11.22,13.05,1.21,12.3-8.16Z"/><path class="cls-37" d="m801.54,809.49c-1.33,2.1-3.85.29-3.12-2.7-2.94-.02-14.58,4.35-15.54-4.2.74-6.26,10.09-7.59,15.12-6.96.96-4.25.23-10.68-4.56-10.74-5.3-1.1-4.8,10.64-7.74,8.34-4.06-11.27,14.5-15.32,15.66-3.18,0,0,.18,19.44.18,19.44Zm-3.18-9.54c-.71-4.73-12.25-2.19-11.7,2.58.98,6.16,12.04,2.87,11.7-2.58Zm-1.8-22.98c.04,4.42-6.88,4.42-6.84,0-.04-4.42,6.88-4.42,6.84,0Zm-1.2,0c.03-2.87-4.47-2.87-4.44,0-.03,2.87,4.47,2.87,4.44,0Z"/><path class="cls-37" d="m834.48,801.81c-17.55,27.97-26.29-31.05-4.14-17.01,9.37,7.82-2.55,17.3-10.26,14.31,1.16,17.15,12.7-2.45,14.4,2.7Zm-4.14-11.04c-1.52-15.04-17.05,4.18-5.58,6.54,3.29.08,5.65-3.38,5.58-6.54Z"/><path class="cls-37" d="m856.19,808.05c-6.3,2.9-1.02-26.62-7.96-23.76-10.15-.7-5.59,34.73-10.76,20.28,1.24-5.61-2.55-19.46,1.62-22.98,3.52.65-.75,11.17,2.76,5.16,11.34-15.83,16.31,12.05,14.34,21.3Z"/><path class="cls-37" d="m890.27,804.26c-.88,10.06-24.97.6-15.84-3.41-.1,2.39,7.13,6.11,9.24,5.88,8.44-1.26-5.97-7.42-6.66-8.96-10.02-9,4.34-24.71,11.28-10.96.92,2.65,1.04,12.42-3.84,8.28,5.68-23.62-22.13-5.78,5.82,9.17Z"/><path class="cls-37" d="m911.27,793.05c-.05,24.8-15.17,9.37-15.3,16.2-1.31,7.16,3.05,11.66.66,14.82-7.84,2.6-1.5-63.77.12-40.26-2.37,10.46,11.58-14.91,14.52,9.24Zm-3,.24c-.41-18.7-14.18-1.55-12.3,8.16,6.24,11.22,13.05,1.21,12.3-8.16Z"/><path class="cls-37" d="m947.21,801.81c-4.17,11.98-17.21,2.02-25.14,6.48-16.21-1.88-3.43-15.95,7.02-12.66,3.59-11.5-10.1-14.35-10.5-2.45-3.29,2.71-2.77-5.45-.6-7.39,3.06-6.25,11.38-3.12,13.8,1.44,3.96-13.68,21.46,2.96,11.7,9.84-3.05,3.06-6.89,3.21-10.5,1.56-2.61,3,1.57,8.01,4.92,7.38,3.84,1.66,7.7-9.48,9.3-4.2Zm-17.76-1.86c-.71-4.73-12.25-2.19-11.7,2.58.98,6.16,12.04,2.87,11.7-2.58Zm13.62-9.18c-.38-9.96-10.63-4.6-10.08,2.64,1.08,6.87,10.86,3.54,10.08-2.64Z"/><path class="cls-37" d="m970.97,810.09c-7,6.42-18.78-26.59-17.7-5.7.11,1.34,1.96,3.94-.6,4.08-4.97-1-1.5-11.91-2.04-15.6,1.56-3.83-4.12-32.11,3.66-25.5-1.29,3.96-.74,20.33-1.02,25.14,3.45-.22,10.68-10.63,13.85-11.94,6.02,11.22-26.51,4.9,3.85,29.52Z"/><path class="cls-37" d="m988.97,809.37c-7.79.57.76-34.51-11.83-21.3-3.71,2.9,1.88,28.83-4.79,17.45,1.02-1.63-1.58-38.85,1.44-38.75,6.71,4.36-.3,8.82,1.93,18.42,14.16-8.99,13.96,15.23,13.26,24.18Z"/><path class="cls-37" d="m1010.15,785.31c-2.05,6.45,1.91,19.31-1.98,23.82-18.23-1.12-14.88-2.99-15.12-25.01,8.88-7.31-1.78,21.87,7.38,22.01,10.92,1.1.99-30.79,9.72-20.82Z"/><path class="cls-37" d="m1031.39,789.75c-2.46,9.48,0,18.8-1.56,27.54-3.96,12.93-27.53-5.73-11.52,1.5,8.9,3.24,10.58-8.24,8.64-14.1-3.03,4.38-8.71,5.02-12.12,1.2-5.37-12.74,4.18-35.75,16.56-16.14Zm-3.6,3.3c-4.63-23.99-18.97,11.01-7.08,13.68,4.72.1,7.19-9.61,7.08-13.68Z"/><path class="cls-37" d="m1052.93,789.75c-2.47,9.48,0,18.8-1.56,27.54-3.96,12.93-27.53-5.73-11.52,1.5,8.9,3.24,10.59-8.24,8.64-14.1-3.03,4.38-8.71,5.02-12.12,1.2-5.37-12.74,4.18-35.75,16.56-16.14Zm-3.6,3.3c-4.63-23.99-18.97,11.01-7.08,13.68,4.72.1,7.19-9.61,7.08-13.68Z"/><path class="cls-37" d="m1073.51,801.81c-17.55,27.97-26.29-31.05-4.14-17.01,9.37,7.82-2.55,17.3-10.26,14.31,1.16,17.15,12.71-2.45,14.4,2.7Zm-4.14-11.04c-1.52-15.04-17.05,4.18-5.58,6.54,3.29.08,5.65-3.38,5.58-6.54Z"/><path class="cls-37" d="m1089.53,786.39c-1.85,6.41-2.5-3.26-5.52-2.16-7.05,1.95-1.87,21.62-5.46,23.7-4.11.44-2.92-36.81,1.56-21.96,2.51-6.09,7.88-4.76,9.42.42Z"/><path class="cls-37" d="m1097.81,806.49c-.46,2.62-5.64,2.53-5.58-.48-.19-3.34,5.59-2.17,5.58.48Z"/><path class="cls-37" d="m806.06,840.21c.86,16.15-11.03,31.33-25.5,25.62-1.96-9.04-.08-29.56-.48-39.45-.56-2.74,3.61-2.01,3.84-.03-.33,1.29-1.16,4.96-.84,5.82,6.4-15.21,24.72-7.73,22.98,8.04Zm-3.54-.3c-4.47-33.3-25.52-.07-19.8,17.16,5.46,19.76,23.11-5.86,19.8-17.16Z"/><path class="cls-37" d="m826.94,859.41c-17.55,27.97-26.29-31.05-4.14-17.01,9.37,7.82-2.55,17.3-10.26,14.31,1.16,17.15,12.7-2.45,14.4,2.7Zm-4.14-11.04c-1.52-15.04-17.05,4.18-5.58,6.54,3.29.08,5.65-3.38,5.58-6.54Z"/><path class="cls-37" d="m840.26,846.45c-8.18-.66-3.79,12.88-3.9,18.3-6.39,5.7-3.47-15.84-4.08-16.92-4.55,1.09-7.29-3.71.3-3.48.55-2.13-.46-19.37,4.2-10.86-4.13,16.85,6.46,6.15,3.48,12.96Z"/><path class="cls-37" d="m874.88,841.47c.02,36.14-20.94,24.89-16.68-1.92,4.39,3.65,1.88,17.91,8.16,22.5,5.43,1.15,3.33-29.03,8.52-20.58Z"/><path class="cls-37" d="m883.16,841.89c-1.91,6.3-.31,18.13-1.08,23.82-4.54,2.96-5.2-33.15,1.08-23.82Zm1.14-9c.11,3.52-5.11,1.93-4.98-.72-.1-3.4,5.25-2.13,4.98.72Z"/><path class="cls-37" d="m891.73,864.75c-6.1,10.37-5.61-41.66-2.52-40.8,4.92.88-.78,26.08,1.02,27.9.22,6.11.32,9.03,1.5,12.9Z"/><path class="cls-37" d="m928.46,867.69c-7,6.42-18.78-26.59-17.7-5.7.11,1.34,1.96,3.94-.6,4.08-4.97-1-1.5-11.91-2.04-15.6,1.56-3.83-4.12-32.11,3.66-25.5-1.29,3.96-.74,20.33-1.02,25.14,3.45-.22,10.68-10.63,13.85-11.94,6.02,11.22-26.51,4.9,3.85,29.52Z"/><path class="cls-37" d="m946.33,853.53c1.25,9.82-10.36,19.19-17.04,9.84-10.34-16.97,15.46-37.61,17.04-9.84Zm-2.88-.06c1.15-15.88-14.08-12.34-12.84,1.44-1.06,14.24,14.33,11.2,12.84-1.44Z"/><path class="cls-37" d="m967.27,861.86c-.88,10.06-24.97.6-15.84-3.41-.1,2.39,7.13,6.11,9.24,5.88,8.44-1.26-5.97-7.42-6.66-8.96-10.02-9,4.34-24.71,11.28-10.96.92,2.65,1.04,12.42-3.84,8.28,5.68-23.62-22.13-5.78,5.82,9.17Z"/><path class="cls-37" d="m980.23,846.45c-8.18-.66-3.79,12.88-3.9,18.3-6.39,5.7-3.47-15.84-4.08-16.92-4.55,1.09-7.29-3.71.3-3.48.55-2.13-.46-19.37,4.2-10.86-4.13,16.85,6.46,6.15,3.48,12.96Z"/><path class="cls-37" d="m999.38,859.41c-17.55,27.97-26.29-31.05-4.14-17.01,9.37,7.82-2.55,17.3-10.26,14.31,1.16,17.15,12.7-2.45,14.4,2.7Zm-4.14-11.04c-1.52-15.04-17.05,4.18-5.58,6.54,3.29.08,5.65-3.38,5.58-6.54Z"/><path class="cls-37" d="m1015.39,843.99c-1.85,6.42-2.5-3.26-5.52-2.16-7.05,1.95-1.87,21.62-5.46,23.7-4.11.44-2.92-36.81,1.56-21.96,2.51-6.08,7.88-4.76,9.42.42Z"/><path class="cls-37" d="m1049.89,827.2c-.85,9.46-3.35,30.13-.72,39.18-7.89.72,2-7.67-10.5-.3-12.78.02-8.25-25.54.42-27.12,10.16,5.97,5.67-.08,6.84-14.16,1.55-1.29,4.08.54,3.96,2.4Zm-4.5,22.2c-3.3-18.42-15.31,3.72-10.5,12.12,5.96,8.56,11.27-6.26,10.5-12.12Z"/><path class="cls-37" d="m1057.69,841.89c-1.92,6.3-.31,18.13-1.08,23.82-4.54,2.96-5.2-33.15,1.08-23.82Zm1.14-9c.11,3.52-5.11,1.93-4.98-.72-.1-3.4,5.25-2.13,4.98.72Z"/><path class="cls-37" d="m1079.41,847.35c-2.47,9.48,0,18.8-1.56,27.54-3.96,12.93-27.53-5.73-11.52,1.5,8.9,3.24,10.59-8.24,8.64-14.1-3.03,4.38-8.71,5.02-12.12,1.2-5.37-12.74,4.18-35.75,16.56-16.14Zm-3.6,3.3c-4.63-23.99-18.97,11.01-7.08,13.68,4.72.1,7.19-9.61,7.08-13.68Z"/><path class="cls-37" d="m1099.25,854.5c-.19,8.81,9.3,9.18,14.4,6.86,1.33,9.56-21.42,3.44-18.43-7.25,2.52-30.67,43.45,5.84,4.03.38Zm12.38-3.02c1.17-8.73-12.53-8.63-12.34,0,0,0,12.34,0,12.34,0Z"/><path class="cls-37" d="m1126.03,835.45c-1.9,13.2,6.86,1.5,6.05,9.89,0,0-6.05,0-6.05,0,.86,4.14-3.18,20.14,5.62,16.75.52,2.93.07,3.96-3.55,3.75-12.45,1.14-.42-22-9.79-20.5-.48-3.4.54-3.45,3.6-3.22-.13-3.94-.77-6.29,4.13-6.67Z"/><path class="cls-37" d="m1149.44,864.75c-6.1,10.37-5.61-41.66-2.52-40.8,4.92.88-.78,26.08,1.02,27.9.22,6.11.31,9.03,1.5,12.9Z"/><path class="cls-37" d="m1157.24,841.89c-1.92,6.3-.31,18.13-1.08,23.82-4.54,2.96-5.2-33.15,1.08-23.82Zm1.14-9c.11,3.52-5.11,1.93-4.98-.72-.1-3.4,5.25-2.13,4.98.72Z"/><path class="cls-37" d="m1178.6,841.47c.02,36.14-20.94,24.89-16.68-1.92,4.39,3.65,1.88,17.91,8.16,22.5,5.43,1.15,3.33-29.03,8.52-20.58Z"/><path class="cls-37" d="m1183.56,862.76c-.41-4.29,6.34-4.27,5.95,0,.36,4.3-6.34,4.32-5.95,0Zm1.63-7.06l-1.2-24.62h5.14c-1.29,1.1,1.61,28.4-3.94,24.62Z"/><path class="cls-19" d="m928.35,615.43c.28,16.4,19.96,20.77,20.14,32.97.23,15.53-31.48,24.35-28.99,33.1,1.13,3.99,8.99,6.62,15.36,5.21,16.06-3.56,16.39-31.49,27.3-32.61,12.76-1.3,23.56,35.74,30.94,33.6,3.39-.98,5.23-10,2.4-16.21-5.79-9.7-37.96-21.28-17-37,19.6-18.71,33.98-37.7,7.29-27.11-17.24,7.91-16.89,25.75-25.07,26.43-13.43.96-28.63-53-32.37-18.39Z"/></g><g id="fish_regler"><g id="yellow_fish-2"><path class="cls-8" d="m1119.2,348.17c7.44-19.21,32.8-31.82,25.89-7.48-13.8,23.65-16.58.94-1.72,25.89,9.01,39.4-35.93-3.08-24.16-18.41Z"/><path class="cls-8" d="m1078.36,375.78c-4.52,8.27,19,22.18,24.16,13.8,1.71-9.26-20.47-19.32-24.16-13.8Z"/><path class="cls-8" d="m1070.3,296.8c.79.21,1.37,1.23,1.73,3.04,4.42,2.59,3.16-.21,5.18,4.03,10.19,1.31,1.39,4.25,10.93,3.45-1.72,7.56,2.1-.36,5.75,5.18,3.37.27,3.85-1.03,2.88,2.3,6.38,1.44,4.14,6.77,12.08,5.18.69.85-1.1,4.05-9.2,12.66-14.19-5.18-28.38-10.35-42.57-15.53,6.4-14.18,10.81-20.95,13.22-20.3Z"/><path class="cls-6" d="m1007.02,349.89c1.48-2.99,15.1-29.48,44.49-34.64,25.79-4.52,52.93,9.29,66.54,34.64-.19,1.92-.38,3.84-.58,5.75-25.41,44.45-80.44,44.15-109.3,10.36-.26.13-3.59,1.76-6.33,0-2.92-1.13-3.25-7.32,2.3-6.33-6.6-1.56-7.42-11.86,2.88-9.78Z"/><path class="cls-8" d="m1039.81,382.11c-3.79,10.16,18.94,23.25,25.89,13.81,6.72-14.1-20.67-23.89-25.89-13.81Z"/><path class="cls-7" d="m1027.16,338.39c-.64,12.08-13.3,11.67-14.38,0-.06-11.63,14.46-11.73,14.38,0Z"/><path class="cls-31" d="m1020.26,340.69c.05,4.48-5.22,4.48-5.18,0-.05-4.48,5.22-4.48,5.18,0Z"/><path class="cls-27" d="m1017.67,340.69c.02,1.12-1.74,1.12-1.73,0-.02-1.12,1.74-1.12,1.73,0Z"/><path class="cls-31" d="m1014.79,348.46c2.81-2.07,8.5-2.36,11.51-.59-.08.04-.42-.29-.71-.22-3.54-.53-7.46-.62-10.8.8h0Z"/><path class="cls-31" d="m1030.61,364.25c3.7-.37,11.09-10.68,10.28-14.33,0,0,.15-.06.15-.06,1.61,4.03-6.21,14.8-10.43,14.39h0Z"/><path class="cls-31" d="m1070.3,335.49c5.86-2.67,5.37-11.78-.72-13.84,0,0,.04-.16.04-.16,6.99,1.31,7.47,12.2.67,14h0Z"/><path class="cls-31" d="m1070.18,356.97c5.86-2.67,5.37-11.78-.72-13.84,0,0,.04-.16.04-.16,6.99,1.31,7.47,12.2.67,14h0Z"/><path class="cls-31" d="m1070.18,378.26c5.86-2.67,5.37-11.78-.72-13.84,0,0,.04-.16.04-.16,6.99,1.31,7.47,12.2.67,14h0Z"/><path class="cls-31" d="m1085.71,346.62c5.86-2.67,5.37-11.78-.72-13.84,0,0,.04-.16.04-.16,6.99,1.31,7.47,12.2.67,14h0Z"/><path class="cls-31" d="m1085.71,369.63c5.86-2.67,5.37-11.78-.72-13.84,0,0,.04-.16.04-.16,6.99,1.31,7.47,12.2.67,14h0Z"/><path class="cls-31" d="m1100.67,359.28c5.86-2.67,5.37-11.78-.72-13.84,0,0,.04-.16.04-.16,6.99,1.31,7.47,12.2.67,14h0Z"/></g></g><g id="Layer_7"><path class="cls-22" d="m867.13,346.6c10.77,13.36,18.16,40.91,36.14,34.74,18.22-16.92,32.57-66.6,36.23-82.84-19.56-2.7-18.13,11.34-24.89,34.01-3.03,10.34-15.52,48.02-29.06,26.29-6.43-12.9-4.67-21.5-18.42-12.2Z"/></g><g id="orca_regler"><path id="white_spot" class="cls-27" d="m1164.77,660.83c-1.67,13.2,19.78,11.32,27.5,11.95,6.34,1,9.67,2.49,13.77,5.08,29.36,10.75-28.4-29.55-41.27-17.02Z"/><path id="black_body" class="cls-31" d="m1202.18,651.85c-31.21-10.03-46.95-9.18-79.19-7.47-7.96.37-16.97.47-24.63,3.82-.61.27-.78,1.07-.34,1.57,8.08,9.36,17.95,16.26,28.81,22.22,13.84,5.05,29.76,6.31,41.56,15.81,12.81,9.32,27.16,15.92,41.09,23.33,37.94,18.34,74.61,62.61,67.12,106.21-6.35,5.03-11.76,4.3-20.04,6.28-7.37,1.75-17.75,3.32-24.45,8.45-7.54,5.78-11.04,14.56-15.49,22.66-.28,9.92,13.42,2.81,20.6-1.35.86-.48,1.81.44,1.37,1.33-3.55,7.25,6.6,2.39,11.1.14,3.9-3.87,5.53-9.63,10.27-12.65,5.66-1.12,10.29-2.88,14.63-6.62.4-.35,1.01-.33,1.38.05,13.07,13.46,11.12,5.19,26.74,6.63.39.04.73.31.85.68,1.36,3.99,3.39,7.22,6.33,10.17,1.13.99,1.89-.62,2.29-1.53,3.62-3.24-.55,8.88,12.22,10.44.59.08,1.14-.35,1.16-.95.9-25.07-4.22-47.42-33.9-46.56-.58.02-1.06-.45-1.04-1.04.92-19.06-.83-57.66-2.86-75.01.58,1.58,1.18,3.1,2.04,4.53.19.32.55.49.92.47.54-.04,1.18.03,1.41.6,4.49,9.86,14.75,13.93,23.03,20.34.78.6,1.86-.14,1.57-1.08-4.65-14.99-23.94-40.67-36.69-46.01-11.87-24.27-73-50.85-33.92-40.01.58.16,1.17-.22,1.26-.82,1.15-7.59,2.47-1.61,3.19,3.3.06.42.38.74.79.83,10.57,2.16,18.92,7.28,26.64,14.55.65.61,1.73.11,1.68-.78-1.7-36.74-46.47-51.27-77.51-42.54Zm-58.3,12c-1.29-1.45-2.71-2.62-4.33-3.57-2.64-3.28,6.41-1.47,7.79-1.07.71.19,1,1.04.53,1.61-1.08.84-2.42,4.33-3.99,3.03Zm69.03,13.9c.57.67.05,1.68-.83,1.65-5.94-.25-9.5-4.79-15.53-6.25-11.52-2.79-20.65,1.2-30.65-7.01-3.82-18.39,39.13,2.03,47.01,11.61Z"/><path id="white_body" class="cls-27" d="m1279.85,816.79c-6.86-73.27-45.62-97.15-108.17-126.47-.71-.33-1.51.25-1.42,1.03,1.19,9.46-5.13,11.05-14.12,9.5-9.26-5.89-19.36-11.8-28.35-17.81-12.15-8.11-22.9-17.31-35.37-24.66-.65-.38-1.47.08-1.51.83-.75,14.84,4.35,22.01,11.97,34.62,13.59,32.07,49.58,61.88,82.37,72.71-.04.05-.09.1-.14.15,32.07,11.81,80.08,11.95,91.98,50.11.62,1.27,2.75,1.64,2.77-.01Z"/><path id="lowest_fin" class="cls-31" d="m1168.35,759.16c-30.26-13.84-18.5,27.5-3.62,38.31.55.4,1.33.14,1.54-.5,1.61-4.98,3.23-9.95,4.94-14.89,1.93-3.2,1.85-5.5-.05-7.41-.65-.67-.06-1.78.86-1.67,5.37.68,6.89-.53,11.57-5.22.49-.49.34-1.33-.29-1.62-5.01-2.29-10.02-4.57-14.96-7Z"/><path id="eye" class="cls-27" d="m1143.57,660.19c-1.25,1.93-2.67.85-2.41-.59.15-.79-.51-1.39-1.26-1.24-.98.05-1.3,1.36-.45,1.85,1.66.96,3.12,2.15,4.43,3.63.4.45,1.11.43,1.5-.03.63-1.2,4.21-3.59,2.01-4.65-1.65-.29-3.61-1.47-3.83,1.02Z"/><path id="pupil" class="cls-31" d="m1140.96,659.59c-.35,1.91,2.17,2.56,2.54.65.37-1.9-2.19-2.57-2.54-.65Z"/><path id="mouth" class="cls-11" d="m1097.42,648.96c20.59,22.53,42.01,25.07,68.53,36.21,12.92,16.21-1.36,18.97-15.35,14.89-20.12-13.52-39.03-28.89-59.34-42.14"/><path id="teeth_zig_zag" class="cls-12" d="m1097.42,648.96c1.07,14.66-4.56,13.03,10.65,11.49.54-.06,1.04.33,1.1.87.4,3.14.73,6.29,1.04,9.44.06.58.59.99,1.16.89,3.33-.58,6.66-1.2,9.99-1.79.53-.09,1.03.25,1.15.77.82,3.81,1.67,7.61,2.54,11.4.13.57.71.9,1.27.73,5.28-1.61,10.57-3.18,15.86-4.73.58-.17,1.18.21,1.27.81.83,5.57,1.64,11.14,2.7,16.67.11.59.72.95,1.29.77,7.32-2.28,14.63-4.57,21.92-6.94"/></g></svg>